{"glyphs":{"0":{"ha":861,"x_min":63,"x_max":799,"o":"m 799 388 q 708 61 799 174 q 436 -51 618 -51 q 160 63 257 -51 q 63 388 63 176 l 63 543 q 159 867 63 754 q 432 981 256 981 q 704 867 610 981 q 799 543 799 754 l 799 388 m 619 544 q 603 683 619 631 q 562 765 588 736 q 502 803 536 793 q 432 813 468 813 q 363 803 397 813 q 302 764 329 793 q 258 682 275 735 q 242 544 242 629 l 242 386 q 259 247 242 300 q 304 165 276 194 q 367 126 332 136 q 436 117 401 117 q 506 126 472 117 q 564 165 539 136 q 604 246 589 193 q 619 386 619 299 l 619 544 z "},"1":{"ha":861,"x_min":156,"x_max":647,"o":"m 469 -36 l 469 765 l 242 635 l 156 779 l 490 965 l 647 965 l 647 -36 l 469 -36 z "},"2":{"ha":861,"x_min":71,"x_max":779,"o":"m 439 476 q 507 554 482 521 q 544 614 532 588 q 560 663 557 640 q 563 706 563 685 l 563 717 q 530 790 563 757 q 419 822 497 822 q 365 817 392 822 q 311 796 338 811 q 259 753 285 781 q 208 682 233 725 l 75 769 q 120 839 93 801 q 188 908 147 876 q 285 960 229 939 q 418 981 342 981 q 564 960 503 981 q 665 903 625 939 q 723 822 704 868 q 742 724 742 775 l 742 710 q 705 553 742 628 q 597 408 668 479 l 303 111 l 779 111 l 779 -36 l 71 -36 l 71 97 l 439 476 z "},"3":{"ha":861,"x_min":64,"x_max":749,"o":"m 92 836 q 211 941 142 901 q 389 981 281 981 q 517 963 460 981 q 614 912 574 944 q 676 833 654 879 q 699 731 699 786 l 699 717 q 692 653 699 688 q 669 588 686 619 q 625 531 653 557 q 554 488 597 504 q 701 408 654 469 q 749 261 749 347 l 749 240 q 726 131 749 183 q 659 38 704 78 q 545 -27 614 -3 q 385 -51 476 -51 q 216 -24 297 -51 q 64 60 135 3 l 151 199 q 217 154 188 172 q 275 126 247 136 q 329 111 303 115 q 386 107 356 107 q 525 144 481 107 q 569 249 569 182 l 569 267 q 526 374 569 340 q 388 408 483 408 l 253 408 l 253 561 l 372 561 q 449 572 419 561 q 496 601 479 582 q 519 647 513 619 q 525 706 525 674 l 525 717 q 488 799 525 774 q 389 825 451 825 q 285 801 325 825 q 213 742 246 778 l 92 836 z "},"4":{"ha":861,"x_min":21,"x_max":831,"o":"m 694 615 l 694 315 l 831 315 l 831 172 l 694 172 l 694 -36 l 519 -36 l 519 172 l 21 172 l 21 288 l 476 965 l 668 965 l 231 315 l 519 315 l 519 615 l 694 615 z "},"5":{"ha":861,"x_min":82,"x_max":794,"o":"m 615 299 q 569 422 615 379 q 439 465 522 465 q 328 442 375 465 q 249 386 282 418 l 129 386 l 161 965 l 729 965 l 729 818 l 321 818 l 310 557 q 389 593 344 578 q 496 608 433 608 q 624 583 568 608 q 717 516 679 558 q 775 418 756 474 q 794 303 794 363 l 794 282 q 774 163 794 222 q 710 56 754 103 q 599 -22 667 8 q 438 -51 532 -51 q 243 -27 329 -51 q 82 60 157 -3 l 168 200 q 236 154 203 172 q 302 126 269 136 q 368 113 335 117 q 436 110 401 110 q 572 159 528 110 q 615 283 615 208 l 615 299 z "},"6":{"ha":861,"x_min":81,"x_max":794,"o":"m 679 764 q 581 806 632 792 q 467 819 529 819 q 392 806 428 819 q 328 759 357 792 q 281 673 300 726 q 257 539 261 619 q 355 604 293 582 q 482 626 417 626 q 613 603 554 626 q 711 538 671 581 q 773 436 751 496 q 794 304 794 376 l 794 276 q 770 147 794 207 q 700 42 746 86 q 588 -26 654 -1 q 439 -51 522 -51 q 275 -22 343 -51 q 164 64 207 8 q 101 198 121 119 q 81 372 81 276 l 81 436 q 112 708 81 601 q 197 874 143 814 q 324 958 251 935 q 478 981 396 981 q 617 965 546 981 q 744 911 688 949 l 679 764 m 260 282 q 304 155 260 200 q 435 110 349 110 q 573 155 526 110 q 619 283 619 200 l 619 299 q 576 428 619 386 q 442 471 533 471 q 359 458 393 471 q 303 422 325 444 q 270 368 281 399 q 260 303 260 338 l 260 282 z "},"7":{"ha":861,"x_min":72,"x_max":788,"o":"m 404 -36 l 217 -36 l 601 815 l 72 815 l 72 965 l 788 965 l 788 829 l 404 -36 z "},"8":{"ha":861,"x_min":83,"x_max":778,"o":"m 292 682 q 304 624 292 649 q 337 584 317 600 q 382 560 357 568 q 432 553 407 553 q 483 560 458 553 q 526 584 507 568 q 558 624 546 600 q 569 682 569 649 l 569 696 q 531 794 569 761 q 431 826 493 826 q 332 794 372 826 q 292 696 292 761 l 292 682 m 267 240 q 313 140 267 175 q 433 104 358 104 q 551 140 508 104 q 594 240 594 175 l 594 254 q 581 318 594 292 q 547 363 568 344 q 496 389 525 381 q 433 397 467 397 q 370 389 400 397 q 317 363 340 381 q 281 319 294 346 q 267 254 267 292 l 267 240 m 83 253 q 97 331 83 294 q 134 398 111 368 q 186 449 157 428 q 247 479 215 469 q 185 523 211 497 q 143 577 160 549 q 118 635 126 606 q 110 689 110 664 l 110 706 q 128 809 110 760 q 187 897 147 858 q 287 958 226 935 q 429 981 347 981 q 570 958 510 981 q 671 897 631 935 q 731 809 711 858 q 751 706 751 760 l 751 689 q 744 636 751 664 q 719 581 736 608 q 677 526 703 553 q 615 479 651 500 q 677 448 647 469 q 729 397 707 426 q 765 331 751 368 q 778 253 778 294 l 778 229 q 756 118 778 169 q 690 29 733 67 q 582 -30 646 -8 q 435 -51 518 -51 q 283 -30 349 -51 q 172 29 217 -8 q 106 118 128 67 q 83 229 83 169 l 83 253 z "},"9":{"ha":861,"x_min":67,"x_max":781,"o":"m 182 165 q 281 124 229 138 q 394 110 332 110 q 481 124 443 110 q 544 170 518 138 q 585 256 571 203 q 604 390 600 310 q 506 325 568 347 q 379 303 444 303 q 248 326 306 303 q 150 390 190 349 q 88 491 110 432 q 67 624 67 550 l 67 651 q 91 781 67 721 q 161 886 115 842 q 273 956 207 931 q 422 981 339 981 q 586 951 518 981 q 697 865 654 921 q 760 731 740 810 q 781 557 781 653 l 781 493 q 752 222 781 328 q 672 55 724 115 q 546 -28 619 -6 q 383 -51 472 -51 q 244 -35 315 -51 q 117 18 174 -19 l 182 165 m 601 647 q 557 774 601 729 q 426 819 513 819 q 288 774 335 819 q 242 646 242 729 l 242 631 q 285 501 242 543 q 419 458 328 458 q 501 472 467 458 q 558 508 536 485 q 591 561 581 531 q 601 626 601 592 l 601 647 z "},"\u0000":{"ha":347,"x_min":0,"x_max":0,"o":""},"!":{"ha":444,"x_min":124,"x_max":321,"o":"m 131 81 l 314 81 l 314 -100 l 131 -100 l 131 81 m 150 215 l 124 1032 l 321 1032 l 294 215 l 150 215 z "},"\"":{"ha":557,"x_min":61,"x_max":496,"o":"m 79 678 l 61 1025 l 242 1025 l 224 678 l 79 678 m 333 678 l 315 1025 l 496 1025 l 478 678 l 333 678 z "},"#":{"ha":893,"x_min":58,"x_max":824,"o":"m 781 374 l 781 222 l 635 222 l 600 -36 l 458 -36 l 492 222 l 325 222 l 292 -36 l 149 -36 l 182 222 l 58 222 l 58 374 l 203 374 l 228 563 l 101 563 l 101 714 l 249 714 l 282 965 l 425 965 l 392 714 l 558 714 l 592 965 l 733 965 l 700 714 l 824 714 l 824 563 l 681 563 l 654 374 l 781 374 m 540 563 l 369 563 l 343 374 l 515 374 l 540 563 z "},"$":{"ha":906,"x_min":90,"x_max":817,"o":"m 410 -33 q 320 -21 365 -31 q 233 3 275 -11 q 153 37 190 18 q 90 78 117 56 l 175 207 q 284 146 229 168 q 410 113 339 124 l 410 404 q 308 434 360 417 q 215 483 257 451 q 145 563 172 514 q 118 688 118 613 l 118 713 q 133 794 118 753 q 181 872 147 836 q 270 932 214 907 q 410 964 326 957 l 410 1043 l 513 1043 l 513 965 q 661 938 588 961 q 783 872 735 915 l 701 754 q 606 803 653 788 q 513 821 558 818 l 513 539 q 663 487 604 514 q 756 426 722 460 q 803 349 790 392 q 817 254 817 307 l 817 243 q 793 116 817 167 q 728 33 769 65 q 632 -14 688 1 q 513 -33 576 -29 l 513 -129 l 410 -129 l 410 -33 m 643 242 q 640 285 643 265 q 622 322 636 306 q 583 353 608 339 q 513 379 557 367 l 513 111 q 615 153 586 119 q 643 228 643 188 l 643 242 m 289 694 q 296 644 289 664 q 317 609 303 624 q 355 584 332 594 q 410 564 378 574 l 410 818 q 344 801 368 814 q 307 774 319 789 q 292 743 294 758 q 289 718 289 728 l 289 694 z "},"%":{"ha":1274,"x_min":81,"x_max":1193,"o":"m 257 -35 l 856 965 l 1015 965 l 418 -35 l 257 -35 m 318 985 q 492 920 428 985 q 556 746 556 856 l 556 692 q 492 517 556 582 q 318 453 428 453 q 144 517 208 453 q 81 692 81 582 l 81 746 q 144 920 81 856 q 318 985 208 985 m 318 571 q 397 604 376 571 q 418 694 418 638 l 418 743 q 397 833 418 799 q 318 867 376 867 q 239 833 260 867 q 218 743 218 799 l 218 694 q 239 604 218 638 q 318 571 260 571 m 956 485 q 1129 420 1065 485 q 1193 246 1193 356 l 1193 192 q 1129 17 1193 82 q 956 -47 1065 -47 q 782 17 846 -47 q 718 192 718 82 l 718 246 q 782 420 718 356 q 956 485 846 485 m 956 71 q 1035 104 1014 71 q 1056 194 1056 138 l 1056 243 q 1035 333 1056 299 q 956 367 1014 367 q 876 333 897 367 q 856 243 856 299 l 856 194 q 876 104 856 138 q 956 71 897 71 z "},"&":{"ha":958,"x_min":56,"x_max":968,"o":"m 876 515 q 858 322 876 407 q 799 169 839 238 l 968 -35 l 756 -35 l 689 49 q 558 -27 628 -3 q 415 -51 488 -51 l 404 -51 q 279 -37 342 -51 q 167 10 217 -22 q 86 94 117 42 q 56 219 56 146 l 56 246 q 72 338 56 296 q 118 413 89 379 q 189 476 147 447 q 281 528 231 504 l 247 565 q 189 653 207 611 q 171 746 171 696 l 171 763 q 240 919 171 858 q 436 981 310 981 q 551 963 501 981 q 633 914 600 944 q 682 842 665 883 q 699 757 699 801 l 699 742 q 661 612 699 675 q 522 486 624 549 l 686 299 q 699 334 693 315 q 708 377 704 353 q 713 435 711 401 q 714 515 714 468 l 876 515 m 411 104 q 586 168 521 104 l 378 414 q 262 330 293 371 q 231 243 231 289 l 231 224 q 279 139 231 174 q 411 104 328 104 m 339 743 q 367 678 339 717 q 428 603 394 640 q 481 641 461 624 q 513 674 501 658 q 529 706 525 690 q 533 740 533 722 l 533 750 q 508 809 533 783 q 436 835 483 835 q 361 810 383 835 q 339 757 339 786 l 339 743 z "},"'":{"ha":303,"x_min":61,"x_max":242,"o":"m 79 678 l 61 1025 l 242 1025 l 224 678 l 79 678 z "},"(":{"ha":501,"x_min":83,"x_max":454,"o":"m 264 381 q 306 67 264 222 q 454 -236 347 -89 l 288 -236 q 133 46 183 -112 q 83 388 83 204 l 83 443 q 133 783 83 626 q 288 1064 183 940 l 454 1064 q 308 772 351 925 q 264 450 264 618 l 264 381 z "},")":{"ha":501,"x_min":47,"x_max":418,"o":"m 238 450 q 194 772 238 618 q 47 1064 150 925 l 214 1064 q 368 783 318 940 q 418 443 418 626 l 418 388 q 368 46 418 204 q 214 -236 318 -112 l 47 -236 q 196 67 154 -89 q 238 381 238 222 l 238 450 z "},"*":{"ha":665,"x_min":57,"x_max":608,"o":"m 128 544 l 57 679 l 246 747 l 57 814 l 128 949 l 282 833 l 260 1018 l 407 1018 l 383 833 l 539 949 l 608 814 l 419 747 l 608 679 l 539 544 l 383 660 l 407 476 l 260 476 l 283 660 l 128 544 z "},"+":{"ha":833,"x_min":58,"x_max":775,"o":"m 494 797 l 494 513 l 775 513 l 775 368 l 494 368 l 494 64 l 339 64 l 339 368 l 58 368 l 58 513 l 339 513 l 339 797 l 494 797 z "},",":{"ha":476,"x_min":96,"x_max":351,"o":"m 154 79 l 351 79 l 238 -243 l 96 -243 l 154 79 z "},"-":{"ha":594,"x_min":61,"x_max":533,"o":"m 61 536 l 533 536 l 533 392 l 61 392 l 61 536 z "},".":{"ha":476,"x_min":150,"x_max":326,"o":"m 150 81 l 326 81 l 326 -100 l 150 -100 l 150 81 z "},"/":{"ha":674,"x_min":36,"x_max":638,"o":"m 638 1079 l 207 -182 l 36 -182 l 465 1079 l 638 1079 z "},":":{"ha":560,"x_min":192,"x_max":368,"o":"m 192 182 l 368 182 l 368 1 l 192 1 l 192 182 m 192 807 l 368 807 l 368 626 l 192 626 l 192 807 z "},";":{"ha":560,"x_min":138,"x_max":393,"o":"m 192 807 l 368 807 l 368 626 l 192 626 l 192 807 m 196 189 l 393 189 l 279 -132 l 138 -132 l 196 189 z "},"<":{"ha":861,"x_min":88,"x_max":760,"o":"m 282 443 l 760 206 l 760 29 l 88 376 l 88 514 l 760 861 l 760 686 l 282 451 l 282 443 z "},"=":{"ha":861,"x_min":103,"x_max":758,"o":"m 103 664 l 758 664 l 758 518 l 103 518 l 103 664 m 103 371 l 758 371 l 758 225 l 103 225 l 103 371 z "},">":{"ha":861,"x_min":101,"x_max":774,"o":"m 579 451 l 101 686 l 101 861 l 774 514 l 774 376 l 101 29 l 101 206 l 579 443 l 579 451 z "},"?":{"ha":774,"x_min":60,"x_max":701,"o":"m 278 196 l 278 257 q 280 319 278 292 q 292 374 282 347 q 323 431 301 401 q 385 496 344 460 q 458 567 431 539 q 501 619 486 596 q 519 662 515 642 q 524 710 524 682 l 524 724 q 490 799 524 767 q 374 832 456 832 q 255 807 308 832 q 157 739 201 782 l 60 861 q 208 958 126 928 q 379 989 289 989 q 515 969 456 989 q 617 916 575 950 q 680 834 658 882 q 701 729 701 786 l 701 710 q 688 619 701 658 q 651 546 674 579 q 598 483 628 513 q 536 422 568 453 q 492 378 510 397 q 463 342 474 360 q 448 304 453 325 q 443 253 443 283 l 443 196 l 278 196 m 269 81 l 453 81 l 453 -100 l 269 -100 l 269 81 z "},"@":{"ha":1393,"x_min":69,"x_max":1324,"o":"m 1060 49 q 957 75 1004 49 q 890 168 910 101 l 889 168 q 850 113 876 135 q 793 76 824 90 q 731 57 763 63 q 675 51 700 51 q 553 72 607 51 q 463 129 500 92 q 406 219 425 167 q 386 333 386 271 l 386 444 q 406 560 386 508 q 460 649 425 613 q 543 706 494 686 q 650 726 592 726 q 772 703 729 726 q 831 654 815 681 l 831 715 l 990 715 l 990 289 q 1008 202 990 231 q 1071 174 1026 174 q 1121 185 1099 174 q 1158 226 1143 197 q 1181 300 1174 254 q 1189 414 1189 346 l 1189 425 q 1155 631 1189 542 q 1056 783 1121 721 q 898 876 992 844 q 685 908 804 908 q 494 875 582 908 q 342 778 407 842 q 241 621 278 714 q 204 408 204 528 l 204 389 q 240 163 204 260 q 342 1 276 67 q 501 -97 408 -64 q 710 -129 594 -129 q 910 -108 810 -129 q 1096 -42 1011 -86 l 1144 -154 q 948 -227 1057 -201 q 714 -253 839 -253 q 441 -208 561 -253 q 238 -79 321 -162 q 113 123 156 4 q 69 388 69 242 l 69 410 q 113 658 69 544 q 236 855 156 772 q 430 984 317 938 q 685 1031 543 1031 q 958 988 839 1031 q 1159 866 1078 944 q 1282 676 1240 788 q 1324 429 1324 565 l 1324 415 q 1312 288 1324 353 q 1270 169 1300 222 q 1189 83 1240 117 q 1060 49 1138 49 m 557 353 q 588 243 557 282 q 685 204 619 204 q 781 238 743 204 q 819 338 819 272 l 819 436 q 788 540 819 503 q 685 578 756 578 q 591 542 625 578 q 557 422 557 507 l 557 353 z "},"A":{"ha":958,"x_min":25,"x_max":933,"o":"m 933 -36 l 740 -36 l 643 239 l 306 239 l 207 -36 l 25 -36 l 397 965 l 557 965 l 933 -36 m 357 388 l 592 388 l 524 592 q 495 676 506 642 q 474 746 485 710 q 463 708 468 725 q 453 674 458 692 q 441 638 447 657 q 425 592 435 618 l 357 388 z "},"B":{"ha":918,"x_min":113,"x_max":863,"o":"m 113 965 l 501 965 q 817 721 817 965 l 817 692 q 809 627 817 658 q 783 569 801 596 q 733 522 764 542 q 658 490 703 501 q 806 422 750 476 q 863 263 863 367 l 863 228 q 785 34 863 104 q 544 -36 707 -36 l 113 -36 l 113 965 m 289 111 l 450 111 q 552 116 508 111 q 624 135 596 121 q 667 176 653 150 q 681 247 681 203 l 681 278 q 667 342 681 317 q 624 384 654 368 q 544 406 593 400 q 424 413 494 413 l 289 413 l 289 111 m 289 818 l 289 557 l 419 557 q 512 560 471 557 q 580 575 553 563 q 622 613 607 588 q 636 686 636 639 l 636 711 q 587 797 636 775 q 425 818 538 818 l 289 818 z "},"C":{"ha":914,"x_min":76,"x_max":863,"o":"m 494 981 q 681 956 600 981 q 839 869 763 931 l 743 733 q 622 801 682 785 q 494 817 563 817 q 407 803 450 817 q 331 756 364 790 q 276 661 297 721 q 256 508 256 601 l 256 406 q 275 271 256 326 q 327 181 294 215 q 403 130 360 146 q 493 114 446 114 q 635 135 563 114 q 768 218 708 157 l 863 82 q 769 12 818 38 q 671 -28 719 -14 q 575 -47 622 -43 q 486 -51 528 -51 q 330 -28 404 -51 q 199 47 256 -4 q 110 178 143 99 q 76 369 76 257 l 76 549 q 109 742 76 661 q 199 877 142 824 q 331 956 256 931 q 494 981 407 981 z "},"D":{"ha":972,"x_min":113,"x_max":896,"o":"m 461 965 q 790 855 685 965 q 896 536 896 744 l 896 393 q 872 209 896 289 q 797 75 849 129 q 663 -8 744 21 q 464 -36 581 -36 l 113 -36 l 113 965 l 461 965 m 289 114 l 438 114 q 556 129 504 114 q 644 178 608 144 q 698 266 679 211 q 717 400 717 321 l 717 529 q 647 751 717 688 q 438 815 576 815 l 289 815 l 289 114 z "},"E":{"ha":844,"x_min":113,"x_max":767,"o":"m 757 965 l 757 818 l 289 818 l 289 549 l 728 549 l 728 404 l 289 404 l 289 111 l 767 111 l 767 -36 l 113 -36 l 113 965 l 757 965 z "},"F":{"ha":807,"x_min":113,"x_max":757,"o":"m 113 -36 l 113 965 l 757 965 l 757 815 l 290 815 l 290 529 l 728 529 l 728 379 l 290 379 l 290 -36 l 113 -36 z "},"G":{"ha":953,"x_min":76,"x_max":872,"o":"m 521 981 q 697 956 610 981 q 863 868 785 931 l 767 732 q 647 800 711 781 q 521 819 583 819 q 414 806 463 819 q 330 759 365 793 q 274 665 294 725 q 254 508 254 604 l 254 406 q 275 267 254 324 q 333 176 296 211 q 420 125 369 140 q 532 110 471 110 q 619 117 581 110 q 696 139 658 124 l 696 379 l 486 379 l 486 528 l 872 528 l 872 40 q 797 1 839 18 q 710 -28 756 -17 q 616 -45 664 -39 q 524 -51 568 -51 q 347 -28 428 -51 q 205 47 265 -4 q 110 178 144 99 q 76 369 76 257 l 76 549 q 110 742 76 661 q 202 877 143 824 q 343 956 261 931 q 521 981 425 981 z "},"H":{"ha":996,"x_min":113,"x_max":883,"o":"m 706 413 l 290 413 l 290 -36 l 113 -36 l 113 965 l 290 965 l 290 560 l 706 560 l 706 965 l 883 965 l 883 -36 l 706 -36 l 706 413 z "},"I":{"ha":403,"x_min":113,"x_max":290,"o":"m 113 965 l 290 965 l 290 -36 l 113 -36 l 113 965 z "},"J":{"ha":682,"x_min":17,"x_max":571,"o":"m 393 965 l 571 965 l 571 249 q 549 108 571 165 q 487 15 528 50 q 388 -36 446 -21 q 257 -51 329 -51 q 130 -29 194 -51 q 17 36 65 -7 l 99 172 q 177 125 143 139 q 260 111 211 111 q 359 150 325 111 q 393 292 393 189 l 393 965 z "},"K":{"ha":925,"x_min":113,"x_max":911,"o":"m 503 524 l 911 -36 l 686 -36 l 383 394 l 290 293 l 290 -36 l 113 -36 l 113 965 l 290 965 l 290 507 l 685 965 l 890 965 l 503 524 z "},"L":{"ha":775,"x_min":113,"x_max":747,"o":"m 290 965 l 290 114 l 747 114 l 747 -36 l 113 -36 l 113 965 l 290 965 z "},"M":{"ha":1215,"x_min":113,"x_max":1103,"o":"m 329 658 q 307 720 318 685 q 278 810 296 756 l 278 -36 l 113 -36 l 113 965 l 365 965 l 611 343 l 847 965 l 1103 965 l 1103 -36 l 935 -36 l 935 810 q 908 716 919 747 q 888 658 897 685 l 678 131 l 536 131 l 329 658 z "},"N":{"ha":1001,"x_min":113,"x_max":889,"o":"m 113 965 l 317 965 l 658 358 q 692 290 674 331 q 722 200 711 249 l 722 965 l 889 965 l 889 -36 l 685 -36 l 342 572 q 306 644 322 606 q 279 726 289 683 l 279 -36 l 113 -36 l 113 965 z "},"O":{"ha":1000,"x_min":76,"x_max":924,"o":"m 500 981 q 662 956 585 981 q 797 880 739 932 q 890 746 856 828 q 924 547 924 664 l 924 382 q 890 181 924 264 q 798 47 856 99 q 663 -28 740 -4 q 500 -51 586 -51 q 337 -28 414 -51 q 202 47 260 -4 q 110 181 144 99 q 76 382 76 264 l 76 547 q 110 746 76 664 q 203 880 144 828 q 338 956 261 932 q 500 981 415 981 m 500 111 q 596 124 551 111 q 674 171 640 138 q 726 261 707 204 q 744 404 744 318 l 744 525 q 726 668 744 611 q 674 758 707 725 q 596 805 640 792 q 500 818 551 818 q 406 805 450 818 q 328 758 361 792 q 275 668 294 725 q 256 525 256 611 l 256 404 q 275 261 256 318 q 328 171 294 204 q 406 124 361 138 q 500 111 450 111 z "},"P":{"ha":883,"x_min":113,"x_max":833,"o":"m 113 965 l 490 965 q 645 944 581 965 q 751 884 710 922 q 813 793 793 846 q 833 679 833 740 l 833 650 q 813 534 833 589 q 749 438 792 479 q 642 373 706 397 q 490 349 578 349 l 290 349 l 290 -36 l 113 -36 l 113 965 m 290 817 l 290 499 l 467 499 q 604 532 554 499 q 654 653 654 565 l 654 678 q 642 746 654 719 q 606 788 629 772 q 551 810 583 804 q 482 817 519 817 l 290 817 z "},"Q":{"ha":992,"x_min":76,"x_max":950,"o":"m 500 981 q 662 956 585 981 q 797 880 739 932 q 890 746 856 828 q 924 547 924 664 l 924 382 q 900 210 924 282 q 835 85 876 138 l 950 -29 l 849 -133 l 719 -6 q 615 -40 671 -29 q 500 -51 560 -51 q 337 -28 414 -51 q 202 47 260 -4 q 110 181 144 99 q 76 382 76 264 l 76 547 q 110 746 76 664 q 203 880 144 828 q 338 956 261 932 q 500 981 415 981 m 500 111 q 547 113 524 111 q 590 122 569 115 l 472 240 l 574 344 l 704 214 q 734 294 724 247 q 744 404 744 340 l 744 525 q 726 668 744 611 q 674 758 707 725 q 596 805 640 792 q 500 818 551 818 q 406 805 450 818 q 328 758 361 792 q 275 668 294 725 q 256 525 256 611 l 256 404 q 275 261 256 318 q 328 171 294 204 q 406 124 361 138 q 500 111 450 111 z "},"R":{"ha":917,"x_min":113,"x_max":856,"o":"m 494 365 l 290 365 l 290 -36 l 113 -36 l 113 965 l 492 965 q 630 944 569 965 q 731 888 690 924 q 794 801 772 851 q 815 690 815 750 l 815 639 q 776 497 815 560 q 660 399 738 433 q 758 181 710 289 q 856 -36 806 74 l 663 -36 l 494 365 m 290 817 l 290 514 l 454 514 q 598 550 557 514 q 639 643 639 586 l 639 685 q 600 780 639 743 q 469 817 561 817 l 290 817 z "},"S":{"ha":869,"x_min":69,"x_max":796,"o":"m 436 108 q 575 142 532 108 q 618 228 618 176 l 618 243 q 573 334 618 304 q 442 383 528 364 q 316 413 379 397 q 202 458 253 428 q 119 541 151 489 q 88 681 88 593 l 88 699 q 106 794 88 744 q 165 885 124 843 q 276 953 207 926 q 446 981 344 981 q 606 963 529 981 q 758 897 682 946 l 675 760 q 561 810 614 799 q 449 822 508 822 q 367 811 401 822 q 309 782 332 800 q 275 743 286 764 q 264 701 264 722 l 264 685 q 281 626 264 649 q 328 590 299 604 q 397 566 357 575 q 481 547 436 557 q 630 499 569 528 q 727 435 690 471 q 780 355 764 399 q 796 260 796 311 l 796 242 q 766 102 796 158 q 685 12 736 46 q 567 -37 633 -22 q 428 -51 500 -51 q 322 -42 374 -51 q 224 -18 269 -33 q 138 19 178 -3 q 69 64 99 40 l 156 206 q 274 138 201 167 q 436 108 346 108 z "},"T":{"ha":793,"x_min":14,"x_max":779,"o":"m 779 965 l 779 815 l 486 815 l 486 -36 l 308 -36 l 308 815 l 14 815 l 14 965 l 779 965 z "},"U":{"ha":967,"x_min":94,"x_max":872,"o":"m 483 110 q 578 123 538 110 q 644 167 618 136 q 682 249 669 199 q 694 374 694 300 l 694 965 l 872 965 l 872 376 q 847 171 872 253 q 772 40 821 89 q 650 -31 722 -10 q 483 -51 578 -51 q 317 -31 389 -51 q 195 40 244 -10 q 120 171 146 89 q 94 376 94 253 l 94 965 l 272 965 l 272 374 q 285 249 272 300 q 323 167 297 199 q 389 123 349 136 q 483 110 429 110 z "},"V":{"ha":982,"x_min":39,"x_max":944,"o":"m 39 965 l 229 965 l 492 182 l 764 965 l 944 965 l 567 -36 l 407 -36 l 39 965 z "},"W":{"ha":1378,"x_min":38,"x_max":1342,"o":"m 38 965 l 222 965 l 406 222 l 608 965 l 779 965 l 981 224 l 1171 965 l 1342 965 l 1065 -36 l 896 -36 l 693 735 l 482 -36 l 310 -36 l 38 965 z "},"X":{"ha":929,"x_min":36,"x_max":893,"o":"m 582 478 l 893 -36 l 688 -36 l 458 368 l 236 -36 l 36 -36 l 346 488 l 61 965 l 275 965 l 475 596 l 682 965 l 881 965 l 582 478 z "},"Y":{"ha":900,"x_min":18,"x_max":882,"o":"m 539 360 l 539 -36 l 361 -36 l 361 360 l 18 965 l 217 965 l 454 524 l 688 965 l 882 965 l 539 360 z "},"Z":{"ha":874,"x_min":35,"x_max":829,"o":"m 803 831 l 254 117 l 829 117 l 829 -36 l 35 -36 l 35 110 l 576 813 l 68 813 l 68 965 l 803 965 l 803 831 z "},"[":{"ha":586,"x_min":121,"x_max":528,"o":"m 528 -236 l 121 -236 l 121 1064 l 528 1064 l 528 911 l 300 911 l 300 -83 l 528 -83 l 528 -236 z "},"\\":{"ha":1336,"x_min":44,"x_max":1292,"o":"m 44 553 l 192 553 l 89 965 l 265 965 l 354 553 l 500 553 l 608 965 l 763 965 l 860 553 l 993 553 l 1076 965 l 1250 965 l 1149 553 l 1292 553 l 1292 454 l 1125 454 l 1008 -36 l 856 -36 l 743 454 l 610 454 l 486 -36 l 339 -36 l 217 454 l 44 454 l 44 553 m 418 235 l 476 454 l 374 454 l 418 235 m 933 226 l 974 454 l 881 454 l 933 226 m 635 553 l 721 553 l 682 736 l 635 553 z "},"]":{"ha":586,"x_min":58,"x_max":465,"o":"m 58 -83 l 286 -83 l 286 911 l 58 911 l 58 1064 l 465 1064 l 465 -236 l 58 -236 l 58 -83 z "},"^":{"ha":728,"x_min":58,"x_max":669,"o":"m 506 557 l 364 868 l 222 557 l 58 557 l 283 1006 l 446 1006 l 669 557 l 506 557 z "},"_":{"ha":722,"x_min":0,"x_max":722,"o":"m 722 -208 l 0 -208 l 0 -104 l 722 -104 l 722 -208 z "},"`":{"ha":861,"x_min":247,"x_max":611,"o":"m 453 781 l 247 996 l 454 996 l 611 781 l 453 781 z "},"a":{"ha":796,"x_min":65,"x_max":703,"o":"m 325 -47 q 133 9 201 -47 q 65 167 65 65 l 65 211 q 80 298 65 258 q 128 367 94 338 q 218 413 163 396 q 354 429 274 429 l 529 429 l 529 458 q 497 560 529 529 q 393 592 464 592 q 176 515 274 592 l 90 643 q 222 715 149 683 q 394 746 296 746 q 518 729 461 746 q 616 681 575 713 q 680 605 657 650 q 703 501 703 560 l 703 -36 l 546 -36 l 543 58 q 508 13 532 33 q 453 -20 483 -7 q 389 -40 422 -33 q 325 -47 356 -47 m 529 293 l 358 293 q 262 267 289 293 q 235 196 235 240 l 235 179 q 261 121 235 142 q 339 100 288 100 q 497 151 446 100 q 525 202 521 175 q 529 272 529 229 l 529 293 z "},"b":{"ha":851,"x_min":104,"x_max":788,"o":"m 271 53 l 271 -36 l 104 -36 l 104 1014 l 279 1014 l 279 654 q 324 699 297 681 q 380 727 351 717 q 437 742 408 738 q 489 746 465 746 q 619 723 563 746 q 713 657 675 700 q 769 554 750 614 q 788 419 788 494 l 788 285 q 765 145 788 207 q 703 41 743 83 q 606 -24 663 -1 q 481 -47 550 -47 q 353 -19 404 -47 q 275 53 301 8 l 271 53 m 614 392 q 576 542 614 489 q 454 596 539 596 q 322 545 367 596 q 276 415 276 494 l 276 253 q 290 199 276 226 q 328 151 304 172 q 385 115 351 129 q 458 101 418 101 q 574 155 535 101 q 614 304 614 208 l 614 392 z "},"c":{"ha":732,"x_min":64,"x_max":704,"o":"m 410 746 q 506 738 464 746 q 581 718 547 731 q 640 689 614 706 q 689 656 667 672 l 604 528 q 510 579 557 565 q 410 593 464 593 q 346 583 376 593 q 292 549 315 572 q 254 490 268 526 q 240 400 240 453 l 240 307 q 256 210 240 249 q 297 148 272 171 q 353 116 322 125 q 413 107 383 107 q 533 124 485 107 q 621 172 581 142 l 704 44 q 590 -19 665 8 q 411 -47 515 -47 q 153 47 242 -47 q 64 304 64 140 l 64 400 q 156 655 64 564 q 410 746 249 746 z "},"d":{"ha":850,"x_min":64,"x_max":746,"o":"m 581 54 l 576 54 q 486 -24 546 -1 q 357 -47 426 -47 q 137 38 210 -47 q 64 279 64 124 l 64 414 q 85 553 64 492 q 147 658 107 615 q 244 723 188 700 q 369 746 300 746 q 449 738 415 746 q 508 717 483 729 q 547 691 532 706 q 571 664 563 676 l 571 1014 l 746 1014 l 746 -36 l 581 -36 l 581 54 m 236 306 q 276 155 236 208 q 392 101 315 101 q 469 116 435 101 q 526 156 503 131 q 561 216 549 182 q 574 289 574 250 l 574 444 q 563 498 574 471 q 531 547 553 525 q 477 582 510 568 q 399 596 444 596 q 276 542 315 596 q 236 392 236 488 l 236 306 z "},"e":{"ha":808,"x_min":64,"x_max":747,"o":"m 579 415 l 579 449 q 570 507 579 479 q 540 556 561 535 q 488 589 519 576 q 410 601 456 601 q 278 556 322 601 q 235 444 235 510 l 235 415 l 579 415 m 728 35 q 597 -25 672 -3 q 414 -47 522 -47 q 285 -30 347 -47 q 173 28 222 -12 q 94 138 124 69 q 64 310 64 207 l 64 389 q 91 549 64 482 q 165 660 118 617 q 276 725 213 704 q 413 746 339 746 q 547 725 485 746 q 653 662 608 704 q 722 556 697 619 q 747 410 747 493 l 747 283 l 235 283 q 283 145 235 192 q 424 99 332 99 q 544 113 492 99 q 656 161 597 128 l 728 35 z "},"f":{"ha":564,"x_min":32,"x_max":549,"o":"m 154 586 l 32 586 l 32 729 l 154 729 l 154 782 q 216 960 154 897 q 404 1022 278 1022 q 486 1015 447 1022 q 549 1000 525 1008 l 521 860 q 421 874 479 874 q 329 778 329 874 l 329 729 l 522 729 l 522 586 l 329 586 l 329 -36 l 154 -36 l 154 586 z "},"g":{"ha":850,"x_min":64,"x_max":746,"o":"m 574 67 l 571 67 q 483 -11 540 11 q 357 -33 426 -33 q 137 52 210 -33 q 64 293 64 138 l 64 414 q 85 552 64 490 q 147 657 107 614 q 244 723 188 700 q 369 746 300 746 q 449 738 414 746 q 509 717 483 729 q 551 690 535 704 q 576 663 568 675 l 578 663 l 578 729 l 746 729 l 746 -29 q 658 -267 746 -189 q 382 -346 571 -346 q 238 -322 310 -346 q 119 -262 167 -299 l 199 -126 q 231 -148 210 -136 q 276 -169 251 -160 q 329 -185 301 -179 q 385 -192 357 -192 q 526 -152 478 -192 q 574 -28 574 -112 l 574 67 m 236 319 q 276 169 236 222 q 392 115 315 115 q 469 130 435 115 q 526 170 503 144 q 561 230 549 196 q 574 303 574 264 l 574 444 q 563 498 574 471 q 531 547 553 525 q 477 582 510 568 q 399 596 444 596 q 276 542 315 596 q 236 392 236 488 l 236 319 z "},"h":{"ha":863,"x_min":104,"x_max":765,"o":"m 499 746 q 598 731 550 746 q 683 681 646 715 q 743 593 721 647 q 765 463 765 539 l 765 -36 l 590 -36 l 590 425 q 444 593 590 593 q 395 587 424 593 q 341 562 367 581 q 297 508 315 543 q 279 417 279 474 l 279 -36 l 104 -36 l 104 1014 l 269 1014 l 269 642 l 272 642 q 372 723 313 700 q 499 746 431 746 z "},"i":{"ha":392,"x_min":104,"x_max":288,"o":"m 108 729 l 283 729 l 283 -36 l 108 -36 l 108 729 m 104 1031 l 288 1031 l 288 842 l 104 842 l 104 1031 z "},"j":{"ha":425,"x_min":-78,"x_max":321,"o":"m 138 1031 l 321 1031 l 321 842 l 138 842 l 138 1031 m 317 -106 q 303 -203 317 -160 q 262 -279 290 -247 q 187 -328 233 -311 q 74 -346 140 -346 q -12 -340 31 -346 q -78 -325 -54 -333 l -50 -183 q 3 -194 -19 -192 q 50 -197 26 -197 q 120 -176 99 -197 q 142 -99 142 -154 l 142 729 l 317 729 l 317 -106 z "},"k":{"ha":811,"x_min":104,"x_max":799,"o":"m 489 413 l 799 -36 l 575 -36 l 367 289 l 279 192 l 279 -36 l 104 -36 l 104 1014 l 279 1014 l 279 406 l 565 729 l 786 729 l 489 413 z "},"l":{"ha":383,"x_min":104,"x_max":279,"o":"m 104 1014 l 279 1014 l 279 -36 l 104 -36 l 104 1014 z "},"m":{"ha":1285,"x_min":104,"x_max":1188,"o":"m 924 746 q 1024 728 976 746 q 1108 674 1072 710 q 1166 583 1144 638 q 1188 457 1188 529 l 1188 -36 l 1013 -36 l 1013 421 q 1001 506 1013 472 q 971 558 990 539 q 926 583 951 576 q 874 590 901 590 q 823 583 849 590 q 778 556 797 575 q 746 506 758 538 q 733 426 733 474 l 733 -36 l 558 -36 l 558 424 q 547 504 558 472 q 517 556 536 536 q 474 583 499 575 q 419 590 449 590 q 318 551 357 590 q 279 433 279 513 l 279 -36 l 104 -36 l 104 729 l 269 729 l 269 632 l 272 632 q 353 715 300 685 q 482 746 407 746 q 609 714 553 746 q 686 629 665 682 q 781 717 726 688 q 924 746 836 746 z "},"n":{"ha":863,"x_min":104,"x_max":765,"o":"m 499 746 q 598 731 550 746 q 683 681 646 715 q 743 593 721 647 q 765 463 765 539 l 765 -36 l 590 -36 l 590 425 q 444 593 590 593 q 395 587 424 593 q 341 562 367 581 q 297 508 315 543 q 279 417 279 474 l 279 -36 l 104 -36 l 104 729 l 269 729 l 269 642 l 272 642 q 372 723 313 700 q 499 746 431 746 z "},"o":{"ha":844,"x_min":64,"x_max":781,"o":"m 422 106 q 494 117 461 106 q 552 151 528 128 q 590 214 576 175 q 604 307 604 253 l 604 392 q 555 547 604 501 q 422 593 506 593 q 290 547 339 593 q 240 392 240 501 l 240 307 q 254 214 240 253 q 292 151 268 175 q 350 117 317 128 q 422 106 383 106 m 422 -47 q 274 -24 340 -47 q 162 44 208 0 q 90 155 115 89 q 64 304 64 221 l 64 394 q 90 544 64 479 q 162 654 115 610 q 274 722 208 699 q 422 746 340 746 q 569 722 503 746 q 683 654 636 699 q 755 544 729 610 q 781 394 781 479 l 781 304 q 755 155 781 221 q 683 44 729 89 q 569 -24 636 0 q 422 -47 503 -47 z "},"p":{"ha":851,"x_min":104,"x_max":788,"o":"m 479 -47 q 360 -23 410 -47 q 279 42 310 1 l 279 -333 l 104 -333 l 104 729 l 272 729 l 272 646 q 318 694 292 675 q 373 725 344 714 q 431 741 401 736 q 488 746 461 746 q 619 722 563 746 q 713 656 675 699 q 769 553 750 614 q 788 419 788 493 l 788 285 q 766 146 788 207 q 704 42 744 85 q 607 -24 664 -1 q 479 -47 550 -47 m 614 392 q 576 542 614 489 q 454 596 539 596 q 322 545 367 596 q 276 415 276 494 l 276 253 q 290 199 276 226 q 328 151 304 172 q 385 115 351 129 q 458 101 418 101 q 574 155 535 101 q 614 304 614 208 l 614 392 z "},"q":{"ha":850,"x_min":64,"x_max":746,"o":"m 574 53 l 569 53 q 483 -25 539 -3 q 357 -47 426 -47 q 137 38 210 -47 q 64 279 64 124 l 64 414 q 85 553 64 492 q 147 658 107 615 q 244 723 188 700 q 369 746 300 746 q 447 738 413 746 q 506 717 481 729 q 547 691 531 706 q 574 664 564 676 l 576 664 l 576 729 l 746 729 l 746 -333 l 574 -333 l 574 53 m 236 306 q 276 155 236 208 q 392 101 315 101 q 469 116 435 101 q 526 156 503 131 q 561 216 549 182 q 574 289 574 250 l 574 444 q 563 498 574 471 q 531 547 553 525 q 477 582 510 568 q 399 596 444 596 q 276 542 315 596 q 236 392 236 488 l 236 306 z "},"r":{"ha":614,"x_min":104,"x_max":597,"o":"m 547 572 q 506 585 528 581 q 450 589 483 589 q 383 576 414 589 q 328 541 351 564 q 292 487 306 518 q 279 418 279 456 l 279 -36 l 104 -36 l 104 729 l 272 729 l 272 618 l 275 618 q 356 711 306 676 q 489 746 407 746 q 547 742 518 746 q 597 731 576 738 l 547 572 z "},"s":{"ha":713,"x_min":39,"x_max":665,"o":"m 357 101 q 452 117 417 101 q 488 178 488 133 l 488 186 q 483 219 488 206 q 461 242 478 232 q 413 260 444 251 q 328 279 382 268 q 209 312 258 293 q 128 358 160 331 q 83 425 97 386 q 68 518 68 464 l 68 532 q 84 609 68 571 q 135 678 100 647 q 227 727 171 708 q 364 746 283 746 q 505 733 431 746 q 646 676 579 721 l 571 550 q 484 588 532 576 q 386 599 436 599 q 274 580 304 599 q 243 531 243 561 l 243 522 q 249 489 243 501 q 269 467 254 476 q 313 451 285 458 q 385 436 340 444 q 510 404 457 421 q 598 360 564 388 q 649 292 632 333 q 665 190 665 251 l 665 175 q 645 90 665 131 q 586 19 625 50 q 490 -29 547 -11 q 361 -47 433 -47 q 180 -22 265 -47 q 39 47 94 3 l 117 181 q 226 124 168 146 q 357 101 285 101 z "},"t":{"ha":574,"x_min":31,"x_max":539,"o":"m 153 585 l 31 585 l 31 729 l 153 729 l 153 925 l 328 925 l 328 729 l 521 729 l 521 585 l 328 585 l 328 182 q 348 118 328 133 q 403 103 368 103 q 455 108 429 103 q 511 125 481 113 l 539 -15 q 474 -37 515 -26 q 382 -47 433 -47 q 272 -32 317 -47 q 201 13 228 -17 q 164 84 175 42 q 153 181 153 126 l 153 585 z "},"u":{"ha":858,"x_min":97,"x_max":754,"o":"m 363 -49 q 169 23 242 -49 q 97 235 97 94 l 97 729 l 272 729 l 272 272 q 283 190 272 222 q 314 138 294 157 q 360 112 333 119 q 417 104 386 104 q 472 113 443 104 q 524 142 500 121 q 563 197 547 163 q 579 283 579 232 l 579 729 l 754 729 l 754 -36 l 588 -36 l 588 56 l 585 56 q 543 8 568 28 q 488 -24 518 -11 q 426 -42 458 -36 q 363 -49 393 -49 z "},"v":{"ha":744,"x_min":8,"x_max":736,"o":"m 258 -36 l 8 729 l 200 729 l 374 128 l 379 128 l 554 729 l 736 729 l 486 -36 l 258 -36 z "},"w":{"ha":1092,"x_min":24,"x_max":1068,"o":"m 214 -36 l 24 729 l 211 729 l 324 136 l 329 136 l 468 729 l 633 729 l 765 136 l 771 136 l 893 729 l 1068 729 l 879 -36 l 675 -36 l 550 503 l 544 503 l 418 -36 l 214 -36 z "},"x":{"ha":760,"x_min":25,"x_max":735,"o":"m 493 361 l 735 -36 l 526 -36 l 375 243 l 222 -36 l 25 -36 l 272 361 l 35 729 l 244 729 l 388 474 l 535 729 l 728 729 l 493 361 z "},"y":{"ha":776,"x_min":21,"x_max":756,"o":"m 215 729 l 389 164 l 394 164 l 569 729 l 756 729 l 358 -354 l 194 -297 l 293 -46 l 21 729 l 215 729 z "},"z":{"ha":692,"x_min":31,"x_max":658,"o":"m 636 590 l 261 117 l 658 117 l 658 -36 l 31 -36 l 31 83 l 422 576 l 58 576 l 58 729 l 636 729 l 636 590 z "},"{":{"ha":665,"x_min":49,"x_max":597,"o":"m 49 500 q 160 524 125 501 q 196 607 196 547 l 196 854 q 259 1010 196 957 q 429 1064 322 1064 l 597 1064 l 597 910 l 461 910 q 415 903 432 910 q 388 881 397 896 q 377 842 379 867 q 375 782 375 817 l 375 597 q 369 546 375 572 q 350 496 364 519 q 313 453 336 472 q 253 426 289 435 q 311 401 288 418 q 349 360 335 383 q 369 309 364 336 q 375 256 375 282 l 375 35 q 378 -24 375 -1 q 390 -59 381 -46 q 415 -77 399 -72 q 461 -82 432 -82 l 597 -82 l 597 -236 l 429 -236 q 259 -187 322 -236 q 196 -37 196 -139 l 196 244 q 160 329 196 306 q 49 354 125 353 l 49 500 z "},"|":{"ha":426,"x_min":125,"x_max":301,"o":"m 301 -236 l 125 -236 l 125 1063 l 301 1063 l 301 -236 z "},"}":{"ha":665,"x_min":58,"x_max":607,"o":"m 607 354 q 495 329 531 353 q 460 244 460 306 l 460 -37 q 397 -187 460 -139 q 226 -236 333 -236 l 58 -236 l 58 -82 l 194 -82 q 240 -77 224 -82 q 266 -59 257 -72 q 278 -24 275 -46 q 281 35 281 -1 l 281 256 q 286 309 281 282 q 306 360 292 336 q 344 401 321 383 q 403 426 367 418 q 343 453 367 435 q 306 496 319 472 q 286 546 292 519 q 281 597 281 572 l 281 782 q 278 842 281 817 q 267 881 276 867 q 241 903 258 896 q 194 910 224 910 l 58 910 l 58 1064 l 226 1064 q 397 1010 333 1064 q 460 854 460 957 l 460 607 q 495 524 460 547 q 607 500 531 501 l 607 354 z "},"~":{"ha":833,"x_min":75,"x_max":764,"o":"m 546 308 q 463 328 497 308 q 401 371 428 347 q 349 414 374 394 q 294 433 324 433 q 242 396 260 433 q 219 304 225 358 l 75 304 q 94 414 76 363 q 140 503 111 465 q 206 562 168 540 q 290 583 244 583 q 376 564 340 583 q 439 521 411 544 q 490 478 467 497 q 543 458 514 458 q 568 464 556 458 q 590 484 581 469 q 608 524 600 499 q 619 588 615 549 l 764 588 q 696 378 757 449 q 546 308 635 308 z "},"₩":{"ha":1336,"x_min":44,"x_max":1292,"o":"m 44 553 l 192 553 l 89 965 l 265 965 l 354 553 l 500 553 l 608 965 l 763 965 l 860 553 l 993 553 l 1076 965 l 1250 965 l 1149 553 l 1292 553 l 1292 454 l 1125 454 l 1008 -36 l 856 -36 l 743 454 l 610 454 l 486 -36 l 339 -36 l 217 454 l 44 454 l 44 553 m 418 235 l 476 454 l 374 454 l 418 235 m 933 226 l 974 454 l 881 454 l 933 226 m 635 553 l 721 553 l 682 736 l 635 553 z "},"‐":{"ha":583,"x_min":36,"x_max":547,"o":"m 547 325 l 36 325 l 36 482 l 547 482 l 547 325 z "},"©":{"ha":1122,"x_min":74,"x_max":1093,"o":"m 581 38 q 751 69 674 38 q 883 157 828 100 q 969 292 939 214 q 1000 465 1000 371 q 969 640 1000 561 q 881 776 938 719 q 749 863 825 832 q 581 893 672 893 q 415 863 490 893 q 284 776 339 832 q 198 640 229 719 q 167 465 167 561 q 198 292 167 371 q 284 157 229 214 q 415 69 339 100 q 581 38 490 38 m 581 -46 q 372 -6 465 -46 q 212 104 278 35 q 110 267 146 174 q 74 465 74 360 q 110 665 74 572 q 212 828 146 758 q 372 937 278 897 q 581 976 465 976 q 794 937 699 976 q 956 828 889 897 q 1058 665 1022 758 q 1093 465 1093 572 q 1057 267 1093 360 q 954 104 1021 174 q 793 -6 888 35 q 581 -46 699 -46 m 593 757 q 707 740 660 757 q 803 686 754 724 l 733 581 q 672 617 703 604 q 593 629 640 629 q 510 595 540 629 q 481 503 481 561 l 481 431 q 513 331 481 364 q 594 297 544 297 q 684 310 647 297 q 749 346 721 324 l 814 239 q 727 190 781 210 q 592 169 674 169 q 398 238 463 169 q 333 429 333 307 l 333 503 q 402 691 333 625 q 593 757 471 757 z "},"　":{"ha":1264,"x_min":0,"x_max":0,"o":""},"、":{"ha":1264,"x_min":64,"x_max":461,"o":"m 342 -169 q 275 -83 307 -122 q 210 -10 243 -44 q 141 55 176 24 q 64 119 106 86 l 174 222 q 255 158 218 189 q 325 94 292 126 q 392 24 358 61 q 461 -60 425 -14 l 342 -169 z "},"。":{"ha":1264,"x_min":25,"x_max":457,"o":"m 242 -60 q 323 -27 293 -60 q 353 54 353 6 q 323 134 353 100 q 242 168 293 168 q 160 134 188 168 q 132 54 132 100 q 160 -27 132 6 q 242 -60 188 -60 m 242 -158 q 153 -142 193 -158 q 85 -97 114 -125 q 41 -29 57 -68 q 25 54 25 10 q 41 137 25 99 q 85 203 57 175 q 153 249 114 232 q 242 265 193 265 q 330 249 290 265 q 398 203 369 232 q 442 137 426 175 q 457 54 457 99 q 441 -29 457 10 q 397 -97 425 -68 q 328 -142 368 -125 q 242 -158 289 -158 z "},"·":{"ha":585,"x_min":203,"x_max":382,"o":"m 203 508 l 382 508 l 382 331 l 203 331 l 203 508 z "},"‥":{"ha":1264,"x_min":344,"x_max":918,"o":"m 344 508 l 524 508 l 524 331 l 344 331 l 344 508 m 739 508 l 918 508 l 918 331 l 739 331 l 739 508 z "},"…":{"ha":1264,"x_min":167,"x_max":1096,"o":"m 542 508 l 721 508 l 721 331 l 542 331 l 542 508 m 167 508 l 346 508 l 346 331 l 167 331 l 167 508 m 917 508 l 1096 508 l 1096 331 l 917 331 l 917 508 z "},"¨":{"ha":581,"x_min":79,"x_max":501,"o":"m 79 963 l 232 963 l 232 807 l 79 807 l 79 963 m 349 963 l 501 963 l 501 807 l 349 807 l 349 963 z "},"〃":{"ha":1264,"x_min":329,"x_max":935,"o":"m 668 625 l 449 182 l 329 182 l 476 625 l 668 625 m 935 625 l 715 182 l 596 182 l 743 625 l 935 625 z "},"­":{"ha":608,"x_min":0,"x_max":608,"o":"m 608 382 l 0 382 l 0 496 l 608 496 l 608 382 z "},"—":{"ha":1217,"x_min":0,"x_max":1217,"o":"m 1217 382 l 0 382 l 0 496 l 1217 496 l 1217 382 z "},"‖":{"ha":1264,"x_min":471,"x_max":793,"o":"m 793 -250 l 714 -250 l 714 1083 l 793 1083 l 793 -250 m 549 -250 l 471 -250 l 471 1083 l 549 1083 l 549 -250 z "},"＼":{"ha":1264,"x_min":58,"x_max":1206,"o":"m 1206 -171 l 1163 -214 l 58 1007 l 100 1053 l 1206 -171 z "},"∼":{"ha":1264,"x_min":233,"x_max":1031,"o":"m 1031 471 q 992 422 1015 446 q 940 381 968 399 q 882 351 913 363 q 821 340 851 340 q 719 353 761 340 q 632 389 676 365 q 547 427 596 408 q 443 446 499 446 q 354 422 392 446 q 290 358 317 397 l 233 396 q 272 444 249 421 q 324 486 296 468 q 382 515 351 504 q 443 526 413 526 q 545 514 503 526 q 632 478 588 501 q 721 438 676 454 q 821 421 765 421 q 910 445 872 421 q 974 508 947 469 l 1031 471 z "},"‘":{"ha":278,"x_min":17,"x_max":261,"o":"m 206 756 l 17 756 l 128 1076 l 261 1076 l 206 756 z "},"’":{"ha":278,"x_min":17,"x_max":261,"o":"m 72 1054 l 261 1054 l 150 733 l 17 733 l 72 1054 z "},"“":{"ha":486,"x_min":31,"x_max":467,"o":"m 200 756 l 31 756 l 142 1076 l 258 1076 l 200 756 m 408 756 l 239 756 l 350 1076 l 467 1076 l 408 756 z "},"”":{"ha":486,"x_min":19,"x_max":456,"o":"m 286 1054 l 456 1054 l 344 733 l 228 733 l 286 1054 m 78 1054 l 247 1054 l 136 733 l 19 733 l 78 1054 z "},"〔":{"ha":478,"x_min":47,"x_max":438,"o":"m 388 1042 l 438 957 l 150 796 l 150 43 l 438 -118 l 388 -203 l 47 -12 l 47 851 l 388 1042 z "},"〕":{"ha":497,"x_min":47,"x_max":438,"o":"m 438 851 l 438 -12 l 97 -203 l 47 -118 l 335 43 l 335 796 l 47 957 l 97 1042 l 438 851 z "},"〈":{"ha":649,"x_min":53,"x_max":597,"o":"m 597 -131 l 526 -186 l 53 418 l 525 1022 l 597 969 l 164 418 l 597 -131 z "},"〉":{"ha":663,"x_min":56,"x_max":603,"o":"m 603 418 l 131 -186 l 56 -131 l 489 418 l 56 969 l 129 1022 l 603 418 z "},"《":{"ha":700,"x_min":40,"x_max":663,"o":"m 663 -168 l 589 -210 l 224 418 l 589 1049 l 663 1004 l 325 418 l 663 -168 m 479 -168 l 403 -210 l 40 418 l 403 1049 l 479 1004 l 140 418 l 479 -168 z "},"》":{"ha":703,"x_min":35,"x_max":660,"o":"m 660 418 l 294 -210 l 221 -168 l 560 418 q 390 712 478 563 q 221 1004 303 861 l 294 1049 l 660 418 m 474 418 l 111 -210 l 35 -168 l 375 418 q 206 712 293 563 q 35 1004 118 861 l 111 1049 l 474 418 z "},"「":{"ha":488,"x_min":32,"x_max":456,"o":"m 456 964 l 150 964 l 150 460 l 32 460 l 32 1068 l 456 1068 l 456 964 z "},"」":{"ha":488,"x_min":32,"x_max":456,"o":"m 456 -232 l 32 -232 l 32 -128 l 338 -128 l 338 376 l 456 376 l 456 -232 z "},"『":{"ha":536,"x_min":36,"x_max":486,"o":"m 404 933 l 404 988 l 118 988 l 118 538 l 171 538 l 171 933 l 404 933 m 486 856 l 256 856 l 256 460 l 36 460 l 36 1068 l 486 1068 l 486 856 z "},"』":{"ha":522,"x_min":36,"x_max":486,"o":"m 404 -151 l 404 301 l 349 301 l 349 -94 l 118 -94 l 118 -151 l 404 -151 m 486 -229 l 36 -229 l 36 -17 l 267 -17 l 267 379 l 486 379 l 486 -229 z "},"【":{"ha":519,"x_min":35,"x_max":485,"o":"m 35 -182 l 35 1015 l 483 1015 q 350 903 410 968 q 248 762 290 839 q 183 597 206 685 q 160 414 160 508 q 183 233 160 321 q 248 69 206 146 q 351 -71 290 -7 q 485 -182 411 -135 l 35 -182 z "},"】":{"ha":531,"x_min":39,"x_max":490,"o":"m 490 -185 l 40 -185 q 173 -73 113 -137 q 276 69 233 -8 q 342 233 318 146 q 365 414 365 321 q 342 597 365 508 q 276 762 318 685 q 173 903 233 839 q 39 1015 113 968 l 490 1015 l 490 -185 z "},"±":{"ha":861,"x_min":71,"x_max":790,"o":"m 510 906 l 510 644 l 790 644 l 790 497 l 510 497 l 510 233 l 351 233 l 351 497 l 71 497 l 71 644 l 351 644 l 351 906 l 510 906 m 71 168 l 790 168 l 790 21 l 71 21 l 71 168 z "},"×":{"ha":861,"x_min":75,"x_max":768,"o":"m 332 438 l 75 708 l 167 797 l 422 526 l 681 801 l 768 717 l 511 440 l 768 167 l 678 79 l 419 353 l 163 79 l 75 164 l 332 438 z "},"÷":{"ha":861,"x_min":72,"x_max":789,"o":"m 789 513 l 789 368 l 72 368 l 72 513 l 789 513 m 350 793 l 508 793 l 508 638 l 350 638 l 350 793 m 350 243 l 508 243 l 508 88 l 350 88 l 350 243 z "},"≠":{"ha":861,"x_min":103,"x_max":758,"o":"m 103 664 l 496 664 l 599 822 l 738 822 l 635 664 l 758 664 l 758 518 l 538 518 l 443 371 l 758 371 l 758 225 l 346 225 l 246 69 l 107 69 l 207 225 l 103 225 l 103 371 l 304 371 l 399 518 l 103 518 l 103 664 z "},"≤":{"ha":861,"x_min":93,"x_max":760,"o":"m 93 492 l 93 656 l 760 943 l 760 771 l 275 578 l 275 576 l 760 378 l 760 204 l 93 492 m 760 185 l 760 38 l 101 38 l 101 185 l 760 185 z "},"≥":{"ha":861,"x_min":93,"x_max":760,"o":"m 93 204 l 93 378 l 578 576 l 578 578 l 93 771 l 93 943 l 760 656 l 760 492 l 93 204 m 751 185 l 751 38 l 93 38 l 93 185 l 751 185 z "},"∞":{"ha":861,"x_min":15,"x_max":846,"o":"m 431 338 q 335 247 386 279 q 206 214 285 214 q 65 269 115 214 q 15 417 15 325 q 66 563 15 506 q 217 621 117 621 q 290 610 258 621 q 347 582 322 600 q 392 542 372 564 q 431 496 411 519 q 526 587 474 553 q 656 621 578 621 q 796 565 746 621 q 846 418 846 510 q 795 272 846 329 q 644 214 744 214 q 571 224 603 214 q 514 252 539 235 q 469 292 489 269 q 431 338 449 314 m 647 513 q 565 483 600 513 q 501 417 531 453 q 563 351 528 382 q 646 321 597 321 q 709 347 688 321 q 731 418 731 374 q 712 488 731 463 q 647 513 693 513 m 214 322 q 296 350 261 322 q 360 414 331 378 q 332 449 347 431 q 299 481 317 467 q 260 505 281 496 q 215 514 239 514 q 152 488 174 514 q 131 417 131 461 q 149 347 131 372 q 214 322 168 322 z "},"∴":{"ha":861,"x_min":76,"x_max":785,"o":"m 290 201 q 259 126 290 157 q 183 94 228 94 q 143 103 163 94 q 109 126 124 111 q 85 160 94 140 q 76 201 76 179 q 85 241 76 222 q 109 274 94 260 q 143 298 124 289 q 183 307 163 307 q 225 298 206 307 q 259 274 244 289 q 282 241 274 260 q 290 201 290 222 m 785 201 q 776 160 785 179 q 751 126 767 140 q 717 103 736 111 q 678 94 699 94 q 601 126 632 94 q 571 201 571 157 q 579 241 571 222 q 601 274 588 260 q 635 298 615 289 q 678 307 654 307 q 717 298 699 307 q 751 274 736 289 q 776 241 767 260 q 785 201 785 222 m 522 686 q 513 646 522 665 q 490 611 504 626 q 456 587 475 596 q 417 578 438 578 q 376 587 396 578 q 342 611 357 596 q 317 646 326 626 q 308 686 308 665 q 317 727 308 708 q 342 760 326 746 q 376 783 357 775 q 417 792 396 792 q 490 761 458 792 q 522 686 522 731 z "},"°":{"ha":447,"x_min":40,"x_max":407,"o":"m 407 846 q 394 775 407 808 q 357 717 381 742 q 299 677 333 692 q 224 663 265 663 q 148 677 182 663 q 90 717 114 692 q 53 775 67 742 q 40 846 40 808 q 53 917 40 883 q 90 975 67 950 q 148 1015 114 1000 q 224 1029 182 1029 q 299 1015 265 1029 q 357 975 333 1000 q 394 917 381 950 q 407 846 407 883 m 307 846 q 285 907 307 882 q 224 932 263 932 q 163 907 185 932 q 140 846 140 882 q 163 785 140 810 q 224 760 185 760 q 285 785 263 760 q 307 846 307 810 z "},"′":{"ha":554,"x_min":139,"x_max":415,"o":"m 415 1028 l 225 656 l 139 656 l 235 1028 l 415 1028 z "},"″":{"ha":833,"x_min":139,"x_max":694,"o":"m 417 1028 l 226 656 l 139 656 l 235 1028 l 417 1028 m 694 1028 l 504 656 l 417 656 l 513 1028 l 694 1028 z "},"℃":{"ha":1203,"x_min":65,"x_max":1129,"o":"m 346 872 q 335 821 346 844 q 306 778 325 797 q 262 749 288 760 q 206 739 236 739 q 149 749 175 739 q 105 778 124 760 q 76 821 86 797 q 65 872 65 844 q 76 923 65 899 q 105 966 86 947 q 149 995 124 985 q 206 1006 175 1006 q 262 995 236 1006 q 306 966 288 985 q 335 923 325 947 q 346 872 346 899 m 261 872 q 246 910 261 894 q 206 926 231 926 q 165 910 181 926 q 150 872 150 894 q 165 834 150 850 q 206 818 181 818 q 246 834 231 818 q 261 872 261 850 m 761 981 q 948 956 867 981 q 1106 869 1029 931 l 1010 733 q 889 801 949 785 q 761 817 829 817 q 674 803 717 817 q 597 756 631 790 q 543 661 564 721 q 522 508 522 601 l 522 406 q 542 271 522 326 q 594 181 561 215 q 669 130 626 146 q 760 114 713 114 q 902 135 829 114 q 1035 218 975 157 l 1129 82 q 1035 12 1085 38 q 938 -28 986 -14 q 842 -47 889 -43 q 753 -51 794 -51 q 597 -28 671 -51 q 466 47 522 -4 q 376 178 410 99 q 343 369 343 257 l 343 549 q 376 742 343 661 q 465 877 408 824 q 598 956 522 931 q 761 981 674 981 z "},"Å":{"ha":956,"x_min":24,"x_max":932,"o":"m 621 953 q 592 868 621 906 l 932 -36 l 739 -36 l 642 239 l 304 239 l 206 -36 l 24 -36 l 358 864 q 326 953 326 900 q 367 1052 326 1011 q 474 1093 408 1093 q 580 1052 539 1093 q 621 953 621 1011 m 356 388 l 590 388 l 522 592 q 494 676 504 642 q 472 746 483 710 q 462 708 467 725 q 451 674 457 692 q 440 638 446 657 q 424 592 433 618 l 356 388 m 533 953 q 517 994 533 976 q 474 1011 500 1011 q 431 994 447 1011 q 414 953 414 976 q 431 912 414 929 q 474 894 447 894 q 517 912 500 894 q 533 953 533 929 z "},"¢":{"ha":722,"x_min":46,"x_max":683,"o":"m 369 89 q 130 185 214 96 q 46 431 46 275 l 46 506 q 133 748 46 661 q 369 840 219 835 l 369 965 l 446 965 l 446 839 q 517 826 486 835 q 575 806 549 818 q 623 778 601 793 q 665 749 644 764 l 583 625 q 446 689 514 678 l 446 242 q 530 264 494 249 q 597 303 565 279 l 683 181 q 591 124 651 150 q 446 90 531 99 l 446 -36 l 369 -36 l 369 89 m 218 433 q 233 344 218 381 q 269 285 247 308 q 318 251 292 263 q 369 239 344 240 l 369 690 q 317 678 344 688 q 269 647 290 668 q 233 590 247 625 q 218 506 218 556 l 218 433 z "},"£":{"ha":711,"x_min":18,"x_max":713,"o":"m 61 524 l 136 524 l 136 640 q 163 794 136 728 q 238 906 190 861 q 353 975 286 951 q 497 999 419 999 q 626 983 568 999 q 713 946 685 967 l 657 799 q 583 829 619 822 q 507 836 547 836 q 437 826 471 836 q 375 794 403 817 q 331 733 347 771 q 314 639 314 694 l 314 524 l 603 524 l 603 407 l 314 407 l 314 349 q 312 267 314 300 q 303 208 310 233 q 283 160 296 182 q 250 117 271 139 l 250 114 l 701 114 l 701 -36 l 18 -36 l 18 82 q 108 176 79 118 q 136 338 136 235 l 136 407 l 61 407 l 61 524 z "},"¥":{"ha":775,"x_min":7,"x_max":771,"o":"m 306 147 l 82 147 l 82 275 l 306 275 l 306 322 l 82 322 l 82 453 l 278 453 l 7 956 l 185 956 l 393 542 l 394 542 l 608 956 l 771 956 l 493 453 l 693 453 l 693 322 l 467 322 l 467 275 l 693 275 l 693 147 l 467 147 l 467 -36 l 306 -36 l 306 147 z "},"♂":{"ha":1264,"x_min":151,"x_max":1111,"o":"m 306 347 q 324 255 306 299 q 373 178 342 211 q 447 126 404 146 q 539 107 489 107 q 629 126 586 107 q 703 178 672 146 q 753 255 735 211 q 772 347 772 299 q 753 441 772 397 q 703 517 735 485 q 629 569 672 550 q 539 588 586 588 q 447 569 489 588 q 373 517 404 550 q 324 441 342 485 q 306 347 306 397 m 151 347 q 181 499 151 428 q 263 622 211 569 q 386 704 315 674 q 539 735 457 735 q 660 719 606 735 q 763 667 714 703 q 794 699 779 685 q 822 726 808 713 q 850 753 835 739 q 885 788 865 768 l 775 788 l 775 921 l 1111 921 l 1111 586 l 976 586 l 976 696 q 917 635 943 661 q 854 574 890 608 q 908 469 890 525 q 925 347 925 414 q 894 197 925 268 q 812 74 864 126 q 690 -8 760 22 q 539 -39 619 -39 q 386 -8 457 -39 q 263 74 315 22 q 181 197 211 126 q 151 347 151 268 z "},"♀":{"ha":1264,"x_min":246,"x_max":1018,"o":"m 399 636 q 417 544 399 588 q 466 467 435 500 q 540 415 497 435 q 632 396 582 396 q 723 415 681 396 q 797 467 765 435 q 847 544 829 500 q 865 636 865 588 q 847 728 865 685 q 797 805 829 772 q 723 857 765 838 q 632 876 681 876 q 540 857 582 876 q 466 805 497 838 q 417 728 435 772 q 399 636 399 685 m 564 256 q 437 299 494 265 q 336 382 379 332 q 269 497 293 432 q 246 636 246 563 q 276 786 246 715 q 358 909 306 857 q 480 992 410 961 q 632 1022 550 1022 q 783 992 713 1022 q 906 909 854 961 q 988 786 958 857 q 1018 636 1018 715 q 994 497 1018 563 q 928 381 971 432 q 826 297 885 329 q 700 254 768 264 l 700 118 l 883 118 l 883 -19 l 700 -19 l 700 -197 l 564 -197 l 564 -19 l 379 -19 l 379 118 l 564 118 l 564 256 z "},"∠":{"ha":1264,"x_min":206,"x_max":1056,"o":"m 1056 0 l 206 0 l 206 74 l 858 835 l 943 763 l 374 107 l 1056 107 l 1056 0 z "},"⊥":{"ha":1264,"x_min":189,"x_max":1075,"o":"m 1075 0 l 189 0 l 189 107 l 575 107 l 575 800 l 686 800 l 686 107 l 1075 107 l 1075 0 z "},"⌒":{"ha":1264,"x_min":261,"x_max":1001,"o":"m 893 796 q 795 902 860 860 q 633 944 731 944 q 469 902 535 944 q 368 796 404 860 l 261 796 q 403 959 313 896 q 631 1022 494 1022 q 756 1006 700 1022 q 858 959 813 989 q 939 888 904 929 q 1001 796 974 846 l 893 796 z "},"∂":{"ha":761,"x_min":32,"x_max":714,"o":"m 338 113 q 413 135 379 113 q 474 194 447 157 q 517 278 500 231 q 542 379 535 326 q 518 423 533 401 q 481 462 503 444 q 431 490 458 479 q 369 500 403 500 q 300 483 332 500 q 244 438 268 467 q 207 369 221 408 q 193 283 193 329 q 234 158 193 203 q 338 113 275 113 m 74 936 q 117 960 92 947 q 173 985 142 974 q 242 1005 204 997 q 326 1013 281 1013 q 476 979 406 1013 q 599 882 546 946 q 683 726 651 818 q 714 515 714 633 q 682 284 714 383 q 596 118 650 185 q 471 18 542 51 q 322 -15 400 -15 q 194 11 249 -15 q 103 79 139 38 q 49 174 67 121 q 32 282 32 228 q 55 415 32 353 q 118 524 78 478 q 215 598 158 571 q 339 625 272 625 q 475 589 422 625 q 556 510 528 553 l 557 510 q 551 641 563 575 q 508 760 539 707 q 429 847 478 814 q 313 881 381 881 q 204 863 250 881 q 122 826 158 846 l 74 936 z "},"∇":{"ha":1264,"x_min":79,"x_max":1185,"o":"m 1185 836 l 632 -39 l 79 836 l 1185 836 m 1011 743 l 250 743 l 632 133 l 1011 743 z "},"≡":{"ha":861,"x_min":51,"x_max":808,"o":"m 51 385 l 51 486 l 808 486 l 808 385 l 51 385 m 51 601 l 51 700 l 808 700 l 808 601 l 51 601 m 51 168 l 51 267 l 808 267 l 808 168 l 51 168 z "},"≒":{"ha":861,"x_min":51,"x_max":810,"o":"m 565 115 q 591 176 565 151 q 653 201 617 201 q 713 176 689 201 q 738 115 738 151 q 713 53 738 79 q 653 28 689 28 q 591 53 617 28 q 565 115 565 79 m 107 751 q 133 813 107 788 q 192 839 158 839 q 253 813 228 839 q 279 751 279 788 q 253 691 279 715 q 192 667 228 667 q 133 691 158 667 q 107 751 107 715 m 51 594 l 810 594 l 810 500 l 51 500 l 51 594 m 51 371 l 810 371 l 810 275 l 51 275 l 51 371 z "},"§":{"ha":768,"x_min":29,"x_max":743,"o":"m 332 507 l 319 510 q 241 477 267 503 q 215 411 215 451 q 240 340 215 365 q 333 296 264 315 l 428 268 q 432 267 429 267 q 438 265 435 267 q 444 263 442 264 q 551 363 551 283 q 546 402 551 385 q 526 433 540 419 q 487 457 511 446 q 425 479 463 468 l 332 507 m 354 -239 q 203 -224 271 -239 q 88 -181 136 -208 l 88 -35 q 138 -55 113 -46 q 192 -72 164 -64 q 253 -83 219 -79 q 329 -87 288 -87 q 449 -63 413 -87 q 486 8 486 -39 q 482 46 486 31 q 465 73 478 61 q 431 94 453 85 q 375 114 410 104 l 263 144 q 169 176 213 157 q 95 222 126 194 q 47 290 64 250 q 29 388 29 331 q 64 508 29 463 q 164 576 99 553 q 113 649 132 607 q 94 757 94 692 q 173 938 94 871 q 411 1006 251 1006 q 553 991 499 1006 q 647 956 607 976 l 647 811 q 556 842 610 828 q 429 856 501 856 q 324 835 361 856 q 286 767 286 814 q 290 731 286 746 q 306 703 294 715 q 335 683 317 692 q 382 664 353 674 l 501 632 q 605 598 560 617 q 681 551 650 579 q 727 484 711 524 q 743 389 743 444 q 710 263 743 310 q 613 194 676 217 q 668 122 649 164 q 688 22 688 81 q 603 -173 688 -107 q 354 -239 518 -239 z "},"※":{"ha":1278,"x_min":93,"x_max":1206,"o":"m 732 414 l 1183 -31 q 1133 -80 1158 -56 q 1082 -131 1107 -104 q 860 95 969 -18 q 639 321 751 208 l 199 -131 q 147 -80 172 -104 q 94 -31 121 -56 l 546 414 l 97 860 l 192 964 l 636 508 l 1085 964 q 1133 913 1110 939 q 1181 860 1157 886 l 732 414 m 772 826 q 761 776 772 800 q 732 734 750 753 q 689 704 714 715 q 638 693 664 693 q 586 704 610 693 q 544 734 563 715 q 515 776 525 753 q 504 826 504 800 q 515 877 504 853 q 542 920 525 901 q 584 949 560 939 q 636 960 608 960 q 688 949 663 960 q 731 920 713 939 q 761 877 750 901 q 772 826 772 853 m 363 413 q 351 363 363 386 q 322 320 340 339 q 278 290 303 301 q 228 279 254 279 q 177 290 201 279 q 134 320 153 301 q 104 363 115 339 q 93 413 93 386 q 104 463 93 439 q 134 506 115 488 q 176 535 153 525 q 226 546 200 546 q 277 535 253 546 q 320 506 301 525 q 351 463 339 488 q 363 413 363 439 m 1206 413 q 1196 363 1206 386 q 1168 321 1186 339 q 1126 292 1150 303 q 1075 282 1103 282 q 1024 292 1049 282 q 981 321 1000 303 q 951 363 963 339 q 940 413 940 386 q 951 466 940 442 q 981 508 963 490 q 1023 535 999 525 q 1074 546 1047 546 q 1167 508 1129 546 q 1206 413 1206 471 m 771 -11 q 760 -62 771 -37 q 732 -104 750 -86 q 690 -133 714 -122 q 638 -143 665 -143 q 586 -133 610 -143 q 545 -104 563 -122 q 517 -62 528 -86 q 507 -11 507 -37 q 544 81 507 43 q 636 119 581 119 q 688 109 663 119 q 731 81 713 99 q 760 40 749 64 q 771 -11 771 15 z "},"☆":{"ha":1264,"x_min":-3,"x_max":1264,"o":"m 633 776 l 544 508 l 256 508 l 488 336 l 397 68 l 633 232 l 863 68 l 779 336 l 1007 508 l 722 508 l 633 776 m 788 593 l 1264 593 l 876 306 l 1024 -150 l 635 124 l 239 -150 l 388 306 l -3 593 l 483 593 l 635 1044 l 788 593 z "},"★":{"ha":1264,"x_min":-3,"x_max":1264,"o":"m 788 593 l 1264 593 l 876 306 l 1024 -150 l 635 124 l 239 -150 l 388 306 l -3 593 l 483 593 l 635 1044 l 788 593 z "},"○":{"ha":1264,"x_min":125,"x_max":1140,"o":"m 231 450 q 263 293 231 367 q 349 165 294 219 q 476 79 403 111 q 633 47 550 47 q 791 79 718 47 q 918 165 864 111 q 1003 293 972 219 q 1035 450 1035 367 q 1003 606 1035 533 q 918 734 972 679 q 791 820 864 789 q 633 851 718 851 q 476 820 550 851 q 349 734 403 789 q 263 606 294 679 q 231 450 231 533 m 125 450 q 165 647 125 554 q 274 808 206 739 q 435 917 343 876 q 633 957 528 957 q 831 917 739 957 q 992 808 924 876 q 1101 647 1061 739 q 1140 450 1140 554 q 1101 251 1140 344 q 992 90 1061 158 q 831 -19 924 21 q 633 -60 739 -60 q 435 -19 528 -60 q 274 90 343 21 q 165 251 206 158 q 125 450 125 344 z "},"●":{"ha":1264,"x_min":125,"x_max":1140,"o":"m 125 450 q 165 647 125 554 q 274 808 206 739 q 435 917 343 876 q 633 957 528 957 q 831 917 739 957 q 992 808 924 876 q 1101 647 1061 739 q 1140 450 1140 554 q 1101 251 1140 344 q 992 90 1061 158 q 831 -19 924 21 q 633 -60 739 -60 q 435 -19 528 -60 q 274 90 343 21 q 165 251 206 158 q 125 450 125 344 z "},"◎":{"ha":1264,"x_min":125,"x_max":1140,"o":"m 425 450 q 442 369 425 407 q 486 303 458 331 q 552 258 514 275 q 633 242 590 242 q 714 258 676 242 q 779 303 751 275 q 824 369 807 331 q 840 450 840 407 q 824 529 840 492 q 779 595 807 567 q 714 640 751 624 q 633 657 676 657 q 552 640 590 657 q 486 595 514 624 q 442 529 458 567 q 425 450 425 492 m 335 450 q 358 565 335 511 q 422 660 382 619 q 517 725 463 701 q 633 749 571 749 q 750 725 696 749 q 844 660 804 701 q 908 565 885 619 q 932 450 932 511 q 908 333 932 388 q 844 239 885 279 q 750 175 804 199 q 633 151 696 151 q 517 175 571 151 q 422 239 463 199 q 358 333 382 279 q 335 450 335 388 m 233 450 q 265 294 233 367 q 350 167 296 221 q 477 81 404 113 q 633 50 550 50 q 790 81 717 50 q 918 167 864 113 q 1003 294 972 221 q 1035 450 1035 367 q 1003 605 1035 532 q 918 733 972 678 q 790 819 864 788 q 633 851 717 851 q 477 819 550 851 q 350 733 404 788 q 265 605 296 678 q 233 450 233 532 m 125 450 q 165 647 125 554 q 274 808 206 739 q 435 917 343 876 q 633 957 528 957 q 831 917 739 957 q 992 808 924 876 q 1101 647 1061 739 q 1140 450 1140 554 q 1101 251 1140 344 q 992 90 1061 158 q 831 -19 924 21 q 633 -60 739 -60 q 435 -19 528 -60 q 274 90 343 21 q 165 251 206 158 q 125 450 125 344 z "},"◇":{"ha":1264,"x_min":81,"x_max":1182,"o":"m 632 854 l 224 450 l 632 40 l 1036 449 l 632 854 m 632 1000 l 1182 449 l 632 -103 l 81 449 l 632 1000 z "},"◆":{"ha":1264,"x_min":81,"x_max":1183,"o":"m 81 450 l 632 1000 l 1183 449 l 633 -103 l 81 450 z "},"□":{"ha":1264,"x_min":146,"x_max":1119,"o":"m 253 831 l 253 69 l 1015 69 l 1015 831 l 253 831 m 146 935 l 1119 935 l 1119 -39 l 146 -39 l 146 935 z "},"■":{"ha":1264,"x_min":143,"x_max":1118,"o":"m 143 -39 l 143 935 l 1118 935 l 1118 -39 l 143 -39 z "},"△":{"ha":1264,"x_min":110,"x_max":1151,"o":"m 997 51 l 629 789 l 258 51 l 997 51 m 110 -37 l 632 997 l 1151 -37 l 110 -37 z "},"▲":{"ha":1264,"x_min":111,"x_max":1150,"o":"m 111 -51 l 632 983 l 1150 -51 l 111 -51 z "},"▽":{"ha":1264,"x_min":110,"x_max":1151,"o":"m 261 846 l 632 108 l 1000 846 l 261 846 m 1151 936 l 632 -99 l 110 936 l 1151 936 z "},"▼":{"ha":1264,"x_min":111,"x_max":1150,"o":"m 1150 936 l 632 -99 l 111 936 l 1150 936 z "},"→":{"ha":1264,"x_min":144,"x_max":1118,"o":"m 144 518 l 913 518 l 808 694 l 829 718 l 1118 478 l 829 238 l 808 261 l 913 436 l 144 436 l 144 518 z "},"←":{"ha":1264,"x_min":144,"x_max":1118,"o":"m 1118 436 l 350 436 l 454 261 l 433 238 l 144 478 l 433 718 l 454 694 l 350 518 l 1118 518 l 1118 436 z "},"↑":{"ha":1264,"x_min":392,"x_max":872,"o":"m 592 0 l 592 768 l 415 664 l 392 685 l 632 974 l 872 685 l 849 664 l 672 768 l 672 0 l 592 0 z "},"↓":{"ha":1264,"x_min":392,"x_max":872,"o":"m 672 954 l 672 188 l 849 290 l 872 269 l 632 -19 l 392 269 l 415 290 l 592 188 l 592 954 l 672 954 z "},"↔":{"ha":1264,"x_min":82,"x_max":1182,"o":"m 392 261 l 371 238 l 82 478 l 371 718 l 392 694 l 288 518 l 976 518 l 872 694 l 893 718 l 1182 478 l 893 238 l 872 261 l 976 436 l 288 436 l 392 261 z "},"〓":{"ha":1264,"x_min":182,"x_max":1082,"o":"m 1082 543 l 182 543 l 182 596 l 1082 596 l 1082 543 m 1082 271 l 182 271 l 182 324 l 1082 324 l 1082 271 z "},"«":{"ha":1264,"x_min":131,"x_max":1133,"o":"m 1133 26 l 1089 -47 l 419 389 l 419 451 l 1078 903 l 1132 832 l 529 421 l 1133 26 m 847 22 l 797 -53 l 131 389 l 131 451 l 788 907 l 839 833 l 240 419 l 847 22 z "},"»":{"ha":1264,"x_min":97,"x_max":1133,"o":"m 1133 389 l 467 -53 l 419 22 l 1024 419 q 953 469 999 438 q 851 539 907 500 q 733 620 794 578 q 613 702 671 663 q 508 774 556 742 q 433 827 461 807 q 399 851 404 847 q 425 833 394 854 l 479 907 l 1133 451 l 1133 389 m 847 389 l 178 -47 l 131 26 l 735 418 q 758 403 772 393 q 697 444 744 413 q 580 525 650 476 q 435 625 510 574 q 290 724 361 676 q 173 805 219 772 q 112 847 126 838 q 135 832 97 857 l 189 903 l 847 451 l 847 389 z "},"√":{"ha":797,"x_min":38,"x_max":822,"o":"m 504 -168 l 392 -168 l 174 417 l 69 374 l 38 451 l 251 540 l 440 -10 l 444 -10 l 710 1111 l 822 1111 l 504 -168 z "},"∽":{"ha":1264,"x_min":113,"x_max":1151,"o":"m 1151 439 q 1133 338 1151 386 q 1080 254 1114 290 q 999 197 1046 218 q 897 175 953 175 q 810 191 853 175 q 728 238 768 207 l 772 310 q 897 265 833 265 q 962 278 932 265 q 1013 315 992 292 q 1047 370 1035 339 q 1058 439 1058 401 q 1047 501 1058 471 q 1014 556 1035 532 q 964 595 993 581 q 899 610 935 610 q 774 562 824 610 q 676 425 724 514 q 635 350 660 393 q 574 269 611 307 q 486 203 538 231 q 364 176 435 176 q 272 193 317 176 q 191 242 226 210 q 134 324 156 275 q 113 439 113 374 q 133 550 113 501 q 190 631 154 599 q 269 681 225 664 q 363 699 314 699 q 454 682 411 699 q 536 640 497 665 l 490 567 q 431 596 461 585 q 372 607 401 607 q 252 560 297 607 q 207 439 207 514 q 249 316 207 363 q 371 269 292 269 q 459 292 421 269 q 526 348 497 315 q 576 418 556 381 q 613 485 597 456 q 660 565 633 526 q 722 633 688 604 q 800 681 757 663 q 896 699 843 699 q 999 677 951 699 q 1080 619 1046 656 q 1133 537 1114 583 q 1151 439 1151 490 z "},"∝":{"ha":1264,"x_min":158,"x_max":1104,"o":"m 418 267 q 495 282 461 267 q 556 322 529 297 q 602 378 582 347 q 638 438 622 408 q 601 497 622 467 q 553 553 581 528 q 493 594 526 578 q 418 610 460 610 q 297 562 342 610 q 251 439 251 514 q 294 313 251 360 q 418 267 338 267 m 1057 568 q 1001 600 1029 588 q 944 613 972 613 q 820 567 869 613 q 726 438 771 521 q 820 308 771 353 q 944 263 869 263 q 999 271 968 263 q 1054 293 1029 279 l 1083 215 q 944 176 1014 176 q 861 191 900 176 q 789 231 822 206 q 728 288 756 256 q 681 353 701 319 q 639 291 663 322 q 584 235 615 260 q 512 194 553 210 q 417 178 471 178 q 324 194 369 178 q 241 244 278 211 q 181 325 204 276 q 158 439 158 374 q 181 550 158 501 q 239 631 203 599 q 321 681 275 664 q 415 699 367 699 q 509 683 468 699 q 582 641 550 667 q 638 583 614 615 q 681 521 661 551 q 728 589 701 557 q 787 645 754 621 q 859 684 819 669 q 944 699 899 699 q 1025 683 985 699 q 1104 639 1065 667 l 1057 568 z "},"∵":{"ha":814,"x_min":54,"x_max":743,"o":"m 538 704 q 569 775 538 744 q 642 806 601 806 q 716 775 689 806 q 743 704 743 744 q 716 632 743 663 q 642 601 689 601 q 603 610 622 601 q 570 632 585 618 q 547 665 556 646 q 538 704 538 683 m 54 704 q 85 775 54 744 q 156 806 115 806 q 231 775 203 806 q 260 704 260 744 q 231 632 260 663 q 156 601 203 601 q 117 610 136 601 q 85 632 99 618 q 63 665 71 646 q 54 704 54 683 m 299 197 q 328 272 299 244 q 400 300 358 300 q 474 272 444 300 q 504 197 504 244 q 497 160 504 178 q 475 127 489 142 q 442 103 461 113 q 400 94 422 94 q 360 103 379 94 q 328 127 342 113 q 307 160 315 142 q 299 197 299 178 z "},"∫":{"ha":479,"x_min":18,"x_max":467,"o":"m 450 967 q 427 971 439 969 q 401 972 415 972 q 365 963 382 972 q 338 933 347 953 q 313 861 321 910 q 304 725 304 813 q 314 408 304 569 q 324 78 324 247 q 310 -81 324 -18 q 272 -182 297 -144 q 201 -252 244 -231 q 107 -274 157 -274 q 54 -269 79 -274 q 18 -257 29 -265 l 36 -146 q 60 -151 47 -149 q 89 -154 74 -154 q 150 -125 125 -154 q 164 -99 157 -114 q 176 -60 171 -83 q 184 -3 181 -36 q 188 74 188 29 q 178 410 188 246 q 168 739 168 575 q 188 915 168 849 q 247 1026 207 981 q 313 1070 275 1057 q 393 1083 351 1083 q 435 1081 415 1083 q 467 1074 456 1078 l 450 967 z "},"∬":{"ha":854,"x_min":18,"x_max":808,"o":"m 792 960 q 769 964 781 963 q 743 965 757 965 q 707 956 724 965 q 679 928 690 946 q 653 855 661 904 q 644 719 644 806 q 655 405 644 563 q 665 78 665 247 q 652 -81 665 -18 q 614 -182 639 -144 q 542 -252 586 -231 q 449 -274 497 -274 q 397 -269 421 -274 q 360 -257 372 -265 l 379 -146 q 403 -151 390 -149 q 431 -154 417 -154 q 490 -125 465 -154 q 506 -99 499 -114 q 519 -60 514 -83 q 527 -3 524 -36 q 531 74 531 29 q 520 407 531 246 q 510 732 510 568 q 529 908 510 842 q 589 1019 549 975 q 654 1063 617 1050 q 735 1076 692 1076 q 777 1074 757 1076 q 808 1067 797 1071 l 792 960 m 451 960 q 428 964 440 963 q 403 965 417 965 q 366 956 383 965 q 339 928 349 946 q 313 855 321 904 q 304 719 304 806 q 314 405 304 563 q 324 78 324 247 q 311 -81 324 -18 q 274 -182 299 -144 q 201 -252 246 -231 q 108 -274 157 -274 q 55 -269 81 -274 q 18 -257 29 -265 l 36 -146 q 60 -151 47 -149 q 89 -154 74 -154 q 150 -125 125 -154 q 165 -99 158 -114 q 177 -60 172 -83 q 185 -3 182 -36 q 189 74 189 29 q 179 407 189 246 q 169 732 169 568 q 189 908 169 842 q 249 1019 208 975 q 314 1063 276 1050 q 393 1076 351 1076 q 437 1074 417 1076 q 468 1067 457 1071 l 451 960 z "},"∈":{"ha":1264,"x_min":156,"x_max":1107,"o":"m 1104 369 l 294 369 q 319 299 301 332 q 367 243 336 267 q 444 206 399 219 q 551 192 489 192 l 1107 192 l 1107 72 l 556 72 q 376 101 451 72 q 252 178 301 129 q 179 291 203 226 q 156 429 156 356 q 178 560 156 499 q 249 669 201 622 q 372 742 297 715 q 551 769 447 769 l 1107 769 l 1107 650 l 551 650 q 445 637 490 650 q 369 601 400 624 q 319 550 338 579 q 296 489 301 521 l 1104 489 l 1104 369 z "},"∋":{"ha":1264,"x_min":156,"x_max":1107,"o":"m 158 489 l 967 489 q 942 550 960 521 q 894 601 925 579 q 817 637 863 624 q 711 650 772 650 l 156 650 l 156 769 l 711 769 q 890 742 815 769 q 1013 669 965 715 q 1084 560 1061 622 q 1107 429 1107 499 q 1083 291 1107 356 q 1010 178 1060 226 q 886 101 961 129 q 707 72 811 72 l 156 72 l 156 192 l 711 192 q 819 206 774 192 q 895 243 864 219 q 944 299 926 267 q 968 369 961 332 l 158 369 l 158 489 z "},"⊆":{"ha":1264,"x_min":156,"x_max":1107,"o":"m 1104 -33 l 204 -33 l 204 89 l 1104 89 l 1104 -33 m 1107 711 l 551 711 q 427 696 478 711 q 344 654 376 681 q 299 592 313 628 q 285 517 285 557 q 299 435 285 472 q 346 370 314 397 q 428 328 378 343 q 551 314 479 314 l 1107 314 l 1107 192 l 556 192 q 376 217 451 192 q 252 286 301 242 q 179 391 203 331 q 156 521 156 451 q 178 643 156 586 q 249 742 201 700 q 372 809 297 785 q 551 833 447 833 l 1107 833 l 1107 711 z "},"⊇":{"ha":1264,"x_min":156,"x_max":1107,"o":"m 156 833 l 714 833 q 892 809 818 833 q 1015 742 967 785 q 1085 643 1063 700 q 1107 521 1107 586 q 1083 391 1107 451 q 1010 286 1060 331 q 886 217 961 242 q 707 192 811 192 l 156 192 l 156 314 l 714 314 q 835 328 785 314 q 917 370 886 343 q 963 435 949 397 q 978 517 978 472 q 964 592 978 557 q 919 654 950 628 q 838 696 888 681 q 714 711 788 711 l 156 711 l 156 833 m 158 89 l 1058 89 l 1058 -33 l 158 -33 l 158 89 z "},"⊂":{"ha":1264,"x_min":156,"x_max":1107,"o":"m 1107 653 l 551 653 q 427 635 478 653 q 344 589 376 618 q 299 521 313 560 q 285 439 285 482 q 299 351 285 392 q 346 280 314 310 q 428 233 378 250 q 551 217 479 217 l 1107 217 l 1107 94 l 556 94 q 376 122 451 94 q 252 196 301 149 q 179 307 203 243 q 156 443 156 371 q 178 572 156 511 q 249 678 201 633 q 372 749 297 722 q 551 775 447 775 l 1107 775 l 1107 653 z "},"⊃":{"ha":1264,"x_min":156,"x_max":1107,"o":"m 156 761 l 714 761 q 892 735 818 761 q 1015 664 967 708 q 1085 558 1063 619 q 1107 429 1107 497 q 1083 293 1107 357 q 1010 182 1060 229 q 886 108 961 135 q 707 81 811 81 l 156 81 l 156 203 l 714 203 q 835 219 785 203 q 917 266 886 236 q 963 337 949 296 q 978 425 978 378 q 964 507 978 468 q 919 575 950 546 q 838 622 888 604 q 714 639 788 639 l 156 639 l 156 761 z "},"∪":{"ha":1264,"x_min":285,"x_max":976,"o":"m 413 885 l 413 326 q 430 203 413 254 q 476 119 447 151 q 544 72 506 88 q 626 57 583 57 q 715 72 674 57 q 785 120 756 88 q 832 204 815 153 q 849 326 849 256 l 849 885 l 976 885 l 976 333 q 948 154 976 229 q 872 30 919 79 q 759 -43 824 -19 q 622 -67 694 -67 q 492 -44 553 -67 q 385 26 431 -22 q 312 148 339 74 q 285 326 285 222 l 285 885 l 413 885 z "},"∩":{"ha":1264,"x_min":286,"x_max":975,"o":"m 632 885 q 767 861 704 885 q 876 788 831 838 q 949 664 922 739 q 975 485 975 589 l 975 -67 l 847 -67 l 847 492 q 831 615 847 563 q 787 700 815 667 q 719 749 758 733 q 632 765 679 765 q 474 700 535 765 q 414 492 414 635 l 414 -67 l 286 -67 l 286 485 q 313 664 286 589 q 385 788 339 739 q 495 861 432 838 q 632 885 558 885 z "},"∧":{"ha":1264,"x_min":183,"x_max":1078,"o":"m 1078 33 l 994 -8 l 632 694 l 267 -8 l 183 33 l 592 821 l 669 821 l 1078 33 z "},"∨":{"ha":1264,"x_min":183,"x_max":1078,"o":"m 1078 793 l 669 4 l 592 4 l 183 793 l 267 833 l 632 129 l 994 833 l 1078 793 z "},"¬":{"ha":1264,"x_min":38,"x_max":1224,"o":"m 1224 -212 l 1133 -212 l 1133 138 l 38 138 l 38 228 l 1224 228 l 1224 -212 z "},"⇒":{"ha":1264,"x_min":-7,"x_max":1271,"o":"m 1271 414 l 893 33 l 833 94 l 985 244 l -7 244 l -7 328 l 1067 328 l 1154 414 l 1067 501 l -7 501 l -7 585 l 983 585 l 833 735 l 893 793 l 1271 414 z "},"⇔":{"ha":1264,"x_min":-7,"x_max":1272,"o":"m 1156 414 l 1068 501 l 197 501 l 110 414 l 197 328 l 1068 328 l 1156 414 m 1272 414 l 894 33 l 835 94 l 986 244 l 279 244 l 431 94 l 371 33 l -7 414 l 371 793 l 431 735 l 281 585 l 985 585 l 835 735 l 894 793 l 1272 414 z "},"∀":{"ha":1264,"x_min":178,"x_max":1086,"o":"m 178 965 l 371 965 l 468 690 l 806 690 l 904 965 l 1086 965 l 714 -36 l 554 -36 l 178 965 m 754 542 l 519 542 l 588 338 q 616 253 606 288 q 638 183 626 219 q 648 221 643 204 q 658 255 653 238 q 670 292 664 272 q 686 338 676 311 l 754 542 z "},"∃":{"ha":1264,"x_min":306,"x_max":960,"o":"m 960 965 l 960 -36 l 306 -36 l 306 111 l 783 111 l 783 404 l 344 404 l 344 549 l 783 549 l 783 818 l 315 818 l 315 965 l 960 965 z "},"´":{"ha":861,"x_min":247,"x_max":611,"o":"m 247 781 l 404 996 l 611 996 l 406 781 l 247 781 z "},"˜":{"ha":861,"x_min":203,"x_max":656,"o":"m 203 789 q 222 870 207 836 q 258 926 236 904 q 305 957 279 947 q 357 967 331 967 q 399 960 378 967 q 438 944 419 953 q 472 928 456 935 q 501 921 489 921 q 547 971 536 921 l 656 971 q 636 889 651 922 q 599 834 621 856 q 552 803 578 813 q 501 793 526 793 q 460 800 481 793 q 421 816 439 807 q 386 832 403 825 q 357 839 369 839 q 326 828 336 839 q 310 789 315 817 l 203 789 l 203 789 z "},"ˇ":{"ha":861,"x_min":210,"x_max":649,"o":"m 499 774 l 361 774 l 210 992 l 333 992 q 381 942 357 965 q 429 892 406 918 q 478 942 453 918 q 526 992 503 965 l 649 992 l 499 774 z "},"˘":{"ha":861,"x_min":233,"x_max":628,"o":"m 431 801 q 292 848 344 801 q 233 978 240 894 l 353 978 q 374 922 361 943 q 431 900 388 900 q 488 922 475 900 q 508 978 501 943 l 628 978 q 572 848 625 894 q 431 801 518 801 z "},"˝":{"ha":861,"x_min":186,"x_max":671,"o":"m 501 985 l 671 985 l 568 767 l 439 767 l 501 985 m 251 985 l 424 985 l 321 767 l 186 767 l 251 985 z "},"˚":{"ha":431,"x_min":69,"x_max":358,"o":"m 213 822 q 264 839 244 822 q 283 888 283 856 q 264 940 283 919 q 213 960 244 960 q 165 940 185 960 q 146 888 146 919 q 165 839 146 856 q 213 822 185 822 m 213 750 q 157 761 183 750 q 111 791 131 772 q 81 835 92 810 q 69 888 69 860 q 111 988 69 947 q 213 1028 153 1028 q 317 988 275 1028 q 358 888 358 947 q 347 835 358 860 q 317 791 336 810 q 270 761 297 772 q 213 750 243 750 z "},"˙":{"ha":861,"x_min":349,"x_max":511,"o":"m 349 967 l 511 967 l 511 807 l 349 807 l 349 967 z "},"¸":{"ha":861,"x_min":297,"x_max":561,"o":"m 297 -193 q 405 -170 374 -186 q 436 -135 436 -154 q 408 -102 436 -111 q 328 -93 381 -93 l 328 56 l 422 56 l 422 -17 q 561 -126 561 -28 q 548 -185 561 -158 q 504 -231 535 -211 q 423 -263 474 -250 q 297 -282 372 -276 l 297 -193 z "},"˛":{"ha":861,"x_min":304,"x_max":558,"o":"m 471 -283 q 349 -243 394 -283 q 304 -142 304 -203 q 317 -85 304 -112 q 348 -35 329 -58 q 390 4 367 -12 q 432 29 413 21 l 549 29 q 475 -48 506 -6 q 444 -124 444 -90 q 467 -165 444 -154 q 514 -175 489 -175 q 540 -174 528 -175 q 558 -172 553 -172 l 558 -268 q 522 -279 542 -275 q 471 -283 501 -283 z "},"¡":{"ha":444,"x_min":124,"x_max":321,"o":"m 131 1047 l 314 1047 l 314 864 l 131 864 l 131 1047 m 294 722 l 321 -111 l 124 -111 l 150 722 l 294 722 z "},"¿":{"ha":783,"x_min":64,"x_max":707,"o":"m 501 674 l 501 611 q 497 549 501 576 q 478 496 492 522 q 442 440 465 469 q 381 372 418 411 q 302 292 331 321 q 260 244 274 264 q 244 207 247 225 q 242 160 242 189 l 242 146 q 248 113 242 131 q 269 79 254 94 q 313 54 285 64 q 383 44 340 44 q 503 70 449 44 q 603 139 558 96 l 707 11 q 560 -85 636 -58 q 386 -111 483 -111 q 250 -92 310 -111 q 149 -40 190 -74 q 85 40 107 -7 q 64 144 64 88 l 64 160 q 78 251 64 211 q 115 324 92 290 q 167 386 138 357 q 229 446 197 415 q 294 525 275 489 q 313 615 313 561 l 313 674 l 501 674 m 496 797 l 313 797 l 313 981 l 496 981 l 496 797 z "},"ː":{"ha":1264,"x_min":496,"x_max":765,"o":"m 765 768 l 631 636 l 496 768 l 765 768 m 765 100 l 496 100 l 631 232 l 765 100 z "},"∮":{"ha":1264,"x_min":342,"x_max":922,"o":"m 597 569 q 524 513 553 553 q 489 415 494 474 q 508 313 483 354 q 581 258 533 272 q 585 329 583 294 q 588 407 586 364 q 592 490 589 447 q 597 569 594 533 m 786 415 q 763 519 792 474 q 681 575 735 564 q 672 417 674 501 q 669 334 671 374 q 663 257 667 294 q 747 311 714 269 q 786 415 781 353 m 857 872 q 828 913 846 899 q 788 928 811 928 q 729 847 757 928 q 685 617 701 765 q 754 597 722 613 q 810 557 786 582 q 846 497 833 532 q 854 415 858 461 q 833 336 850 371 q 789 276 815 301 q 728 236 763 251 q 658 215 694 221 q 599 -36 639 63 q 544 -122 576 -89 q 469 -156 511 -156 q 342 -74 385 -156 l 403 -37 q 433 -79 415 -64 q 474 -94 450 -94 q 533 -14 504 -94 q 576 217 561 67 q 512 238 542 222 q 460 278 482 253 q 428 338 439 303 q 421 415 417 372 q 441 490 425 457 q 481 549 457 524 q 537 590 506 574 q 601 613 568 606 q 663 869 621 768 q 717 956 685 922 q 792 989 750 989 q 922 901 878 989 l 857 872 z "},"∑":{"ha":782,"x_min":79,"x_max":747,"o":"m 738 965 l 738 815 l 299 815 l 569 461 l 296 114 l 747 114 l 747 -36 l 79 -36 l 79 89 l 369 460 l 79 844 l 79 965 l 738 965 z "},"∏":{"ha":929,"x_min":25,"x_max":904,"o":"m 732 -81 l 554 -81 l 554 814 l 375 814 l 375 -81 l 197 -81 l 197 814 l 25 814 l 25 965 l 904 965 l 904 814 l 732 814 l 732 -81 z "},"¤":{"ha":1264,"x_min":83,"x_max":1181,"o":"m 1181 806 l 1010 656 q 1056 547 1039 606 q 1072 422 1072 488 q 1053 290 1072 354 q 997 171 1033 225 l 1176 13 l 1089 -86 l 910 76 q 778 -1 851 28 q 622 -29 706 -29 q 475 -5 544 -29 q 347 64 406 19 l 175 -86 l 86 13 l 256 161 q 195 283 218 217 q 172 422 172 349 q 190 549 172 488 q 242 664 208 611 l 83 806 l 179 899 l 329 765 q 463 843 388 814 q 622 872 539 872 q 787 840 711 872 q 924 756 863 808 l 1085 899 l 1181 806 m 938 422 q 913 545 938 488 q 845 645 888 603 q 745 713 803 688 q 622 738 688 738 q 499 713 557 738 q 399 645 442 688 q 331 545 356 603 q 307 422 307 488 q 331 299 307 357 q 399 199 356 242 q 499 131 442 156 q 622 107 557 107 q 745 131 688 107 q 845 199 803 156 q 913 299 888 242 q 938 422 938 357 z "},"℉":{"ha":1069,"x_min":65,"x_max":1040,"o":"m 396 -36 l 396 965 l 1040 965 l 1040 815 l 574 815 l 574 529 l 1011 529 l 1011 379 l 574 379 l 574 -36 l 396 -36 m 346 872 q 335 821 346 844 q 306 778 325 797 q 262 749 288 760 q 206 739 236 739 q 149 749 175 739 q 105 778 124 760 q 76 821 86 797 q 65 872 65 844 q 76 923 65 899 q 105 966 86 947 q 149 995 124 985 q 206 1006 175 1006 q 262 995 236 1006 q 306 966 288 985 q 335 923 325 947 q 346 872 346 899 m 261 872 q 246 910 261 894 q 206 926 231 926 q 165 910 181 926 q 150 872 150 894 q 165 834 150 850 q 206 818 181 818 q 246 834 231 818 q 261 872 261 850 z "},"‰":{"ha":1810,"x_min":81,"x_max":1729,"o":"m 257 -35 l 856 965 l 1015 965 l 418 -35 l 257 -35 m 318 985 q 492 920 428 985 q 556 746 556 856 l 556 692 q 492 517 556 582 q 318 453 428 453 q 144 517 208 453 q 81 692 81 582 l 81 746 q 144 920 81 856 q 318 985 208 985 m 318 571 q 398 604 376 571 q 419 694 419 638 l 419 743 q 398 833 419 799 q 318 867 376 867 q 238 833 260 867 q 217 743 217 799 l 217 694 q 238 604 217 638 q 318 571 260 571 m 956 485 q 1129 420 1065 485 q 1193 246 1193 356 l 1193 192 q 1129 17 1193 82 q 956 -47 1065 -47 q 782 17 846 -47 q 718 192 718 82 l 718 246 q 782 420 718 356 q 956 485 846 485 m 956 71 q 1035 104 1014 71 q 1057 194 1057 138 l 1057 243 q 1035 333 1057 299 q 956 367 1014 367 q 876 333 897 367 q 854 243 854 299 l 854 194 q 876 104 854 138 q 956 71 897 71 m 1492 485 q 1665 420 1601 485 q 1729 246 1729 356 l 1729 192 q 1665 17 1729 82 q 1492 -47 1601 -47 q 1318 17 1382 -47 q 1254 192 1254 82 l 1254 246 q 1318 420 1254 356 q 1492 485 1382 485 m 1492 71 q 1572 104 1550 71 q 1593 194 1593 138 l 1593 243 q 1572 333 1593 299 q 1492 367 1550 367 q 1412 333 1433 367 q 1390 243 1390 299 l 1390 194 q 1412 104 1390 138 q 1492 71 1433 71 z "},"◁":{"ha":1264,"x_min":194,"x_max":1069,"o":"m 1069 -133 l 194 417 l 1069 969 l 1069 -133 m 978 29 l 978 807 l 357 417 l 978 29 z "},"◀":{"ha":1264,"x_min":194,"x_max":1069,"o":"m 1069 -133 l 194 417 l 1069 969 l 1069 -133 z "},"▷":{"ha":1264,"x_min":194,"x_max":1069,"o":"m 1069 417 l 194 -133 l 194 969 l 1069 417 m 904 417 l 283 807 l 283 29 l 904 417 z "},"▶":{"ha":1264,"x_min":194,"x_max":1069,"o":"m 1069 417 l 194 -133 l 194 969 l 1069 417 z "},"♤":{"ha":1264,"x_min":167,"x_max":1094,"o":"m 1094 276 q 1081 191 1094 231 q 1040 122 1067 151 q 978 77 1014 93 q 899 61 942 61 q 817 79 856 61 q 722 129 778 97 q 731 67 724 101 q 747 -5 738 32 q 770 -76 757 -42 q 797 -137 783 -111 q 778 -168 810 -164 q 709 -173 750 -171 q 632 -175 668 -175 q 552 -173 589 -175 q 486 -168 515 -171 q 467 -137 454 -164 q 492 -74 481 -108 q 514 -3 504 -39 q 530 66 524 32 q 539 129 536 100 q 446 79 486 97 q 365 61 406 61 q 284 77 321 61 q 221 122 247 93 q 181 191 194 151 q 167 276 167 231 q 209 424 167 339 q 318 606 251 508 q 467 807 385 703 q 632 1013 550 911 q 794 807 713 911 q 943 606 876 703 q 1052 424 1010 508 q 1094 276 1094 339 m 986 296 q 951 413 986 343 q 864 559 917 482 q 749 715 811 636 q 632 860 686 793 q 515 715 578 793 q 400 559 453 636 q 313 413 347 482 q 278 296 278 343 q 284 247 278 272 q 305 201 290 222 q 342 167 319 181 q 396 153 364 153 q 449 167 424 153 q 495 197 474 181 q 534 226 517 213 q 563 240 551 240 q 605 217 586 240 q 621 161 624 193 q 611 74 618 121 q 586 -29 604 28 q 581 -46 583 -40 q 593 -53 578 -51 q 610 -55 604 -54 q 632 -56 617 -56 q 652 -55 646 -56 q 671 -53 658 -54 q 685 -46 686 -51 q 681 -29 683 -40 q 654 74 663 28 q 643 161 646 121 q 658 217 642 193 q 701 240 675 240 q 729 226 713 240 q 767 197 746 213 q 813 167 788 181 q 865 153 838 153 q 922 167 899 153 q 959 201 944 181 q 980 247 974 222 q 986 296 986 272 z "},"♠":{"ha":1264,"x_min":167,"x_max":1094,"o":"m 1094 276 q 1081 191 1094 231 q 1040 122 1067 151 q 978 77 1014 93 q 899 61 942 61 q 817 79 856 61 q 722 129 778 97 q 731 67 724 101 q 747 -5 738 32 q 770 -76 757 -42 q 797 -137 783 -111 q 778 -168 810 -164 q 709 -173 750 -171 q 632 -175 668 -175 q 552 -173 589 -175 q 486 -168 515 -171 q 467 -137 454 -164 q 492 -74 481 -108 q 514 -3 504 -39 q 530 66 524 32 q 539 129 536 100 q 446 79 486 97 q 365 61 406 61 q 284 77 321 61 q 221 122 247 93 q 181 191 194 151 q 167 276 167 231 q 209 424 167 339 q 318 606 251 508 q 467 807 385 703 q 632 1013 550 911 q 794 807 713 911 q 943 606 876 703 q 1052 424 1010 508 q 1094 276 1094 339 z "},"♡":{"ha":1264,"x_min":135,"x_max":1126,"o":"m 1126 668 q 1078 455 1126 567 q 956 235 1029 343 q 795 29 882 126 q 632 -142 708 -68 q 467 29 554 -68 q 306 235 381 126 q 183 455 232 343 q 135 668 135 567 q 154 777 135 726 q 208 865 174 828 q 288 924 242 903 q 386 946 333 946 q 539 886 478 946 q 632 690 600 826 q 724 886 663 826 q 875 946 786 946 q 974 924 928 946 q 1053 865 1019 903 q 1107 777 1088 828 q 1126 668 1126 726 m 1011 628 q 976 776 1011 722 q 849 829 940 829 q 765 783 796 829 q 715 672 733 736 q 688 619 708 644 q 632 594 668 594 q 606 603 618 594 q 584 623 593 611 q 568 648 575 635 q 557 672 561 661 q 493 790 531 751 q 415 829 456 829 q 337 815 368 829 q 286 775 306 801 q 258 712 267 749 q 250 628 250 675 q 287 470 250 554 q 380 301 324 386 q 503 138 436 217 q 632 -4 571 58 q 758 138 692 58 q 881 301 825 217 q 974 470 938 386 q 1011 628 1011 554 z "},"♥":{"ha":1264,"x_min":135,"x_max":1126,"o":"m 1126 668 q 1078 455 1126 567 q 956 235 1029 343 q 795 29 882 126 q 632 -142 708 -68 q 467 29 554 -68 q 306 235 381 126 q 183 455 232 343 q 135 668 135 567 q 154 778 135 728 q 208 867 174 829 q 288 925 243 904 q 386 946 333 946 q 539 886 478 946 q 632 690 600 826 q 724 886 663 826 q 875 946 786 946 q 972 925 926 946 q 1053 867 1018 904 q 1107 778 1088 829 q 1126 668 1126 728 z "},"♧":{"ha":1264,"x_min":67,"x_max":1197,"o":"m 1197 290 q 1180 191 1197 239 q 1131 107 1163 143 q 1055 49 1100 71 q 956 26 1010 26 q 884 38 918 26 q 821 66 850 49 q 768 104 792 83 q 728 143 744 125 q 749 85 739 118 q 767 14 760 51 q 780 -65 775 -24 q 785 -144 785 -106 q 777 -160 785 -154 q 760 -167 769 -165 q 731 -169 742 -168 q 708 -170 719 -169 q 678 -171 696 -171 q 632 -171 661 -171 q 568 -170 597 -171 q 504 -167 539 -169 q 487 -160 494 -165 q 479 -144 479 -154 q 483 -65 479 -106 q 495 14 488 -24 q 513 85 503 51 q 533 143 522 118 q 494 104 518 125 q 442 66 471 83 q 378 38 413 49 q 306 26 343 26 q 207 49 251 26 q 131 107 163 71 q 83 191 100 143 q 67 290 67 239 q 84 386 67 340 q 132 467 101 432 q 205 524 163 503 q 299 544 247 544 q 389 527 347 544 q 474 490 431 510 q 497 486 485 485 q 514 494 510 488 q 515 518 521 506 q 503 538 510 531 q 444 593 468 567 q 404 647 419 619 q 382 704 389 674 q 375 772 375 735 q 397 867 375 825 q 453 940 418 910 q 535 987 489 971 q 632 1003 582 1003 q 728 987 682 1003 q 810 940 775 971 q 867 867 846 910 q 889 772 889 825 q 881 704 889 735 q 858 647 874 674 q 819 593 843 619 q 761 538 794 567 q 749 518 754 531 q 750 494 743 506 q 767 486 754 488 q 790 490 779 485 q 874 527 831 510 q 963 544 917 544 q 1057 524 1014 544 q 1131 467 1100 503 q 1180 386 1163 432 q 1197 290 1197 340 m 1107 300 q 1058 419 1107 372 q 931 467 1010 467 q 871 459 899 467 q 818 443 843 451 q 772 427 793 435 q 735 419 751 419 q 685 438 704 419 q 665 485 665 456 q 686 537 665 514 q 733 588 707 560 q 779 653 758 615 q 800 747 800 690 q 753 874 800 831 q 632 917 707 917 q 511 874 558 917 q 464 747 464 831 q 485 653 464 690 q 530 588 506 615 q 575 537 554 560 q 596 485 596 514 q 578 438 596 456 q 529 419 560 419 q 491 427 513 419 q 444 443 469 435 q 391 459 419 451 q 331 467 363 467 q 204 419 251 467 q 157 300 157 372 q 169 229 157 263 q 206 172 182 196 q 263 135 229 149 q 338 121 296 121 q 419 140 385 121 q 482 181 454 158 q 532 222 510 203 q 575 240 554 240 q 592 234 589 240 q 596 214 596 228 q 590 158 596 189 q 576 91 583 126 q 562 14 568 56 q 556 -74 556 -28 q 574 -89 556 -87 q 632 -93 600 -93 q 690 -89 663 -93 q 706 -74 706 -86 q 700 14 706 -28 q 687 91 694 56 q 674 158 679 126 q 668 214 668 189 q 672 234 668 228 q 689 240 675 240 q 730 222 708 240 q 779 181 751 203 q 842 140 807 158 q 924 121 878 121 q 999 135 965 121 q 1057 172 1033 149 q 1094 229 1081 196 q 1107 300 1107 263 z "},"♣":{"ha":1264,"x_min":67,"x_max":1197,"o":"m 1197 290 q 1180 191 1197 239 q 1131 107 1163 143 q 1055 49 1100 71 q 956 26 1010 26 q 884 38 918 26 q 821 66 850 49 q 768 104 792 83 q 728 143 744 125 q 749 85 739 118 q 767 14 760 51 q 780 -65 775 -24 q 785 -144 785 -106 q 777 -160 785 -154 q 760 -167 769 -165 q 731 -169 742 -168 q 708 -170 719 -169 q 678 -171 696 -171 q 632 -171 661 -171 q 568 -170 597 -171 q 504 -167 539 -169 q 487 -160 494 -165 q 479 -144 479 -154 q 483 -65 479 -106 q 495 14 488 -24 q 513 85 503 51 q 533 143 522 118 q 494 104 518 125 q 442 66 471 83 q 378 38 413 49 q 306 26 343 26 q 207 49 251 26 q 131 107 163 71 q 83 191 100 143 q 67 290 67 239 q 84 386 67 340 q 132 467 101 432 q 205 524 163 503 q 299 544 247 544 q 389 527 347 544 q 474 490 431 510 q 497 486 485 485 q 514 494 510 488 q 515 518 521 506 q 503 538 510 531 q 444 593 468 567 q 404 647 419 619 q 382 704 389 674 q 375 772 375 735 q 397 867 375 825 q 453 940 418 910 q 535 987 489 971 q 632 1003 582 1003 q 728 987 682 1003 q 810 940 775 971 q 867 867 846 910 q 889 772 889 825 q 881 704 889 735 q 858 647 874 674 q 819 593 843 619 q 761 538 794 567 q 749 518 754 531 q 750 494 743 506 q 767 486 754 488 q 790 490 779 485 q 874 527 831 510 q 963 544 917 544 q 1057 524 1014 544 q 1131 467 1100 503 q 1180 386 1163 432 q 1197 290 1197 340 z "},"⊙":{"ha":1264,"x_min":79,"x_max":1185,"o":"m 1185 415 q 1141 199 1185 300 q 1022 24 1097 99 q 847 -94 947 -51 q 632 -137 746 -137 q 419 -94 519 -137 q 242 24 318 -51 q 123 199 167 99 q 79 415 79 300 q 123 630 79 529 q 242 806 167 731 q 419 924 318 881 q 632 968 519 968 q 847 924 746 968 q 1022 806 947 881 q 1141 630 1097 731 q 1185 415 1185 529 m 1083 415 q 1047 590 1083 508 q 950 733 1011 672 q 807 831 889 794 q 632 867 725 867 q 456 831 538 867 q 312 733 374 794 q 215 590 250 672 q 179 415 179 508 q 215 239 179 321 q 312 95 250 157 q 456 -2 374 33 q 632 -37 538 -37 q 807 -2 725 -37 q 950 95 889 33 q 1047 239 1011 157 q 1083 415 1083 321 m 847 415 q 831 331 847 371 q 785 263 814 292 q 716 217 756 233 q 632 200 676 200 q 549 217 588 200 q 481 263 510 233 q 434 331 451 292 q 417 415 417 371 q 434 499 417 460 q 481 568 451 539 q 549 614 510 597 q 632 631 588 631 q 716 614 676 631 q 785 568 756 597 q 831 499 814 539 q 847 415 847 460 z "},"◈":{"ha":1264,"x_min":15,"x_max":1246,"o":"m 1246 414 l 631 -203 l 15 413 l 632 1028 l 1246 414 m 1154 414 l 632 935 l 108 413 l 631 -110 l 1154 414 m 996 413 l 632 46 l 264 413 l 632 776 l 996 413 z "},"▣":{"ha":1264,"x_min":104,"x_max":1157,"o":"m 1157 -114 l 104 -114 l 104 938 l 1157 938 l 1157 -114 m 1085 -42 l 1085 865 l 176 865 l 176 -42 l 1085 -42 m 943 99 l 318 99 l 318 724 l 943 724 l 943 99 z "},"◐":{"ha":1264,"x_min":90,"x_max":1174,"o":"m 1174 415 q 1131 204 1174 303 q 1015 32 1089 106 q 843 -84 942 -42 q 632 -126 744 -126 q 422 -84 521 -126 q 250 32 324 -42 q 133 204 176 106 q 90 415 90 303 q 133 626 90 528 q 250 799 176 725 q 422 915 324 872 q 632 957 521 957 q 843 915 744 957 q 1015 799 942 872 q 1131 626 1089 725 q 1174 415 1174 528 m 1119 415 q 1081 604 1119 515 q 976 759 1042 693 q 821 864 910 825 q 632 903 732 903 l 632 -71 q 821 -33 732 -71 q 976 72 910 6 q 1081 227 1042 139 q 1119 415 1119 315 z "},"◑":{"ha":1264,"x_min":90,"x_max":1174,"o":"m 1174 415 q 1131 204 1174 303 q 1014 32 1088 106 q 842 -84 940 -42 q 632 -126 743 -126 q 421 -84 519 -126 q 249 32 322 -42 q 133 204 175 106 q 90 415 90 303 q 133 626 90 528 q 249 799 175 725 q 421 915 322 872 q 632 957 519 957 q 842 915 743 957 q 1014 799 940 872 q 1131 626 1088 725 q 1174 415 1174 528 m 632 903 q 443 864 532 903 q 288 759 354 825 q 183 604 222 693 q 144 415 144 515 q 183 227 144 315 q 288 72 222 139 q 443 -33 354 6 q 632 -71 532 -71 l 632 903 z "},"▒":{"ha":1264,"x_min":115,"x_max":1149,"o":"m 1149 -103 l 115 -103 l 115 929 l 1149 929 l 1149 -103 m 1103 -57 l 1103 883 l 161 883 l 161 -57 l 1103 -57 m 1058 807 q 1048 782 1058 792 q 1022 772 1038 772 q 988 807 988 772 q 997 833 988 822 q 1022 843 1007 843 q 1048 833 1038 843 q 1058 807 1058 822 m 928 807 q 893 772 928 772 q 858 807 858 772 q 868 833 858 822 q 893 843 878 843 q 918 833 908 843 q 928 807 928 822 m 1058 676 q 1048 653 1058 663 q 1022 643 1038 643 q 997 653 1007 643 q 988 676 988 663 q 997 702 988 692 q 1022 713 1007 713 q 1048 702 1038 713 q 1058 676 1058 692 m 928 676 q 918 653 928 663 q 893 643 908 643 q 868 653 878 643 q 858 676 858 663 q 868 702 858 692 q 893 713 878 713 q 918 702 908 713 q 928 676 928 692 m 799 807 q 788 782 799 792 q 763 772 778 772 q 737 782 747 772 q 726 807 726 792 q 737 833 726 822 q 763 843 747 843 q 788 833 778 843 q 799 807 799 822 m 1058 547 q 1048 522 1058 532 q 1022 511 1038 511 q 997 522 1007 511 q 988 547 988 532 q 997 573 988 563 q 1022 583 1007 583 q 1048 573 1038 583 q 1058 547 1058 563 m 799 676 q 788 653 799 663 q 763 643 778 643 q 737 653 747 643 q 726 676 726 663 q 737 702 726 692 q 763 713 747 713 q 788 702 778 713 q 799 676 799 692 m 928 547 q 918 522 928 532 q 893 511 908 511 q 868 522 878 511 q 858 547 858 532 q 868 573 858 563 q 893 583 878 583 q 918 573 908 583 q 928 547 928 563 m 667 807 q 632 772 667 772 q 608 782 618 772 q 597 807 597 792 q 608 833 597 822 q 632 843 618 843 q 657 833 647 843 q 667 807 667 822 m 1058 417 q 1048 392 1058 403 q 1022 382 1038 382 q 997 392 1007 382 q 988 417 988 403 q 1022 451 988 451 q 1048 442 1038 451 q 1058 417 1058 432 m 667 676 q 657 653 667 663 q 632 643 647 643 q 608 653 618 643 q 597 676 597 663 q 608 702 597 692 q 632 713 618 713 q 657 702 647 713 q 667 676 667 692 m 799 547 q 788 522 799 532 q 763 511 778 511 q 737 522 747 511 q 726 547 726 532 q 737 573 726 563 q 763 583 747 583 q 788 573 778 583 q 799 547 799 563 m 928 417 q 918 392 928 403 q 893 382 908 382 q 868 392 878 382 q 858 417 858 403 q 893 451 858 451 q 928 417 928 451 m 538 807 q 527 782 538 792 q 501 772 517 772 q 467 807 467 772 q 476 833 467 822 q 501 843 486 843 q 527 833 517 843 q 538 807 538 822 m 1058 286 q 1048 260 1058 271 q 1022 250 1038 250 q 997 260 1007 250 q 988 286 988 271 q 997 312 988 301 q 1022 322 1007 322 q 1048 312 1038 322 q 1058 286 1058 301 m 538 676 q 527 653 538 663 q 501 643 517 643 q 476 653 486 643 q 467 676 467 663 q 476 702 467 692 q 501 713 486 713 q 527 702 517 713 q 538 676 538 692 m 667 547 q 657 522 667 532 q 632 511 647 511 q 608 522 618 511 q 597 547 597 532 q 608 573 597 563 q 632 583 618 583 q 657 573 647 583 q 667 547 667 563 m 799 417 q 788 392 799 403 q 763 382 778 382 q 737 392 747 382 q 726 417 726 403 q 737 442 726 432 q 763 451 747 451 q 788 442 778 451 q 799 417 799 432 m 928 286 q 918 260 928 271 q 893 250 908 250 q 868 260 878 250 q 858 286 858 271 q 868 312 858 301 q 893 322 878 322 q 918 312 908 322 q 928 286 928 301 m 407 807 q 397 782 407 792 q 372 772 386 772 q 347 782 357 772 q 336 807 336 792 q 347 833 336 822 q 372 843 357 843 q 397 833 386 843 q 407 807 407 822 m 1058 157 q 1048 131 1058 142 q 1022 121 1038 121 q 997 131 1007 121 q 988 157 988 142 q 997 181 988 171 q 1022 190 1007 190 q 1048 181 1038 190 q 1058 157 1058 171 m 276 807 q 243 772 276 772 q 217 782 228 772 q 207 807 207 792 q 217 833 207 822 q 243 843 228 843 q 267 833 258 843 q 276 807 276 822 m 407 676 q 397 653 407 663 q 372 643 386 643 q 347 653 357 643 q 336 676 336 663 q 347 702 336 692 q 372 713 357 713 q 397 702 386 713 q 407 676 407 692 m 538 547 q 527 522 538 532 q 501 511 517 511 q 476 522 486 511 q 467 547 467 532 q 476 573 467 563 q 501 583 486 583 q 527 573 517 583 q 538 547 538 563 m 667 417 q 657 392 667 403 q 632 382 647 382 q 608 392 618 382 q 597 417 597 403 q 608 442 597 432 q 632 451 618 451 q 667 417 667 451 m 799 286 q 788 260 799 271 q 763 250 778 250 q 737 260 747 250 q 726 286 726 271 q 737 312 726 301 q 763 322 747 322 q 788 312 778 322 q 799 286 799 301 m 928 157 q 918 131 928 142 q 893 121 908 121 q 868 131 878 121 q 858 157 858 142 q 868 181 858 171 q 893 190 878 190 q 918 181 908 190 q 928 157 928 171 m 1058 26 q 1048 1 1058 11 q 1022 -10 1038 -10 q 997 1 1007 -10 q 988 26 988 11 q 1022 61 988 61 q 1048 51 1038 61 q 1058 26 1058 42 m 276 676 q 267 653 276 663 q 243 643 258 643 q 217 653 228 643 q 207 676 207 663 q 217 702 207 692 q 243 713 228 713 q 267 702 258 713 q 276 676 276 692 m 928 26 q 918 1 928 11 q 893 -10 908 -10 q 868 1 878 -10 q 858 26 858 11 q 893 61 858 61 q 928 26 928 61 m 407 547 q 397 522 407 532 q 372 511 386 511 q 347 522 357 511 q 336 547 336 532 q 347 573 336 563 q 372 583 357 583 q 397 573 386 583 q 407 547 407 563 m 538 417 q 527 392 538 403 q 501 382 517 382 q 476 392 486 382 q 467 417 467 403 q 501 451 467 451 q 527 442 517 451 q 538 417 538 432 m 667 286 q 657 260 667 271 q 632 250 647 250 q 608 260 618 250 q 597 286 597 271 q 608 312 597 301 q 632 322 618 322 q 657 312 647 322 q 667 286 667 301 m 799 157 q 788 131 799 142 q 763 121 778 121 q 737 131 747 121 q 726 157 726 142 q 737 181 726 171 q 763 190 747 190 q 788 181 778 190 q 799 157 799 171 m 276 547 q 267 522 276 532 q 243 511 258 511 q 217 522 228 511 q 207 547 207 532 q 217 573 207 563 q 243 583 228 583 q 267 573 258 583 q 276 547 276 563 m 799 26 q 788 1 799 11 q 763 -10 778 -10 q 737 1 747 -10 q 726 26 726 11 q 737 51 726 42 q 763 61 747 61 q 788 51 778 61 q 799 26 799 42 m 407 417 q 397 392 407 403 q 372 382 386 382 q 347 392 357 382 q 336 417 336 403 q 347 442 336 432 q 372 451 357 451 q 397 442 386 451 q 407 417 407 432 m 538 286 q 527 260 538 271 q 501 250 517 250 q 476 260 486 250 q 467 286 467 271 q 476 312 467 301 q 501 322 486 322 q 527 312 517 322 q 538 286 538 301 m 667 157 q 657 131 667 142 q 632 121 647 121 q 608 131 618 121 q 597 157 597 142 q 608 181 597 171 q 632 190 618 190 q 657 181 647 190 q 667 157 667 171 m 276 417 q 267 392 276 403 q 243 382 258 382 q 217 392 228 382 q 207 417 207 403 q 217 442 207 432 q 243 451 228 451 q 276 417 276 451 m 667 26 q 657 1 667 11 q 632 -10 647 -10 q 608 1 618 -10 q 597 26 597 11 q 608 51 597 42 q 632 61 618 61 q 667 26 667 61 m 407 286 q 397 260 407 271 q 372 250 386 250 q 347 260 357 250 q 336 286 336 271 q 347 312 336 301 q 372 322 357 322 q 397 312 386 322 q 407 286 407 301 m 538 157 q 527 131 538 142 q 501 121 517 121 q 476 131 486 121 q 467 157 467 142 q 476 181 467 171 q 501 190 486 190 q 527 181 517 190 q 538 157 538 171 m 276 286 q 267 260 276 271 q 243 250 258 250 q 217 260 228 250 q 207 286 207 271 q 217 312 207 301 q 243 322 228 322 q 267 312 258 322 q 276 286 276 301 m 538 26 q 527 1 538 11 q 501 -10 517 -10 q 476 1 486 -10 q 467 26 467 11 q 501 61 467 61 q 527 51 517 61 q 538 26 538 42 m 407 157 q 397 131 407 142 q 372 121 386 121 q 347 131 357 121 q 336 157 336 142 q 347 181 336 171 q 372 190 357 190 q 397 181 386 190 q 407 157 407 171 m 276 157 q 267 131 276 142 q 243 121 258 121 q 217 131 228 121 q 207 157 207 142 q 217 181 207 171 q 243 190 228 190 q 267 181 258 190 q 276 157 276 171 m 407 26 q 397 1 407 11 q 372 -10 386 -10 q 347 1 357 -10 q 336 26 336 11 q 347 51 336 42 q 372 61 357 61 q 397 51 386 61 q 407 26 407 42 m 276 26 q 267 1 276 11 q 243 -10 258 -10 q 217 1 228 -10 q 207 26 207 11 q 217 51 207 42 q 243 61 228 61 q 276 26 276 61 z "},"▤":{"ha":1264,"x_min":115,"x_max":1149,"o":"m 1149 -103 l 115 -103 l 115 929 l 1149 929 l 1149 -103 m 1103 789 l 1103 883 l 161 883 l 161 789 l 1103 789 m 1103 643 l 1103 744 l 161 744 l 161 643 l 1103 643 m 1103 507 l 1103 599 l 161 599 l 161 507 l 1103 507 m 1103 364 l 1103 463 l 161 463 l 161 364 l 1103 364 m 1103 219 l 1103 319 l 161 319 l 161 219 l 1103 219 m 1103 81 l 1103 175 l 161 175 l 161 81 l 1103 81 m 1103 -57 l 1103 36 l 161 36 l 161 -57 l 1103 -57 z "},"▥":{"ha":1264,"x_min":115,"x_max":1149,"o":"m 1149 -103 l 115 -103 l 115 929 l 1149 929 l 1149 -103 m 1103 -57 l 1103 883 l 1008 883 l 1008 -57 l 1103 -57 m 964 -57 l 964 883 l 869 883 l 869 -57 l 964 -57 m 825 -57 l 825 883 l 725 883 l 725 -57 l 825 -57 m 681 -57 l 681 883 l 582 883 l 582 -57 l 681 -57 m 538 -57 l 538 883 l 446 883 l 446 -57 l 538 -57 m 401 -57 l 401 883 l 300 883 l 300 -57 l 401 -57 m 256 -57 l 256 883 l 161 883 l 161 -57 l 256 -57 z "},"▨":{"ha":1264,"x_min":115,"x_max":1149,"o":"m 1149 -103 l 115 -103 l 115 929 l 1149 929 l 1149 -103 m 1103 688 l 1103 851 l 194 -57 l 358 -57 l 1103 688 m 1103 457 l 1103 621 l 425 -57 l 589 -57 l 1103 457 m 1103 226 l 1103 390 l 656 -57 l 819 -57 l 1103 226 m 1103 -57 l 1103 160 l 886 -57 l 1103 -57 m 376 883 l 161 883 l 161 669 l 376 883 m 608 883 l 443 883 l 161 603 l 161 438 l 608 883 m 839 883 l 675 883 l 161 371 l 161 207 l 839 883 m 1068 883 l 906 883 l 161 140 l 161 -24 l 1068 883 z "},"▧":{"ha":1264,"x_min":115,"x_max":1149,"o":"m 1149 -103 l 115 -103 l 115 929 l 1149 929 l 1149 -103 m 1103 669 l 1103 883 l 888 883 l 1103 669 m 1103 438 l 1103 603 l 821 883 l 656 883 l 1103 438 m 1103 207 l 1103 371 l 589 883 l 425 883 l 1103 207 m 1103 -24 l 1103 140 l 358 883 l 196 883 l 1103 -24 m 1069 -57 l 161 851 l 161 688 l 906 -57 l 1069 -57 m 839 -57 l 161 621 l 161 457 l 675 -57 l 839 -57 m 608 -57 l 161 390 l 161 226 l 444 -57 l 608 -57 m 378 -57 l 161 160 l 161 -57 l 378 -57 z "},"▦":{"ha":1264,"x_min":115,"x_max":1149,"o":"m 1149 -103 l 115 -103 l 115 929 l 1149 929 l 1149 -103 m 1103 785 l 1103 883 l 1004 883 l 1004 785 l 1103 785 m 1103 644 l 1103 743 l 1004 743 l 1004 644 l 1103 644 m 961 785 l 961 883 l 863 883 l 863 785 l 961 785 m 1103 504 l 1103 603 l 1004 603 l 1004 504 l 1103 504 m 821 785 l 821 883 l 722 883 l 722 785 l 821 785 m 961 644 l 961 743 l 863 743 l 863 644 l 961 644 m 1103 364 l 1103 463 l 1004 463 l 1004 364 l 1103 364 m 681 785 l 681 883 l 582 883 l 582 785 l 681 785 m 821 644 l 821 743 l 722 743 l 722 644 l 821 644 m 961 504 l 961 603 l 863 603 l 863 504 l 961 504 m 1103 224 l 1103 322 l 1004 322 l 1004 224 l 1103 224 m 540 785 l 540 883 l 442 883 l 442 785 l 540 785 m 681 644 l 681 743 l 582 743 l 582 644 l 681 644 m 821 504 l 821 603 l 722 603 l 722 504 l 821 504 m 961 364 l 961 463 l 863 463 l 863 364 l 961 364 m 1103 83 l 1103 182 l 1004 182 l 1004 83 l 1103 83 m 400 785 l 400 883 l 301 883 l 301 785 l 400 785 m 540 644 l 540 743 l 442 743 l 442 644 l 540 644 m 681 504 l 681 603 l 582 603 l 582 504 l 681 504 m 821 364 l 821 463 l 722 463 l 722 364 l 821 364 m 961 224 l 961 322 l 863 322 l 863 224 l 961 224 m 1103 -57 l 1103 42 l 1004 42 l 1004 -57 l 1103 -57 m 260 785 l 260 883 l 161 883 l 161 785 l 260 785 m 400 644 l 400 743 l 301 743 l 301 644 l 400 644 m 540 504 l 540 603 l 442 603 l 442 504 l 540 504 m 681 364 l 681 463 l 582 463 l 582 364 l 681 364 m 821 224 l 821 322 l 722 322 l 722 224 l 821 224 m 961 83 l 961 182 l 863 182 l 863 83 l 961 83 m 961 -57 l 961 42 l 863 42 l 863 -57 l 961 -57 m 260 644 l 260 743 l 161 743 l 161 644 l 260 644 m 400 504 l 400 603 l 301 603 l 301 504 l 400 504 m 540 364 l 540 463 l 442 463 l 442 364 l 540 364 m 681 224 l 681 322 l 582 322 l 582 224 l 681 224 m 821 83 l 821 182 l 722 182 l 722 83 l 821 83 m 821 -57 l 821 42 l 722 42 l 722 -57 l 821 -57 m 260 504 l 260 603 l 161 603 l 161 504 l 260 504 m 400 364 l 400 463 l 301 463 l 301 364 l 400 364 m 540 224 l 540 322 l 442 322 l 442 224 l 540 224 m 681 83 l 681 182 l 582 182 l 582 83 l 681 83 m 681 -57 l 681 42 l 582 42 l 582 -57 l 681 -57 m 260 364 l 260 463 l 161 463 l 161 364 l 260 364 m 400 224 l 400 322 l 301 322 l 301 224 l 400 224 m 540 83 l 540 182 l 442 182 l 442 83 l 540 83 m 540 -57 l 540 42 l 442 42 l 442 -57 l 540 -57 m 260 224 l 260 322 l 161 322 l 161 224 l 260 224 m 400 83 l 400 182 l 301 182 l 301 83 l 400 83 m 400 -57 l 400 42 l 301 42 l 301 -57 l 400 -57 m 260 83 l 260 182 l 161 182 l 161 83 l 260 83 m 260 -57 l 260 42 l 161 42 l 161 -57 l 260 -57 z "},"▩":{"ha":1264,"x_min":115,"x_max":1149,"o":"m 1149 -103 l 115 -103 l 115 929 l 1149 929 l 1149 -103 m 1103 669 l 1103 854 l 1010 761 l 1103 669 m 1067 883 l 888 883 l 976 794 l 1067 883 m 1069 636 l 978 729 l 893 646 l 986 553 l 1069 636 m 943 761 l 854 850 l 771 768 l 861 678 l 943 761 m 822 883 l 656 883 l 739 800 l 822 883 m 1103 436 l 1103 603 l 1019 519 l 1103 436 m 706 768 l 622 850 l 540 768 l 622 686 l 706 768 m 828 646 l 738 733 l 656 653 l 746 564 l 828 646 m 953 521 l 861 613 l 779 531 l 871 438 l 953 521 m 1069 404 l 986 486 l 904 404 l 988 322 l 1069 404 m 589 883 l 425 883 l 507 801 l 589 883 m 1103 207 l 1103 371 l 1021 289 l 1103 207 m 839 404 l 744 497 l 664 415 l 756 324 l 839 404 m 474 768 l 390 851 l 310 769 l 392 688 l 474 768 m 711 531 l 622 619 l 542 538 l 631 449 l 711 531 m 954 289 l 871 371 l 790 290 l 872 207 l 954 289 m 1069 174 l 988 256 l 906 174 l 988 92 l 1069 174 m 589 653 l 506 735 l 425 654 l 508 571 l 589 653 m 358 883 l 196 883 l 276 803 l 358 883 m 1103 -24 l 1103 140 l 1021 58 l 1103 -24 m 1069 -57 l 988 25 l 906 -57 l 1069 -57 m 243 769 l 161 851 l 161 688 l 243 769 m 724 289 l 631 383 l 549 300 l 640 208 l 724 289 m 358 654 l 276 736 l 194 654 l 276 572 l 358 654 m 474 539 l 392 621 l 310 539 l 392 457 l 474 539 m 596 415 l 507 506 l 425 424 l 515 335 l 596 415 m 839 174 l 757 256 l 675 174 l 757 92 l 839 174 m 954 58 l 872 140 l 790 58 l 872 -24 l 954 58 m 839 -57 l 757 25 l 675 -57 l 839 -57 m 243 539 l 161 621 l 161 457 l 243 539 m 358 424 l 276 506 l 194 424 l 276 342 l 358 424 m 481 301 l 392 390 l 310 308 l 399 219 l 481 301 m 608 174 l 515 268 l 432 186 l 525 92 l 608 174 m 724 58 l 642 140 l 560 58 l 642 -24 l 724 58 m 243 308 l 161 390 l 161 228 l 243 308 m 608 -57 l 526 25 l 443 -57 l 608 -57 m 365 186 l 276 275 l 194 193 l 283 104 l 365 186 m 492 60 l 399 153 l 317 71 l 411 -24 l 492 60 m 250 71 l 161 160 l 161 -18 l 250 71 m 378 -57 l 283 38 l 190 -57 l 378 -57 z "},"♨":{"ha":1264,"x_min":78,"x_max":1185,"o":"m 913 414 q 906 321 917 361 q 878 248 894 281 q 842 189 861 215 q 813 140 824 163 q 785 78 794 106 q 774 39 776 51 q 765 29 771 32 q 754 39 758 26 q 748 65 750 49 q 746 101 746 82 q 749 140 746 121 q 760 176 753 160 q 785 246 772 207 q 806 325 799 285 q 812 406 813 365 q 796 483 811 447 q 764 580 772 536 q 758 662 756 624 q 770 735 760 700 q 796 807 781 771 q 810 858 806 831 q 814 903 814 885 q 820 918 814 915 q 833 906 826 921 q 853 835 844 883 q 850 707 861 786 q 850 626 843 658 q 869 565 857 594 q 894 500 881 535 q 913 414 907 465 m 729 397 q 726 329 735 367 q 701 255 717 292 q 669 186 686 218 q 643 135 653 154 q 613 72 622 96 q 601 33 603 47 q 591 22 600 21 q 578 32 582 22 q 567 99 568 54 q 589 203 565 144 q 614 300 610 251 q 614 390 618 349 q 601 463 610 432 q 588 504 593 493 q 556 618 560 568 q 560 708 551 668 q 586 781 569 749 q 617 843 603 814 q 642 917 636 883 q 649 972 649 950 q 656 987 649 988 q 669 975 664 986 q 683 935 676 960 q 691 881 689 911 q 690 816 693 850 q 674 747 686 782 q 658 656 656 697 q 673 576 661 615 q 701 494 685 536 q 729 397 718 451 m 1185 140 q 1140 23 1185 76 q 1021 -69 1096 -31 q 847 -128 946 -107 q 639 -150 749 -150 q 428 -131 529 -150 q 249 -79 326 -112 q 124 1 171 -46 q 78 103 78 47 q 113 201 78 158 q 194 273 147 243 q 289 321 240 303 q 367 347 338 339 q 385 341 382 353 q 369 322 388 329 q 333 305 364 319 q 269 265 303 290 q 207 206 235 240 q 179 131 179 172 q 220 68 179 94 q 326 24 261 42 q 474 -2 392 7 q 640 -11 557 -11 q 806 1 724 -11 q 953 35 888 13 q 1059 88 1018 57 q 1100 160 1100 119 q 1082 214 1100 189 q 1039 259 1064 239 q 986 293 1014 279 q 940 313 958 307 q 928 328 924 318 q 946 335 932 338 q 1006 319 967 332 q 1085 281 1046 306 q 1155 222 1125 257 q 1185 140 1185 186 m 532 363 q 513 260 536 321 q 456 133 490 200 q 431 80 438 100 q 422 47 424 60 q 413 35 421 36 q 399 47 406 35 q 386 101 390 65 q 397 182 382 138 q 413 236 404 201 q 425 313 421 271 q 426 398 429 354 q 407 479 422 442 q 382 572 388 526 q 382 662 376 618 q 402 747 388 706 q 438 826 417 788 q 457 868 449 846 q 469 910 465 890 q 479 920 472 921 q 489 911 486 919 q 497 838 496 890 q 475 703 499 786 q 472 635 467 672 q 490 554 478 597 q 514 463 501 511 q 532 363 526 414 z "},"☏":{"ha":1264,"x_min":32,"x_max":1232,"o":"m 718 601 l 718 675 q 679 665 703 669 q 632 661 656 661 q 585 665 608 661 q 546 675 561 669 l 546 601 l 718 601 m 1164 492 q 1176 512 1172 492 q 1172 562 1179 532 q 1145 626 1165 592 q 1088 692 1125 661 q 1003 733 1058 714 q 884 766 949 753 q 753 787 819 779 q 632 794 686 794 q 492 787 561 794 q 362 766 422 779 q 252 733 301 753 q 174 692 203 714 q 115 628 135 663 q 88 563 94 593 q 85 512 82 532 q 97 492 89 492 q 151 492 124 489 q 204 503 179 496 q 250 520 229 510 q 283 543 271 531 q 289 564 292 550 q 282 597 286 578 q 276 635 278 615 q 283 675 274 656 q 343 716 294 700 q 483 732 392 732 q 514 728 499 732 q 547 722 529 725 q 589 714 569 717 q 632 711 608 711 q 674 714 654 711 q 717 722 693 717 q 749 728 735 725 q 778 732 763 732 q 917 717 869 732 q 981 675 965 703 q 988 635 990 656 q 981 597 986 615 q 974 564 976 578 q 978 543 971 550 q 1011 522 990 532 q 1057 503 1032 511 q 1110 492 1082 496 q 1164 492 1138 489 m 846 283 q 828 200 846 239 q 782 132 811 161 q 714 86 753 103 q 632 69 675 69 q 549 86 588 69 q 481 132 510 103 q 435 200 451 161 q 418 283 418 239 q 435 365 418 326 q 481 433 451 404 q 549 480 510 463 q 632 497 588 497 q 714 480 675 497 q 782 433 753 463 q 828 365 811 404 q 846 283 846 326 m 789 283 q 776 345 789 317 q 743 394 764 374 q 694 428 722 415 q 632 440 665 440 q 570 428 599 440 q 521 394 542 415 q 488 345 500 374 q 475 283 475 317 q 488 222 475 250 q 521 172 500 193 q 570 140 542 151 q 632 128 599 128 q 694 140 665 128 q 743 172 722 151 q 776 222 764 193 q 789 283 789 250 m 1219 456 q 1192 438 1211 442 q 1147 437 1172 435 q 1092 446 1121 439 q 1038 460 1064 453 q 960 491 994 472 q 919 535 925 510 q 919 560 917 544 q 926 590 922 575 q 934 620 931 606 q 936 644 938 635 q 927 666 933 658 q 911 676 921 674 q 890 680 901 679 q 865 682 878 681 q 861 651 863 665 q 861 617 860 636 q 867 576 863 599 q 881 519 871 553 q 903 458 890 483 q 933 411 917 432 q 967 374 949 390 q 1008 339 986 357 q 1063 277 1043 310 q 1092 213 1082 244 q 1103 153 1101 181 q 1106 104 1106 125 q 1123 88 1117 100 q 1133 58 1129 75 q 1136 24 1136 42 q 1135 -7 1136 7 q 1121 -24 1133 -19 q 1088 -29 1108 -29 l 176 -29 q 143 -24 156 -29 q 129 -7 131 -19 q 128 24 128 7 q 131 58 128 42 q 141 88 135 75 q 158 104 147 100 q 160 153 158 125 q 172 213 163 181 q 201 277 182 244 q 256 339 221 310 q 297 374 278 357 q 331 411 315 390 q 360 458 347 432 q 383 519 374 483 q 397 576 392 553 q 402 617 401 599 q 401 651 403 636 q 399 682 400 665 q 374 680 386 681 q 353 676 363 679 q 337 666 343 674 q 328 644 331 658 q 328 620 325 635 q 337 590 332 606 q 344 560 342 575 q 344 535 347 544 q 304 491 339 510 q 226 460 269 472 q 172 446 200 453 q 117 437 143 439 q 72 438 92 435 q 44 456 53 442 q 34 496 36 469 q 36 552 32 522 q 52 613 40 582 q 83 669 64 644 q 176 745 117 713 q 308 799 235 778 q 465 830 382 819 q 632 840 549 840 q 799 830 715 840 q 956 799 882 819 q 1088 745 1029 778 q 1181 669 1147 713 q 1212 613 1200 644 q 1228 552 1224 582 q 1230 496 1232 522 q 1219 456 1228 469 m 1061 25 q 1066 36 1064 25 q 1067 62 1068 47 q 1062 90 1067 76 q 1046 111 1057 104 q 1042 150 1046 126 q 1032 199 1039 174 q 1013 248 1025 224 q 983 289 1001 272 q 933 337 954 317 q 897 375 913 357 q 869 411 881 393 q 850 451 858 429 q 819 576 826 518 q 817 678 813 635 l 768 678 l 768 556 l 496 556 l 496 678 l 444 678 q 443 576 449 635 q 414 451 438 518 q 394 411 406 429 q 366 375 382 393 q 328 337 350 357 q 278 289 307 317 q 248 248 260 272 q 228 199 236 224 q 218 150 221 174 q 215 111 215 126 q 199 90 204 104 q 194 62 194 76 q 196 36 193 47 q 203 25 199 25 l 1061 25 z "},"☎":{"ha":1264,"x_min":32,"x_max":1232,"o":"m 1219 456 q 1192 438 1211 442 q 1147 437 1172 435 q 1092 446 1121 439 q 1038 460 1064 453 q 960 491 994 472 q 919 535 925 510 q 920 560 917 544 q 929 590 924 575 q 939 620 935 606 q 942 644 943 635 q 914 682 936 672 q 865 696 892 692 q 861 624 861 664 q 881 519 861 585 q 903 458 890 483 q 933 411 917 432 q 967 374 949 390 q 1008 339 986 357 q 1063 277 1043 310 q 1092 213 1082 244 q 1103 153 1101 181 q 1106 104 1106 125 q 1123 88 1117 100 q 1133 58 1129 75 q 1136 24 1136 42 q 1135 -7 1136 7 q 1121 -24 1133 -19 q 1088 -29 1108 -29 l 176 -29 q 143 -24 156 -29 q 129 -7 131 -19 q 128 24 128 7 q 131 58 128 42 q 141 88 135 75 q 158 104 147 100 q 160 153 158 125 q 172 213 163 181 q 201 277 182 244 q 256 339 221 310 q 297 374 278 357 q 331 411 315 390 q 360 458 347 432 q 383 519 374 483 q 402 624 401 585 q 399 696 403 664 q 350 682 372 692 q 322 644 328 672 q 324 620 319 635 q 333 590 328 606 q 343 560 339 575 q 344 535 347 544 q 304 491 339 510 q 226 460 269 472 q 172 446 200 453 q 117 437 143 439 q 72 438 92 435 q 44 456 53 442 q 34 496 36 469 q 36 553 32 522 q 52 616 40 585 q 83 672 64 647 q 176 747 117 715 q 308 800 235 779 q 465 831 382 821 q 632 840 549 840 q 799 831 715 840 q 956 800 882 821 q 1088 747 1029 779 q 1181 672 1147 715 q 1212 616 1200 647 q 1228 553 1224 585 q 1230 496 1232 522 q 1219 456 1228 469 m 740 610 l 740 700 q 692 690 721 694 q 632 686 663 686 q 572 690 601 686 q 524 700 543 694 l 524 610 l 740 610 m 836 289 q 820 368 836 331 q 776 433 804 406 q 711 477 749 461 q 632 493 674 493 q 553 477 590 493 q 488 433 515 461 q 444 368 460 406 q 428 289 428 331 q 444 210 428 247 q 488 145 460 172 q 553 102 515 118 q 632 86 590 86 q 711 102 674 86 q 776 145 749 118 q 820 210 804 172 q 836 289 836 247 z "},"☜":{"ha":1264,"x_min":86,"x_max":1176,"o":"m 1176 256 l 1071 256 l 1071 285 l 1031 285 q 941 243 994 263 q 797 208 888 224 q 735 203 772 204 q 660 201 699 201 q 587 203 622 201 q 529 208 551 206 q 481 222 504 213 q 453 254 458 231 q 456 281 450 271 q 474 299 463 292 q 438 311 454 299 q 421 344 422 324 q 424 369 419 360 q 436 386 429 379 q 401 399 417 389 q 386 432 386 408 q 413 475 386 463 q 500 488 439 488 l 496 499 q 436 501 463 500 q 383 502 410 501 q 326 504 356 503 q 258 508 297 506 q 199 511 229 510 q 143 518 168 513 q 102 535 118 524 q 86 568 86 547 q 99 596 86 586 q 133 610 111 606 q 185 617 156 615 q 250 622 215 619 q 313 625 269 624 q 411 627 356 626 q 528 628 467 628 q 649 629 590 629 q 738 628 693 629 q 827 621 783 628 q 912 597 871 614 q 989 547 953 581 q 1033 540 1011 542 q 1072 539 1056 538 l 1072 583 l 1176 583 l 1176 256 m 1072 301 l 1072 515 q 1042 515 1061 514 q 1011 519 1024 517 l 1014 508 q 1014 494 1017 494 q 1004 501 1011 493 q 973 533 993 515 q 924 569 953 550 q 867 592 903 583 q 792 604 831 600 q 719 609 754 608 q 667 607 685 610 q 621 595 647 604 q 575 574 594 586 q 558 557 564 567 q 544 536 551 547 q 518 503 533 513 q 522 490 513 496 q 561 496 532 485 q 586 510 575 501 q 606 527 597 519 q 619 540 614 535 q 628 540 625 544 q 622 519 635 532 q 651 513 633 515 q 679 514 668 511 q 721 531 707 521 q 738 536 735 542 q 735 520 740 529 q 718 504 729 511 q 755 469 726 492 q 828 432 783 447 q 879 419 856 422 q 919 413 903 415 q 946 409 936 411 q 956 401 956 407 q 943 396 956 397 q 912 396 931 394 q 872 401 893 397 q 835 408 851 404 q 783 431 806 418 q 742 456 760 443 q 713 481 725 469 q 696 501 701 493 q 680 497 689 497 q 664 496 671 496 q 628 500 644 497 q 606 506 613 503 l 585 488 q 646 478 621 488 q 675 453 671 469 q 676 419 681 433 q 660 396 671 404 q 703 357 699 386 q 699 328 706 338 q 682 313 693 319 q 726 274 722 304 q 723 241 732 253 q 708 228 714 229 q 757 228 728 224 q 853 241 811 232 q 929 261 896 250 q 989 286 963 272 q 1038 314 1015 300 q 1045 318 1042 318 q 1047 313 1049 318 l 1044 301 l 1072 301 m 596 607 q 437 606 528 607 q 251 601 346 604 q 147 594 185 599 q 110 568 110 589 q 142 541 110 546 q 251 531 174 536 q 396 524 338 526 q 511 519 454 521 l 540 564 q 564 590 551 579 q 596 607 576 600 m 1154 278 l 1154 560 l 1093 560 l 1093 278 l 1154 278 m 681 343 q 672 372 682 364 q 642 382 663 379 q 610 383 632 383 q 562 383 588 383 q 513 383 536 383 q 476 382 489 382 q 453 371 463 381 q 444 347 444 361 q 479 319 444 325 q 512 317 486 318 q 565 315 538 315 q 614 315 592 315 q 638 315 636 315 q 665 322 651 315 q 681 343 679 328 m 704 269 q 688 290 703 285 q 661 294 674 294 q 579 296 624 296 q 504 293 535 296 q 483 281 489 292 q 479 260 476 271 q 487 244 481 251 q 504 235 493 238 q 584 227 540 228 q 663 229 628 226 q 704 269 708 232 m 649 439 q 642 454 649 447 q 621 463 636 461 q 524 467 569 465 q 435 463 479 468 q 414 451 421 460 q 408 432 407 443 q 415 414 408 422 q 436 406 422 406 q 483 404 457 404 q 535 404 510 404 q 584 406 561 404 q 622 408 607 407 q 641 417 633 411 q 649 439 649 424 z "},"☞":{"ha":1264,"x_min":86,"x_max":1176,"o":"m 1176 568 q 1160 535 1176 547 q 1119 518 1144 524 q 1064 511 1094 513 q 1004 508 1033 510 q 936 504 965 506 q 880 502 907 503 q 826 501 853 501 q 767 499 800 500 l 763 488 q 850 475 824 488 q 876 432 876 463 q 861 399 876 408 q 826 386 846 389 q 838 369 833 379 q 842 344 843 360 q 824 311 840 324 q 789 299 808 299 q 806 281 800 292 q 810 254 813 271 q 781 222 804 231 q 733 208 758 213 q 676 203 711 206 q 602 201 640 201 q 527 203 564 201 q 465 208 490 204 q 322 243 375 224 q 232 285 268 263 l 192 285 l 192 256 l 86 256 l 86 583 l 190 583 l 190 539 q 229 540 207 538 q 274 547 251 542 q 351 597 310 581 q 435 621 392 614 q 524 628 479 628 q 614 629 569 629 q 734 628 672 629 q 851 627 796 628 q 950 625 907 626 q 1013 622 993 624 q 1077 617 1047 619 q 1129 610 1107 615 q 1164 596 1151 606 q 1176 568 1176 586 m 744 503 q 718 536 729 513 q 705 557 711 547 q 688 574 699 567 q 642 595 668 586 q 596 607 615 604 q 542 609 576 610 q 470 604 508 608 q 396 592 432 600 q 339 569 360 583 q 290 533 310 550 q 258 501 269 515 q 249 494 251 493 q 249 508 246 494 l 251 519 q 220 515 239 517 q 190 515 201 514 l 190 301 l 218 301 l 215 313 q 217 317 213 317 q 225 314 221 317 q 333 262 268 286 q 506 228 397 238 q 550 228 532 224 q 538 244 544 232 q 536 274 532 256 q 581 313 540 304 q 563 328 569 319 q 560 357 557 338 q 603 396 567 386 q 587 419 592 404 q 588 453 582 433 q 617 478 593 469 q 678 488 642 488 l 657 506 q 634 500 650 503 q 599 496 618 497 q 583 497 592 496 q 567 501 574 497 q 549 481 561 493 q 520 456 538 469 q 480 431 503 443 q 428 408 457 418 q 390 401 411 404 q 351 396 369 397 q 319 396 332 394 q 307 401 307 397 q 317 409 307 407 q 343 413 326 411 q 383 419 360 415 q 435 432 407 422 q 508 469 479 447 q 544 504 536 492 q 528 520 533 511 q 525 536 522 529 q 542 531 528 542 q 583 514 556 521 q 612 513 594 511 q 640 519 629 515 q 633 531 635 525 q 635 540 631 536 q 643 540 638 544 q 657 527 649 535 q 676 510 665 519 q 701 496 688 501 q 740 490 731 485 q 744 503 750 496 m 1153 568 q 1115 594 1153 589 q 1011 601 1078 599 q 826 606 917 604 q 667 607 735 607 q 699 590 686 600 q 722 564 711 579 l 751 519 q 867 524 808 521 q 1011 531 925 526 q 1121 541 1089 536 q 1153 568 1153 546 m 169 278 l 169 560 l 108 560 l 108 278 l 169 278 m 818 347 q 809 371 818 361 q 786 382 800 381 q 750 383 774 382 q 701 383 726 383 q 653 383 675 383 q 621 382 631 383 q 591 372 601 379 q 582 343 581 364 q 597 322 583 328 q 625 315 611 315 q 649 315 626 315 q 698 315 671 315 q 751 317 725 315 q 783 319 776 318 q 818 347 818 325 m 783 260 q 780 281 786 271 q 758 293 774 292 q 683 296 728 296 q 601 294 639 296 q 574 290 589 294 q 558 269 560 285 q 600 229 554 232 q 678 227 635 226 q 758 235 722 228 q 776 244 769 238 q 783 260 782 251 m 854 432 q 849 451 856 443 q 828 463 842 460 q 738 467 783 468 q 642 463 693 465 q 620 454 626 461 q 614 439 614 447 q 622 417 614 424 q 640 408 629 411 q 678 406 656 407 q 727 404 701 404 q 779 404 753 404 q 826 406 806 404 q 847 414 840 406 q 854 432 854 422 z "},"¶":{"ha":818,"x_min":31,"x_max":736,"o":"m 382 474 l 328 474 q 210 491 265 474 q 116 542 156 508 q 53 625 76 576 q 31 736 31 674 q 49 841 31 792 q 106 926 67 890 q 208 983 146 963 q 360 1004 271 1004 l 736 1004 l 736 -183 l 615 -183 l 615 892 l 501 892 l 501 -183 l 382 -183 l 382 474 z "},"†":{"ha":683,"x_min":38,"x_max":646,"o":"m 271 549 l 38 549 l 38 688 l 271 688 l 271 965 l 414 965 l 414 688 l 646 688 l 646 549 l 414 549 l 414 -126 l 271 -126 l 271 549 z "},"‡":{"ha":683,"x_min":38,"x_max":646,"o":"m 38 289 l 271 289 l 271 550 l 38 550 l 38 688 l 271 688 l 271 965 l 414 965 l 414 688 l 646 688 l 646 550 l 414 550 l 414 289 l 646 289 l 646 151 l 414 151 l 414 -126 l 271 -126 l 271 151 l 38 151 l 38 289 z "},"↕":{"ha":1264,"x_min":392,"x_max":872,"o":"m 672 768 l 672 188 l 849 290 l 872 269 l 632 -19 l 392 269 l 415 290 l 592 188 l 592 768 l 415 664 l 392 685 l 632 974 l 872 685 l 849 664 l 672 768 z "},"↗":{"ha":1264,"x_min":140,"x_max":1122,"o":"m 140 43 l 947 850 l 750 900 l 749 932 l 1122 967 l 1088 593 l 1056 594 l 1006 792 l 197 -15 l 140 43 z "},"↙":{"ha":1264,"x_min":140,"x_max":1124,"o":"m 1124 913 l 315 106 l 513 54 l 515 22 l 140 -12 l 175 363 l 207 360 l 258 163 l 1067 969 l 1124 913 z "},"↖":{"ha":1264,"x_min":140,"x_max":1122,"o":"m 1065 -15 l 257 792 l 207 594 l 175 593 l 140 967 l 514 932 l 513 900 l 315 850 l 1122 43 l 1065 -15 z "},"↘":{"ha":1264,"x_min":140,"x_max":1124,"o":"m 197 969 l 1006 163 l 1057 360 l 1089 363 l 1124 -12 l 749 22 l 751 54 l 949 106 l 140 913 l 197 969 z "},"♭":{"ha":718,"x_min":138,"x_max":581,"o":"m 475 318 q 468 388 475 356 q 449 443 461 419 q 417 481 436 467 q 376 494 399 494 q 309 478 338 494 q 262 437 281 461 q 234 384 243 413 q 225 331 225 356 l 225 33 q 310 53 265 36 q 391 103 354 69 q 451 189 428 136 q 475 318 475 242 m 581 369 q 560 231 581 292 q 507 127 540 171 q 429 53 474 83 q 335 5 385 24 q 235 -23 286 -14 q 138 -35 183 -32 l 138 889 l 225 889 l 225 433 q 247 478 233 456 q 283 521 260 501 q 339 553 306 540 q 419 565 372 565 q 482 551 453 565 q 533 512 511 538 q 568 450 556 486 q 581 369 581 414 z "},"♩":{"ha":539,"x_min":138,"x_max":400,"o":"m 400 160 q 391 61 400 100 q 351 -14 382 22 q 307 -55 332 -36 q 255 -83 282 -74 q 202 -90 228 -93 q 158 -65 176 -86 q 138 -18 139 -44 q 149 35 138 8 q 183 84 161 61 q 229 122 204 107 q 347 163 281 153 l 347 919 l 400 919 l 400 160 z "},"♪":{"ha":749,"x_min":82,"x_max":665,"o":"m 665 471 q 653 385 665 429 q 611 297 640 342 q 542 216 583 256 q 463 154 500 176 q 442 152 447 144 q 449 171 438 160 q 490 215 467 189 q 535 276 514 242 q 572 351 557 310 q 586 439 586 392 q 560 517 586 485 q 496 572 533 549 q 417 608 458 594 q 344 632 375 622 l 344 160 q 335 61 344 100 q 296 -14 326 22 q 251 -55 276 -36 q 199 -83 226 -74 q 147 -90 172 -93 q 103 -65 121 -86 q 83 -18 83 -44 q 94 35 82 8 q 127 84 106 61 q 174 122 149 107 q 292 163 225 153 l 292 857 q 293 894 292 875 q 304 913 294 913 q 322 906 314 913 q 347 879 331 899 q 386 835 365 858 q 444 781 407 813 q 547 686 504 729 q 615 606 589 643 q 653 535 642 568 q 665 471 665 503 z "},"♬":{"ha":963,"x_min":75,"x_max":886,"o":"m 831 675 l 831 756 l 349 653 l 349 572 l 831 675 m 886 265 q 860 175 886 217 q 793 100 833 133 q 752 72 775 85 q 706 56 729 60 q 662 56 683 51 q 625 82 640 61 q 614 119 613 97 q 625 163 615 140 q 651 205 635 185 q 685 239 667 225 q 759 277 725 268 q 831 292 793 286 l 831 544 l 349 440 l 349 131 q 322 40 349 82 q 256 -35 296 -1 q 215 -62 238 -50 q 169 -79 192 -75 q 124 -78 146 -83 q 88 -53 103 -74 q 76 -16 75 -37 q 88 28 78 6 q 113 70 97 50 q 147 104 129 90 q 222 142 188 133 q 293 157 256 151 l 293 776 l 886 896 l 886 265 z "},"㉿":{"ha":1264,"x_min":42,"x_max":1222,"o":"m 1222 418 q 1180 190 1222 297 q 1060 2 1138 82 q 873 -125 982 -78 q 631 -172 764 -172 q 423 -137 518 -172 q 254 -42 328 -103 q 129 103 181 19 q 56 288 78 188 l 164 289 q 225 143 185 210 q 324 28 265 76 q 460 -47 383 -19 q 631 -74 538 -74 q 826 -37 738 -74 q 978 61 914 -1 q 1078 208 1042 124 q 1121 389 1115 292 l 878 389 l 878 489 l 1218 489 q 1222 418 1222 453 m 1075 614 q 1006 734 1047 679 q 908 828 964 789 q 783 888 853 867 q 631 910 714 910 q 447 878 531 910 q 302 790 364 846 q 200 656 240 733 q 146 489 160 579 l 315 489 l 315 389 l 42 389 l 42 418 q 85 646 42 539 q 205 833 128 753 q 390 960 282 913 q 631 1007 499 1007 q 822 978 735 1007 q 978 899 908 950 q 1100 774 1049 847 q 1185 614 1151 701 l 1075 614 m 683 486 l 942 115 l 803 115 l 607 407 l 518 317 l 518 115 l 407 115 l 407 739 l 518 739 l 518 451 l 788 739 l 931 739 l 683 486 z "},"㈜":{"ha":1264,"x_min":28,"x_max":1236,"o":"m 167 381 q 208 67 167 222 q 357 -236 250 -89 l 232 -236 q 78 44 128 -112 q 28 388 28 201 l 28 443 q 78 785 28 629 q 232 1064 128 940 l 357 1064 q 210 772 254 925 q 167 450 167 618 l 167 381 m 1097 450 q 1053 772 1097 618 q 907 1064 1010 925 l 1032 1064 q 1186 785 1136 940 q 1236 443 1236 629 l 1236 388 q 1186 44 1236 201 q 1032 -236 1136 -112 l 907 -236 q 1056 67 1014 -89 q 1097 381 1097 222 l 1097 450 m 696 736 l 696 719 q 705 689 696 703 q 743 656 714 675 q 828 610 772 636 q 975 542 883 583 l 921 438 q 776 506 831 479 q 693 549 722 532 q 651 575 664 565 q 632 593 639 585 l 631 593 q 611 575 624 585 q 569 549 599 565 q 486 506 540 532 q 342 438 432 479 l 288 542 q 435 610 379 583 q 519 656 490 636 q 558 689 549 675 q 567 719 567 703 l 567 736 l 325 736 l 325 844 l 938 844 l 938 736 l 696 736 m 1047 382 l 1047 274 l 696 274 l 696 -14 l 567 -14 l 567 274 l 215 274 l 215 382 l 1047 382 z "},"№":{"ha":1236,"x_min":75,"x_max":1194,"o":"m 75 965 l 274 965 l 456 428 q 472 378 464 401 q 488 328 481 354 q 504 272 496 303 q 521 201 513 242 l 521 965 l 672 965 l 672 -36 l 474 -36 l 288 501 q 252 606 268 554 q 226 728 236 658 l 226 -36 l 75 -36 l 75 965 m 947 713 q 1045 697 1000 713 q 1124 648 1090 681 q 1176 567 1157 615 q 1194 457 1194 519 l 1194 392 q 1176 281 1194 329 q 1124 199 1157 232 q 1045 150 1090 167 q 947 133 1000 133 q 850 150 894 133 q 773 199 806 167 q 722 281 740 232 q 703 392 703 329 l 703 457 q 722 567 703 519 q 773 647 740 615 q 850 696 806 679 q 947 713 894 713 m 947 261 q 1022 294 993 261 q 1050 403 1050 328 l 1050 443 q 1022 552 1050 518 q 947 586 993 586 q 874 552 903 586 q 844 443 844 518 l 844 403 q 874 294 844 328 q 947 261 903 261 m 742 89 l 1154 89 l 1154 -36 l 742 -36 l 742 89 z "},"㏇":{"ha":1264,"x_min":29,"x_max":1251,"o":"m 351 981 q 418 978 386 981 q 481 965 450 975 q 544 935 513 954 q 613 883 576 915 l 515 771 q 444 817 476 804 q 371 831 413 831 q 296 815 329 831 q 240 762 263 799 q 206 665 218 725 q 194 517 194 606 l 194 397 q 242 169 194 240 q 360 97 289 97 q 461 118 418 97 q 533 172 504 139 l 631 57 q 572 7 601 28 q 512 -27 543 -14 q 445 -46 481 -40 q 367 -51 410 -51 q 227 -31 289 -51 q 121 38 165 -11 q 53 168 76 88 q 29 369 29 249 l 29 549 q 114 875 29 769 q 351 981 199 981 m 889 981 q 1110 878 1032 981 q 1188 556 1188 776 l 1188 374 q 1110 49 1188 150 q 889 -51 1033 -51 q 667 49 744 -51 q 590 374 590 150 l 590 556 q 669 878 590 775 q 889 981 747 981 m 889 97 q 949 111 924 97 q 990 160 974 125 q 1015 252 1007 194 q 1022 396 1022 310 l 1022 533 q 1015 677 1022 619 q 990 769 1007 735 q 949 817 974 803 q 889 832 924 832 q 831 817 856 832 q 789 769 806 803 q 764 677 772 735 q 756 533 756 619 l 756 396 q 764 252 756 310 q 789 160 772 194 q 831 111 806 125 q 889 97 856 97 m 1136 86 l 1251 86 l 1251 -36 l 1136 -36 l 1136 86 z "},"™":{"ha":985,"x_min":18,"x_max":944,"o":"m 432 965 l 579 965 l 683 719 l 686 719 l 806 965 l 944 965 l 944 513 l 824 513 l 824 786 l 732 600 l 636 600 l 543 806 l 540 806 l 540 513 l 432 513 l 432 965 m 142 871 l 18 871 l 18 965 l 396 965 l 396 871 l 272 871 l 272 513 l 142 513 l 142 871 z "},"㏂":{"ha":1264,"x_min":21,"x_max":1254,"o":"m 374 -36 l 253 -36 l 253 33 q 226 -22 246 3 q 161 -46 206 -46 q 65 2 106 -46 q 24 154 24 50 l 24 194 q 33 290 24 246 q 66 366 43 335 q 126 415 89 397 q 217 433 163 433 l 233 433 l 233 515 q 232 535 233 522 q 225 559 231 547 q 210 580 219 571 q 185 589 201 589 q 143 578 161 589 q 106 543 125 567 l 21 649 q 51 676 35 663 q 89 701 68 690 q 135 719 110 713 q 190 726 160 726 q 269 716 235 726 q 327 682 304 706 q 362 618 350 658 q 374 519 374 578 l 374 -36 m 235 304 l 222 304 q 193 294 204 304 q 176 267 182 283 q 169 231 171 251 q 168 189 168 210 l 168 164 q 169 138 168 151 q 173 111 169 124 q 182 91 176 99 q 196 83 188 83 q 227 118 219 83 q 235 200 235 153 l 235 304 m 514 713 l 636 713 l 636 635 q 669 699 643 671 q 740 726 694 726 q 806 705 776 726 q 844 629 835 683 q 886 698 858 669 q 967 726 914 726 q 1029 716 1000 726 q 1080 683 1058 706 q 1115 624 1101 660 q 1128 539 1128 589 l 1128 -36 l 983 -36 l 983 469 q 972 560 983 538 q 936 582 961 582 q 906 552 918 582 q 893 461 893 522 l 893 -36 l 749 -36 l 749 482 q 744 534 749 514 q 734 565 740 554 q 720 578 728 575 q 704 582 713 582 q 669 553 679 582 q 658 453 658 525 l 658 -36 l 514 -36 l 514 713 m 1142 85 l 1254 85 l 1254 -36 l 1142 -36 l 1142 85 m 388 85 l 500 85 l 500 -36 l 388 -36 l 388 85 z "},"㏘":{"ha":1264,"x_min":24,"x_max":1258,"o":"m 526 713 l 649 713 l 649 638 q 658 666 650 650 q 678 695 665 682 q 710 717 692 708 q 753 726 729 726 q 826 699 794 726 q 857 629 858 671 q 895 698 863 669 q 965 726 928 726 q 1028 716 999 726 q 1080 683 1057 706 q 1116 624 1103 660 q 1129 539 1129 589 l 1129 -36 l 985 -36 l 985 472 q 972 559 985 536 q 943 582 958 582 q 917 560 929 582 q 906 469 906 538 l 906 -36 l 744 -36 l 744 485 q 733 560 744 539 q 706 582 721 582 q 693 578 699 582 q 682 561 688 574 q 674 525 676 549 q 671 461 671 501 l 671 -36 l 526 -36 l 526 713 m 168 -333 l 24 -333 l 24 713 l 160 713 l 160 635 q 188 701 168 675 q 249 726 208 726 q 365 652 332 726 q 399 419 399 578 l 399 260 q 389 115 399 174 q 360 21 379 57 q 313 -31 342 -15 q 247 -47 285 -47 q 195 -31 215 -47 q 168 -8 175 -15 l 168 -333 m 254 406 q 251 501 254 465 q 244 554 249 536 q 231 577 239 572 q 210 582 222 582 q 178 543 189 582 q 168 436 168 504 l 168 213 q 176 115 168 142 q 215 89 185 89 q 246 131 238 89 q 254 254 254 172 l 254 406 m 397 86 l 513 86 l 513 -36 l 397 -36 l 397 86 m 1143 86 l 1258 86 l 1258 -36 l 1143 -36 l 1143 86 z "},"℡":{"ha":1481,"x_min":8,"x_max":1472,"o":"m 992 713 l 992 568 l 722 568 l 722 426 l 963 426 l 963 282 l 722 282 l 722 108 l 1001 108 l 1001 -36 l 550 -36 l 550 713 l 992 713 m 674 965 l 674 821 l 429 821 l 429 -36 l 256 -36 l 256 821 l 8 821 l 8 965 l 674 965 m 1222 713 l 1222 108 l 1472 108 l 1472 -36 l 1050 -36 l 1050 713 l 1222 713 z "},"！":{"ha":1264,"x_min":533,"x_max":731,"o":"m 540 72 l 724 72 l 724 -111 l 540 -111 l 540 72 m 560 214 l 533 1047 l 731 1047 l 704 214 l 560 214 z "},"＂":{"ha":1264,"x_min":414,"x_max":849,"o":"m 432 678 l 414 1025 l 594 1025 l 576 678 l 432 678 m 686 678 l 668 1025 l 849 1025 l 831 678 l 686 678 z "},"＃":{"ha":1264,"x_min":250,"x_max":1015,"o":"m 972 374 l 972 222 l 826 222 l 792 -36 l 650 -36 l 683 222 l 517 222 l 483 -36 l 340 -36 l 374 222 l 250 222 l 250 374 l 394 374 l 419 563 l 293 563 l 293 714 l 440 714 l 474 965 l 617 965 l 583 714 l 750 714 l 783 965 l 925 965 l 892 714 l 1015 714 l 1015 563 l 872 563 l 846 374 l 972 374 m 732 563 l 561 563 l 535 374 l 707 374 l 732 563 z "},"＄":{"ha":1264,"x_min":268,"x_max":994,"o":"m 588 -33 q 498 -21 543 -31 q 410 3 453 -11 q 331 37 368 18 q 268 78 294 56 l 353 207 q 462 146 407 168 q 588 113 517 124 l 588 404 q 486 434 538 417 q 392 483 435 451 q 323 563 350 514 q 296 688 296 613 l 296 713 q 310 794 296 753 q 358 872 325 836 q 448 932 392 907 q 588 964 504 957 l 588 1043 l 690 1043 l 690 965 q 839 938 765 961 q 961 872 913 915 l 879 754 q 783 803 831 788 q 690 821 736 818 l 690 539 q 841 487 782 514 q 934 426 900 460 q 981 349 968 392 q 994 254 994 307 l 994 243 q 971 116 994 167 q 906 33 947 65 q 810 -14 865 1 q 690 -33 754 -29 l 690 -129 l 588 -129 l 588 -33 m 821 242 q 817 285 821 265 q 800 322 814 306 q 760 353 786 339 q 690 379 735 367 l 690 111 q 792 153 764 119 q 821 228 821 188 l 821 242 m 467 694 q 474 644 467 664 q 495 609 481 624 q 533 584 510 594 q 588 564 556 574 l 588 818 q 522 801 546 814 q 485 774 497 789 q 469 743 472 758 q 467 718 467 728 l 467 694 z "},"％":{"ha":1264,"x_min":75,"x_max":1188,"o":"m 251 -35 l 850 965 l 1010 965 l 413 -35 l 251 -35 m 313 985 q 486 920 422 985 q 550 746 550 856 l 550 692 q 486 517 550 582 q 313 453 422 453 q 139 517 203 453 q 75 692 75 582 l 75 746 q 139 920 75 856 q 313 985 203 985 m 313 571 q 392 604 371 571 q 413 694 413 638 l 413 743 q 392 833 413 799 q 313 867 371 867 q 233 833 254 867 q 213 743 213 799 l 213 694 q 233 604 213 638 q 313 571 254 571 m 950 485 q 1124 420 1060 485 q 1188 246 1188 356 l 1188 192 q 1124 17 1188 82 q 950 -47 1060 -47 q 776 17 840 -47 q 713 192 713 82 l 713 246 q 776 420 713 356 q 950 485 840 485 m 950 71 q 1029 104 1008 71 q 1050 194 1050 138 l 1050 243 q 1029 333 1050 299 q 950 367 1008 367 q 871 333 892 367 q 850 243 850 299 l 850 194 q 871 104 850 138 q 950 71 892 71 z "},"＆":{"ha":1264,"x_min":168,"x_max":1081,"o":"m 989 515 q 970 322 989 407 q 911 169 951 238 l 1081 -35 l 868 -35 l 801 49 q 670 -27 740 -3 q 528 -51 600 -51 l 517 -51 q 392 -37 454 -51 q 279 10 329 -22 q 199 94 229 42 q 168 219 168 146 l 168 246 q 185 338 168 296 q 231 413 201 379 q 301 476 260 447 q 393 528 343 504 l 360 565 q 301 653 319 611 q 283 746 283 696 l 283 763 q 353 919 283 858 q 549 981 422 981 q 663 963 614 981 q 745 914 713 944 q 794 842 778 883 q 811 757 811 801 l 811 742 q 774 612 811 675 q 635 486 736 549 l 799 299 q 811 334 806 315 q 820 377 817 353 q 825 435 824 401 q 826 515 826 468 l 989 515 m 524 104 q 699 168 633 104 l 490 414 q 374 330 406 371 q 343 243 343 289 l 343 224 q 392 139 343 174 q 524 104 440 104 m 451 743 q 479 678 451 717 q 540 603 507 640 q 594 641 574 624 q 626 674 614 658 q 642 706 638 690 q 646 740 646 722 l 646 750 q 621 809 646 783 q 549 835 596 835 q 474 810 496 835 q 451 757 451 786 l 451 743 z "},"＇":{"ha":1264,"x_min":542,"x_max":722,"o":"m 560 678 l 542 1025 l 722 1025 l 704 678 l 560 678 z "},"（":{"ha":1264,"x_min":864,"x_max":1235,"o":"m 1044 381 q 1086 67 1044 222 q 1235 -236 1128 -89 l 1068 -236 q 914 46 964 -112 q 864 388 864 204 l 864 443 q 914 783 864 626 q 1068 1064 964 940 l 1235 1064 q 1088 772 1132 925 q 1044 450 1044 618 l 1044 381 z "},"）":{"ha":1264,"x_min":29,"x_max":400,"o":"m 219 450 q 176 772 219 618 q 29 1064 132 925 l 196 1064 q 350 783 300 940 q 400 443 400 626 l 400 388 q 350 46 400 204 q 196 -236 300 -112 l 29 -236 q 178 67 136 -89 q 219 381 219 222 l 219 450 z "},"＊":{"ha":1264,"x_min":356,"x_max":907,"o":"m 426 544 l 356 679 l 544 747 l 356 814 l 426 949 l 581 833 l 558 1018 l 706 1018 l 682 833 l 838 949 l 907 814 l 718 747 l 907 679 l 838 544 l 682 660 l 706 476 l 558 476 l 582 660 l 426 544 z "},"＋":{"ha":1264,"x_min":274,"x_max":990,"o":"m 710 797 l 710 513 l 990 513 l 990 368 l 710 368 l 710 64 l 554 64 l 554 368 l 274 368 l 274 513 l 554 513 l 554 797 l 710 797 z "},"，":{"ha":1264,"x_min":503,"x_max":758,"o":"m 561 78 l 758 78 l 644 -243 l 503 -243 l 561 78 z "},"－":{"ha":1264,"x_min":396,"x_max":868,"o":"m 396 536 l 868 536 l 868 392 l 396 392 l 396 536 z "},"．":{"ha":1264,"x_min":544,"x_max":721,"o":"m 544 78 l 721 78 l 721 -103 l 544 -103 l 544 78 z "},"／":{"ha":1264,"x_min":331,"x_max":932,"o":"m 932 1079 l 501 -182 l 331 -182 l 760 1079 l 932 1079 z "},"０":{"ha":1264,"x_min":264,"x_max":1000,"o":"m 1000 388 q 910 61 1000 174 q 638 -51 819 -51 q 361 63 458 -51 q 264 388 264 176 l 264 543 q 360 867 264 754 q 633 981 457 981 q 906 867 811 981 q 1000 543 1000 754 l 1000 388 m 821 544 q 805 683 821 631 q 763 765 789 736 q 703 803 738 793 q 633 813 669 813 q 565 803 599 813 q 503 764 531 793 q 460 682 476 735 q 443 544 443 629 l 443 386 q 460 247 443 300 q 506 165 478 194 q 568 126 533 136 q 638 117 603 117 q 707 126 674 117 q 765 165 740 136 q 806 246 790 193 q 821 386 821 299 l 821 544 z "},"１":{"ha":1264,"x_min":386,"x_max":878,"o":"m 700 -36 l 700 765 l 472 635 l 386 779 l 721 965 l 878 965 l 878 -36 l 700 -36 z "},"２":{"ha":1264,"x_min":278,"x_max":986,"o":"m 646 476 q 714 554 689 521 q 751 614 739 588 q 767 663 764 640 q 769 706 769 685 l 769 717 q 737 790 769 757 q 626 822 704 822 q 572 817 599 822 q 518 796 544 811 q 466 753 492 781 q 415 682 440 725 l 282 769 q 327 839 300 801 q 395 908 354 876 q 492 960 436 939 q 625 981 549 981 q 771 960 710 981 q 872 903 832 939 q 930 822 911 868 q 949 724 949 775 l 949 710 q 912 553 949 628 q 804 408 875 479 l 510 111 l 986 111 l 986 -36 l 278 -36 l 278 97 l 646 476 z "},"３":{"ha":1264,"x_min":290,"x_max":975,"o":"m 318 836 q 438 941 368 901 q 615 981 507 981 q 743 963 686 981 q 840 912 800 944 q 903 833 881 879 q 925 731 925 786 l 925 717 q 919 653 925 688 q 896 588 913 619 q 851 531 879 557 q 781 488 824 504 q 928 408 881 469 q 975 261 975 347 l 975 240 q 953 131 975 183 q 885 38 931 78 q 772 -27 840 -3 q 611 -51 703 -51 q 442 -24 524 -51 q 290 60 361 3 l 378 199 q 444 154 414 172 q 501 126 474 136 q 556 111 529 115 q 613 107 582 107 q 751 144 707 107 q 796 249 796 182 l 796 267 q 753 374 796 340 q 614 408 710 408 l 479 408 l 479 561 l 599 561 q 676 572 646 561 q 722 601 706 582 q 745 647 739 619 q 751 706 751 674 l 751 717 q 715 799 751 774 q 615 825 678 825 q 512 801 551 825 q 439 742 472 778 l 318 836 z "},"４":{"ha":1264,"x_min":232,"x_max":1042,"o":"m 906 615 l 906 315 l 1042 315 l 1042 172 l 906 172 l 906 -36 l 731 -36 l 731 172 l 232 172 l 232 288 l 688 965 l 879 965 l 442 315 l 731 315 l 731 615 l 906 615 z "},"５":{"ha":1264,"x_min":267,"x_max":979,"o":"m 800 299 q 753 422 800 379 q 624 465 707 465 q 513 442 560 465 q 433 386 467 418 l 314 386 l 346 965 l 914 965 l 914 818 l 506 818 l 494 557 q 574 593 529 578 q 681 608 618 608 q 808 583 753 608 q 902 516 864 558 q 960 418 940 474 q 979 303 979 363 l 979 282 q 959 163 979 222 q 895 56 939 103 q 784 -22 851 8 q 622 -51 717 -51 q 428 -27 514 -51 q 267 60 342 -3 l 353 200 q 421 154 388 172 q 487 126 454 136 q 553 113 519 117 q 621 110 586 110 q 756 159 713 110 q 800 283 800 208 l 800 299 z "},"６":{"ha":1264,"x_min":274,"x_max":988,"o":"m 872 764 q 774 806 825 792 q 660 819 722 819 q 585 806 621 819 q 522 759 550 792 q 474 673 493 726 q 450 539 454 619 q 548 604 486 582 q 675 626 610 626 q 806 603 747 626 q 904 538 864 581 q 966 436 944 496 q 988 304 988 376 l 988 276 q 963 147 988 207 q 893 42 939 86 q 781 -26 847 -1 q 632 -51 715 -51 q 468 -22 536 -51 q 357 64 400 8 q 294 198 314 119 q 274 372 274 276 l 274 436 q 305 708 274 601 q 390 874 336 814 q 517 958 444 935 q 671 981 589 981 q 810 965 739 981 q 938 911 881 949 l 872 764 m 453 282 q 497 155 453 200 q 628 110 542 110 q 766 155 719 110 q 813 283 813 200 l 813 299 q 769 428 813 386 q 635 471 726 471 q 552 458 586 471 q 496 422 518 444 q 463 368 474 399 q 453 303 453 338 l 453 282 z "},"７":{"ha":1264,"x_min":274,"x_max":989,"o":"m 606 -36 l 418 -36 l 803 815 l 274 815 l 274 965 l 989 965 l 989 829 l 606 -36 z "},"８":{"ha":1264,"x_min":285,"x_max":979,"o":"m 493 682 q 506 624 493 649 q 538 584 518 600 q 583 560 558 568 q 633 553 608 553 q 684 560 660 553 q 728 584 708 568 q 759 624 747 600 q 771 682 771 649 l 771 696 q 733 794 771 761 q 632 826 694 826 q 533 794 574 826 q 493 696 493 761 l 493 682 m 468 240 q 514 140 468 175 q 635 104 560 104 q 753 140 710 104 q 796 240 796 175 l 796 254 q 783 318 796 292 q 748 363 769 344 q 697 389 726 381 q 635 397 668 397 q 572 389 601 397 q 519 363 542 381 q 482 319 496 346 q 468 254 468 292 l 468 240 m 285 253 q 299 331 285 294 q 335 398 313 368 q 388 449 358 428 q 449 479 417 469 q 387 523 413 497 q 344 577 361 549 q 319 635 328 606 q 311 689 311 664 l 311 706 q 330 809 311 760 q 388 897 349 858 q 488 958 428 935 q 631 981 549 981 q 772 958 711 981 q 872 897 832 935 q 933 809 913 858 q 953 706 953 760 l 953 689 q 945 636 953 664 q 921 581 938 608 q 878 526 904 553 q 817 479 853 500 q 878 448 849 469 q 931 397 908 426 q 966 331 953 368 q 979 253 979 294 l 979 229 q 957 118 979 169 q 891 29 935 67 q 783 -30 847 -8 q 636 -51 719 -51 q 484 -30 550 -51 q 374 29 418 -8 q 307 118 329 67 q 285 229 285 169 l 285 253 z "},"９":{"ha":1264,"x_min":274,"x_max":988,"o":"m 389 165 q 488 124 436 138 q 601 110 539 110 q 688 124 650 110 q 751 170 725 138 q 792 256 778 203 q 811 390 807 310 q 713 325 775 347 q 586 303 651 303 q 455 326 513 303 q 357 390 397 349 q 295 491 317 432 q 274 624 274 550 l 274 651 q 298 781 274 721 q 368 886 322 842 q 480 956 414 931 q 629 981 546 981 q 793 951 725 981 q 904 865 861 921 q 967 731 947 810 q 988 557 988 653 l 988 493 q 959 222 988 328 q 878 55 931 115 q 753 -28 826 -6 q 590 -51 679 -51 q 451 -35 522 -51 q 324 18 381 -19 l 389 165 m 808 647 q 764 774 808 729 q 633 819 719 819 q 495 774 542 819 q 449 646 449 729 l 449 631 q 492 501 449 543 q 626 458 535 458 q 708 472 674 458 q 765 508 743 485 q 798 561 788 531 q 808 626 808 592 l 808 647 z "},"：":{"ha":1264,"x_min":544,"x_max":721,"o":"m 544 182 l 721 182 l 721 1 l 544 1 l 544 182 m 544 807 l 721 807 l 721 626 l 544 626 l 544 807 z "},"；":{"ha":1264,"x_min":504,"x_max":760,"o":"m 558 807 l 735 807 l 735 626 l 558 626 l 558 807 m 563 189 l 760 189 l 646 -132 l 504 -132 l 563 189 z "},"＜":{"ha":1264,"x_min":296,"x_max":968,"o":"m 490 443 l 968 206 l 968 29 l 296 376 l 296 514 l 968 861 l 968 686 l 490 451 l 490 443 z "},"＝":{"ha":1264,"x_min":304,"x_max":960,"o":"m 304 664 l 960 664 l 960 518 l 304 518 l 304 664 m 304 371 l 960 371 l 960 225 l 304 225 l 304 371 z "},"＞":{"ha":1264,"x_min":296,"x_max":968,"o":"m 774 451 l 296 686 l 296 861 l 968 514 l 968 376 l 296 29 l 296 206 l 774 443 l 774 451 z "},"？":{"ha":1264,"x_min":310,"x_max":953,"o":"m 515 196 l 515 258 q 520 320 515 293 q 538 374 525 347 q 575 429 551 400 q 636 497 599 458 q 714 578 686 549 q 756 629 742 608 q 772 667 769 650 q 775 710 775 685 l 775 724 q 769 757 775 739 q 747 790 763 775 q 704 815 732 806 q 633 825 676 825 q 513 799 568 825 q 414 731 458 774 l 310 858 q 456 954 381 928 q 631 981 532 981 q 767 962 707 981 q 868 910 826 943 q 931 829 910 876 q 953 725 953 782 l 953 710 q 939 619 953 658 q 902 546 925 579 q 849 483 879 513 q 788 424 819 454 q 749 383 764 401 q 723 344 733 364 q 708 303 713 325 q 704 254 704 281 l 704 196 l 515 196 m 521 72 l 704 72 l 704 -111 l 521 -111 l 521 72 z "},"＠":{"ha":1264,"x_min":4,"x_max":1258,"o":"m 994 49 q 892 75 939 49 q 825 168 844 101 l 824 168 q 785 113 811 135 q 728 76 758 90 q 666 57 697 63 q 610 51 635 51 q 488 72 542 51 q 397 129 435 92 q 340 219 360 167 q 321 333 321 271 l 321 444 q 340 560 321 508 q 394 649 360 613 q 478 706 429 686 q 585 726 526 726 q 707 703 664 726 q 765 654 750 681 l 765 715 l 925 715 l 925 289 q 943 202 925 231 q 1006 174 961 174 q 1056 185 1033 174 q 1093 226 1078 197 q 1116 300 1108 254 q 1124 414 1124 346 l 1124 425 q 1090 631 1124 542 q 991 783 1056 721 q 833 876 926 844 q 619 908 739 908 q 429 875 517 908 q 277 778 342 842 q 176 621 213 714 q 139 408 139 528 l 139 389 q 175 163 139 260 q 277 1 211 67 q 436 -97 343 -64 q 644 -129 529 -129 q 845 -108 744 -129 q 1031 -42 946 -86 l 1079 -154 q 883 -227 992 -201 q 649 -253 774 -253 q 376 -208 496 -253 q 173 -79 256 -162 q 47 123 90 4 q 4 388 4 242 l 4 410 q 47 658 4 544 q 171 855 90 772 q 365 984 251 938 q 619 1031 478 1031 q 893 988 774 1031 q 1094 866 1013 944 q 1217 676 1175 788 q 1258 429 1258 565 l 1258 415 q 1247 288 1258 353 q 1205 169 1235 222 q 1124 83 1175 117 q 994 49 1072 49 m 492 353 q 523 243 492 282 q 619 204 554 204 q 716 238 678 204 q 754 338 754 272 l 754 436 q 722 540 754 503 q 619 578 690 578 q 526 542 560 578 q 492 422 492 507 l 492 353 z "},"Ａ":{"ha":1264,"x_min":178,"x_max":1086,"o":"m 1086 -36 l 893 -36 l 796 239 l 458 239 l 360 -36 l 178 -36 l 550 965 l 710 965 l 1086 -36 m 510 388 l 744 388 l 676 592 q 648 676 658 642 q 626 746 638 710 q 616 708 621 725 q 606 674 611 692 q 594 638 600 657 q 578 592 588 618 l 510 388 z "},"Ｂ":{"ha":1264,"x_min":257,"x_max":1007,"o":"m 257 965 l 646 965 q 961 721 961 965 l 961 692 q 953 627 961 658 q 927 569 946 596 q 878 522 908 542 q 803 490 847 501 q 951 422 894 476 q 1007 263 1007 367 l 1007 228 q 929 34 1007 104 q 689 -36 851 -36 l 257 -36 l 257 965 m 433 111 l 594 111 q 697 116 653 111 q 769 135 740 121 q 811 176 797 150 q 825 247 825 203 l 825 278 q 812 342 825 317 q 768 384 799 368 q 688 406 738 400 q 568 413 639 413 l 433 413 l 433 111 m 433 818 l 433 557 l 564 557 q 656 560 615 557 q 724 575 697 563 q 766 613 751 588 q 781 686 781 639 l 781 711 q 731 797 781 775 q 569 818 682 818 l 433 818 z "},"Ｃ":{"ha":1264,"x_min":239,"x_max":1025,"o":"m 657 981 q 844 956 763 981 q 1001 869 925 931 l 906 733 q 785 801 844 785 q 657 817 725 817 q 569 803 613 817 q 493 756 526 790 q 439 661 460 721 q 418 508 418 601 l 418 406 q 438 271 418 326 q 490 181 457 215 q 565 130 522 146 q 656 114 608 114 q 798 135 725 114 q 931 218 871 157 l 1025 82 q 931 12 981 38 q 833 -28 882 -14 q 738 -47 785 -43 q 649 -51 690 -51 q 492 -28 567 -51 q 362 47 418 -4 q 272 178 306 99 q 239 369 239 257 l 239 549 q 272 742 239 661 q 361 877 304 824 q 494 956 418 931 q 657 981 569 981 z "},"Ｄ":{"ha":1264,"x_min":240,"x_max":1024,"o":"m 589 965 q 918 855 813 965 q 1024 536 1024 744 l 1024 393 q 1000 209 1024 289 q 924 75 976 129 q 790 -8 872 21 q 592 -36 708 -36 l 240 -36 l 240 965 l 589 965 m 417 114 l 565 114 q 684 129 632 114 q 772 178 736 144 q 826 266 807 211 q 844 400 844 321 l 844 529 q 774 751 844 688 q 565 815 704 815 l 417 815 l 417 114 z "},"Ｅ":{"ha":1264,"x_min":304,"x_max":958,"o":"m 949 965 l 949 818 l 481 818 l 481 549 l 919 549 l 919 404 l 481 404 l 481 111 l 958 111 l 958 -36 l 304 -36 l 304 965 l 949 965 z "},"Ｆ":{"ha":1264,"x_min":310,"x_max":954,"o":"m 310 -36 l 310 965 l 954 965 l 954 815 l 488 815 l 488 529 l 925 529 l 925 379 l 488 379 l 488 -36 l 310 -36 z "},"Ｇ":{"ha":1264,"x_min":233,"x_max":1029,"o":"m 678 981 q 854 956 767 981 q 1019 868 942 931 l 924 732 q 804 800 868 781 q 678 819 740 819 q 571 806 619 819 q 487 759 522 793 q 431 665 451 725 q 411 508 411 604 l 411 406 q 432 267 411 324 q 490 176 453 211 q 577 125 526 140 q 689 110 628 110 q 776 117 738 110 q 853 139 815 124 l 853 379 l 643 379 l 643 528 l 1029 528 l 1029 40 q 954 1 996 18 q 867 -28 913 -17 q 773 -45 821 -39 q 681 -51 725 -51 q 503 -28 585 -51 q 362 47 422 -4 q 267 178 301 99 q 233 369 233 257 l 233 549 q 267 742 233 661 q 359 877 300 824 q 500 956 418 931 q 678 981 582 981 z "},"Ｈ":{"ha":1264,"x_min":246,"x_max":1017,"o":"m 839 413 l 424 413 l 424 -36 l 246 -36 l 246 965 l 424 965 l 424 560 l 839 560 l 839 965 l 1017 965 l 1017 -36 l 839 -36 l 839 413 z "},"Ｉ":{"ha":1264,"x_min":543,"x_max":721,"o":"m 543 965 l 721 965 l 721 -36 l 543 -36 l 543 965 z "},"Ｊ":{"ha":1264,"x_min":354,"x_max":908,"o":"m 731 965 l 908 965 l 908 249 q 887 108 908 165 q 824 15 865 50 q 725 -36 783 -21 q 594 -51 667 -51 q 467 -29 532 -51 q 354 36 403 -7 l 436 172 q 515 125 481 139 q 597 111 549 111 q 697 150 663 111 q 731 292 731 189 l 731 965 z "},"Ｋ":{"ha":1264,"x_min":232,"x_max":1031,"o":"m 622 524 l 1031 -36 l 806 -36 l 503 394 l 410 293 l 410 -36 l 232 -36 l 232 965 l 410 965 l 410 507 l 804 965 l 1010 965 l 622 524 z "},"Ｌ":{"ha":1264,"x_min":314,"x_max":949,"o":"m 492 965 l 492 114 l 949 114 l 949 -36 l 314 -36 l 314 965 l 492 965 z "},"Ｍ":{"ha":1264,"x_min":136,"x_max":1126,"o":"m 353 658 q 331 720 342 685 q 301 810 319 756 l 301 -36 l 136 -36 l 136 965 l 389 965 l 635 343 l 871 965 l 1126 965 l 1126 -36 l 958 -36 l 958 810 q 932 716 943 747 q 911 658 921 685 l 701 131 l 560 131 l 353 658 z "},"Ｎ":{"ha":1264,"x_min":243,"x_max":1019,"o":"m 243 965 l 447 965 l 789 358 q 823 290 804 331 q 853 200 842 249 l 853 965 l 1019 965 l 1019 -36 l 815 -36 l 472 572 q 436 644 453 606 q 410 726 419 683 l 410 -36 l 243 -36 l 243 965 z "},"Ｏ":{"ha":1264,"x_min":208,"x_max":1056,"o":"m 632 981 q 794 956 717 981 q 929 880 871 932 q 1022 746 988 828 q 1056 547 1056 664 l 1056 382 q 1022 181 1056 264 q 930 47 988 99 q 795 -28 872 -4 q 632 -51 718 -51 q 469 -28 546 -51 q 334 47 392 -4 q 242 181 276 99 q 208 382 208 264 l 208 547 q 242 746 208 664 q 335 880 276 828 q 470 956 393 932 q 632 981 547 981 m 632 111 q 728 124 683 111 q 806 171 772 138 q 858 261 839 204 q 876 404 876 318 l 876 525 q 858 668 876 611 q 806 758 839 725 q 728 805 772 792 q 632 818 683 818 q 538 805 582 818 q 460 758 493 792 q 407 668 426 725 q 388 525 388 611 l 388 404 q 407 261 388 318 q 460 171 426 204 q 538 124 493 138 q 632 111 582 111 z "},"Ｐ":{"ha":1264,"x_min":271,"x_max":992,"o":"m 271 965 l 649 965 q 803 944 739 965 q 910 884 868 922 q 972 793 951 846 q 992 679 992 740 l 992 650 q 971 534 992 589 q 907 438 950 479 q 800 373 864 397 q 649 349 736 349 l 449 349 l 449 -36 l 271 -36 l 271 965 m 449 817 l 449 499 l 625 499 q 763 532 713 499 q 813 653 813 565 l 813 678 q 800 746 813 719 q 765 788 788 772 q 710 810 742 804 q 640 817 678 817 l 449 817 z "},"Ｑ":{"ha":1264,"x_min":194,"x_max":1068,"o":"m 618 981 q 780 956 703 981 q 915 880 857 932 q 1008 746 974 828 q 1042 547 1042 664 l 1042 382 q 1018 210 1042 282 q 953 85 994 138 l 1068 -29 l 967 -133 l 838 -6 q 733 -40 789 -29 q 618 -51 678 -51 q 455 -28 532 -51 q 320 47 378 -4 q 228 181 263 99 q 194 382 194 264 l 194 547 q 228 746 194 664 q 321 880 263 828 q 456 956 379 932 q 618 981 533 981 m 618 111 q 665 113 642 111 q 708 122 688 115 l 590 240 l 692 344 l 822 214 q 852 294 842 247 q 863 404 863 340 l 863 525 q 844 668 863 611 q 792 758 825 725 q 714 805 758 792 q 618 818 669 818 q 524 805 568 818 q 446 758 479 792 q 393 668 413 725 q 374 525 374 611 l 374 404 q 393 261 374 318 q 446 171 413 204 q 524 124 479 138 q 618 111 568 111 z "},"Ｒ":{"ha":1264,"x_min":260,"x_max":1003,"o":"m 642 365 l 438 365 l 438 -36 l 260 -36 l 260 965 l 639 965 q 777 944 717 965 q 878 888 838 924 q 941 801 919 851 q 963 690 963 750 l 963 639 q 924 497 963 560 q 807 399 885 433 q 905 181 857 289 q 1003 -36 953 74 l 810 -36 l 642 365 m 438 817 l 438 514 l 601 514 q 745 550 704 514 q 786 643 786 586 l 786 685 q 747 780 786 743 q 617 817 708 817 l 438 817 z "},"Ｓ":{"ha":1264,"x_min":268,"x_max":994,"o":"m 635 108 q 774 142 731 108 q 817 228 817 176 l 817 243 q 772 334 817 304 q 640 383 726 364 q 515 413 578 397 q 401 458 451 428 q 318 541 350 489 q 286 681 286 593 l 286 699 q 304 794 286 744 q 364 885 322 843 q 474 953 406 926 q 644 981 543 981 q 804 963 728 981 q 957 897 881 946 l 874 760 q 760 810 813 799 q 647 822 707 822 q 565 811 600 822 q 508 782 531 800 q 474 743 485 764 q 463 701 463 722 l 463 685 q 480 626 463 649 q 526 590 497 604 q 595 566 556 575 q 679 547 635 557 q 828 499 768 528 q 926 435 889 471 q 978 355 963 399 q 994 260 994 311 l 994 242 q 965 102 994 158 q 883 12 935 46 q 765 -37 832 -22 q 626 -51 699 -51 q 520 -42 572 -51 q 422 -18 468 -33 q 337 19 376 -3 q 268 64 297 40 l 354 206 q 472 138 400 167 q 635 108 544 108 z "},"Ｔ":{"ha":1264,"x_min":249,"x_max":1014,"o":"m 1014 965 l 1014 815 l 721 815 l 721 -36 l 543 -36 l 543 815 l 249 815 l 249 965 l 1014 965 z "},"Ｕ":{"ha":1264,"x_min":243,"x_max":1021,"o":"m 632 110 q 726 123 686 110 q 792 167 767 136 q 831 249 818 199 q 843 374 843 300 l 843 965 l 1021 965 l 1021 376 q 995 171 1021 253 q 920 40 969 89 q 799 -31 871 -10 q 632 -51 726 -51 q 465 -31 538 -51 q 344 40 393 -10 q 269 171 294 89 q 243 376 243 253 l 243 965 l 421 965 l 421 374 q 433 249 421 300 q 472 167 446 199 q 538 123 497 136 q 632 110 578 110 z "},"Ｖ":{"ha":1264,"x_min":179,"x_max":1085,"o":"m 179 965 l 369 965 l 632 182 l 904 965 l 1085 965 l 707 -36 l 547 -36 l 179 965 z "},"Ｗ":{"ha":1264,"x_min":-19,"x_max":1285,"o":"m -19 965 l 165 965 l 349 222 l 551 965 l 722 965 l 924 224 l 1114 965 l 1285 965 l 1008 -36 l 839 -36 l 636 735 l 425 -36 l 253 -36 l -19 965 z "},"Ｘ":{"ha":1264,"x_min":203,"x_max":1060,"o":"m 749 478 l 1060 -36 l 854 -36 l 625 368 l 403 -36 l 203 -36 l 513 488 l 228 965 l 442 965 l 642 596 l 849 965 l 1047 965 l 749 478 z "},"Ｙ":{"ha":1264,"x_min":200,"x_max":1064,"o":"m 721 360 l 721 -36 l 543 -36 l 543 360 l 200 965 l 399 965 l 636 524 l 869 965 l 1064 965 l 721 360 z "},"Ｚ":{"ha":1264,"x_min":235,"x_max":1029,"o":"m 1003 831 l 454 117 l 1029 117 l 1029 -36 l 235 -36 l 235 110 l 776 813 l 268 813 l 268 965 l 1003 965 l 1003 831 z "},"［":{"ha":1264,"x_min":799,"x_max":1206,"o":"m 1206 -236 l 799 -236 l 799 1064 l 1206 1064 l 1206 911 l 978 911 l 978 -83 l 1206 -83 l 1206 -236 z "},"￦":{"ha":1264,"x_min":8,"x_max":1256,"o":"m 8 553 l 156 553 l 53 965 l 229 965 l 318 553 l 464 553 l 572 965 l 726 965 l 824 553 l 957 553 l 1040 965 l 1214 965 l 1113 553 l 1256 553 l 1256 454 l 1089 454 l 972 -36 l 819 -36 l 707 454 l 574 454 l 450 -36 l 303 -36 l 181 454 l 8 454 l 8 553 m 382 235 l 440 454 l 338 454 l 382 235 m 897 226 l 938 454 l 844 454 l 897 226 m 599 553 l 685 553 l 646 736 l 599 553 z "},"］":{"ha":1264,"x_min":58,"x_max":465,"o":"m 58 -83 l 286 -83 l 286 911 l 58 911 l 58 1064 l 465 1064 l 465 -236 l 58 -236 l 58 -83 z "},"＾":{"ha":1264,"x_min":326,"x_max":938,"o":"m 774 557 l 632 868 l 490 557 l 326 557 l 551 1006 l 714 1006 l 938 557 l 774 557 z "},"＿":{"ha":1264,"x_min":271,"x_max":993,"o":"m 993 -208 l 271 -208 l 271 -104 l 993 -104 l 993 -208 z "},"｀":{"ha":1264,"x_min":463,"x_max":826,"o":"m 668 781 l 463 996 l 669 996 l 826 781 l 668 781 z "},"ａ":{"ha":1264,"x_min":313,"x_max":950,"o":"m 572 -47 q 381 9 449 -47 q 313 167 313 65 l 313 211 q 327 298 313 258 q 376 367 342 338 q 465 413 410 396 q 601 429 521 429 l 776 429 l 776 458 q 744 560 776 529 q 640 592 711 592 q 424 515 521 592 l 338 643 q 469 715 396 683 q 642 746 543 746 q 765 729 708 746 q 863 681 822 713 q 927 605 904 650 q 950 501 950 560 l 950 -36 l 793 -36 l 790 58 q 755 13 779 33 q 700 -20 731 -7 q 636 -40 669 -33 q 572 -47 603 -47 m 776 293 l 606 293 q 509 267 536 293 q 482 196 482 240 l 482 179 q 508 121 482 142 q 586 100 535 100 q 744 151 693 100 q 772 202 768 175 q 776 272 776 229 l 776 293 z "},"ｂ":{"ha":1264,"x_min":290,"x_max":974,"o":"m 457 53 l 457 -36 l 290 -36 l 290 1014 l 465 1014 l 465 654 q 510 699 483 681 q 566 727 538 717 q 623 742 594 738 q 675 746 651 746 q 805 723 749 746 q 899 657 861 700 q 955 554 936 614 q 974 419 974 494 l 974 285 q 951 145 974 207 q 889 41 929 83 q 792 -24 849 -1 q 667 -47 736 -47 q 539 -19 590 -47 q 461 53 488 8 l 457 53 m 800 392 q 763 542 800 489 q 640 596 725 596 q 508 545 553 596 q 463 415 463 494 l 463 253 q 476 199 463 226 q 514 151 490 172 q 571 115 538 129 q 644 101 604 101 q 760 155 721 101 q 800 304 800 208 l 800 392 z "},"ｃ":{"ha":1264,"x_min":311,"x_max":951,"o":"m 657 746 q 753 738 711 746 q 828 718 794 731 q 888 689 861 706 q 936 656 914 672 l 851 528 q 758 579 804 565 q 657 593 711 593 q 593 583 624 593 q 539 549 563 572 q 501 490 515 526 q 488 400 488 453 l 488 307 q 503 210 488 249 q 544 148 519 171 q 600 116 569 125 q 660 107 631 107 q 780 124 732 107 q 868 172 828 142 l 951 44 q 838 -19 913 8 q 658 -47 763 -47 q 400 47 489 -47 q 311 304 311 140 l 311 400 q 403 655 311 564 q 657 746 496 746 z "},"ｄ":{"ha":1264,"x_min":290,"x_max":972,"o":"m 807 54 l 803 54 q 713 -24 772 -1 q 583 -47 653 -47 q 363 38 436 -47 q 290 279 290 124 l 290 414 q 312 553 290 492 q 374 658 333 615 q 470 723 414 700 q 596 746 526 746 q 676 738 642 746 q 734 717 710 729 q 774 691 758 706 q 797 664 789 676 l 797 1014 l 972 1014 l 972 -36 l 807 -36 l 807 54 m 463 306 q 502 155 463 208 q 618 101 542 101 q 695 116 661 101 q 752 156 729 131 q 788 216 775 182 q 800 289 800 250 l 800 444 q 790 498 800 471 q 758 547 779 525 q 703 582 736 568 q 625 596 671 596 q 502 542 542 596 q 463 392 463 488 l 463 306 z "},"ｅ":{"ha":1264,"x_min":290,"x_max":974,"o":"m 806 415 l 806 449 q 797 507 806 479 q 767 556 788 535 q 714 589 746 576 q 636 601 682 601 q 505 556 549 601 q 461 444 461 510 l 461 415 l 806 415 m 954 35 q 824 -25 899 -3 q 640 -47 749 -47 q 511 -30 574 -47 q 399 28 449 -12 q 320 138 350 69 q 290 310 290 207 l 290 389 q 317 549 290 482 q 392 660 344 617 q 502 725 439 704 q 639 746 565 746 q 773 725 711 746 q 879 662 835 704 q 949 556 924 619 q 974 410 974 493 l 974 283 l 461 283 q 510 145 461 192 q 650 99 558 99 q 771 113 718 99 q 882 161 824 128 l 954 35 z "},"ｆ":{"ha":1264,"x_min":374,"x_max":890,"o":"m 496 586 l 374 586 l 374 729 l 496 729 l 496 782 q 558 960 496 897 q 746 1022 619 1022 q 828 1015 789 1022 q 890 1000 867 1008 l 863 860 q 763 874 821 874 q 671 778 671 874 l 671 729 l 864 729 l 864 586 l 671 586 l 671 -36 l 496 -36 l 496 586 z "},"ｇ":{"ha":1264,"x_min":290,"x_max":972,"o":"m 800 67 l 797 67 q 710 -11 767 11 q 583 -33 653 -33 q 363 52 436 -33 q 290 293 290 138 l 290 414 q 312 552 290 490 q 374 657 333 614 q 470 723 414 700 q 596 746 526 746 q 675 738 640 746 q 735 717 710 729 q 778 690 761 704 q 803 663 794 675 l 804 663 l 804 729 l 972 729 l 972 -29 q 885 -267 972 -189 q 608 -346 797 -346 q 465 -322 536 -346 q 346 -262 393 -299 l 425 -126 q 457 -148 436 -136 q 503 -169 478 -160 q 556 -185 528 -179 q 611 -192 583 -192 q 752 -152 704 -192 q 800 -28 800 -112 l 800 67 m 463 319 q 502 169 463 222 q 618 115 542 115 q 695 130 661 115 q 752 170 729 144 q 788 230 775 196 q 800 303 800 264 l 800 444 q 790 498 800 471 q 758 547 779 525 q 703 582 736 568 q 625 596 671 596 q 502 542 542 596 q 463 392 463 488 l 463 319 z "},"ｈ":{"ha":1264,"x_min":301,"x_max":963,"o":"m 696 746 q 795 731 747 746 q 881 681 843 715 q 940 593 918 647 q 963 463 963 539 l 963 -36 l 788 -36 l 788 425 q 642 593 788 593 q 592 587 621 593 q 538 562 564 581 q 494 508 513 543 q 476 417 476 474 l 476 -36 l 301 -36 l 301 1014 l 467 1014 l 467 642 l 469 642 q 569 723 510 700 q 696 746 628 746 z "},"ｉ":{"ha":1264,"x_min":540,"x_max":724,"o":"m 544 729 l 719 729 l 719 -36 l 544 -36 l 544 729 m 540 1031 l 724 1031 l 724 842 l 540 842 l 540 1031 z "},"ｊ":{"ha":1264,"x_min":432,"x_max":831,"o":"m 647 1031 l 831 1031 l 831 842 l 647 842 l 647 1031 m 826 -106 q 813 -203 826 -160 q 772 -279 800 -247 q 697 -328 743 -311 q 583 -346 650 -346 q 498 -340 540 -346 q 432 -325 456 -333 l 460 -183 q 513 -194 490 -192 q 560 -197 536 -197 q 630 -176 608 -197 q 651 -99 651 -154 l 651 729 l 826 729 l 826 -106 z "},"ｋ":{"ha":1264,"x_min":285,"x_max":979,"o":"m 669 413 l 979 -36 l 756 -36 l 547 289 l 460 192 l 460 -36 l 285 -36 l 285 1014 l 460 1014 l 460 406 l 746 729 l 967 729 l 669 413 z "},"ｌ":{"ha":1264,"x_min":544,"x_max":719,"o":"m 544 1014 l 719 1014 l 719 -36 l 544 -36 l 544 1014 z "},"ｍ":{"ha":1264,"x_min":90,"x_max":1174,"o":"m 910 746 q 1010 728 963 746 q 1094 674 1058 710 q 1152 583 1131 638 q 1174 457 1174 529 l 1174 -36 l 999 -36 l 999 421 q 988 506 999 472 q 957 558 976 539 q 913 583 938 576 q 860 590 888 590 q 809 583 835 590 q 764 556 783 575 q 732 506 744 538 q 719 426 719 474 l 719 -36 l 544 -36 l 544 424 q 533 504 544 472 q 503 556 522 536 q 460 583 485 575 q 406 590 435 590 q 304 551 343 590 q 265 433 265 513 l 265 -36 l 90 -36 l 90 729 l 256 729 l 256 632 l 258 632 q 340 715 286 685 q 468 746 393 746 q 595 714 539 746 q 672 629 651 682 q 767 717 713 688 q 910 746 822 746 z "},"ｎ":{"ha":1264,"x_min":301,"x_max":963,"o":"m 696 746 q 795 731 747 746 q 881 681 843 715 q 940 593 918 647 q 963 463 963 539 l 963 -36 l 788 -36 l 788 425 q 642 593 788 593 q 592 587 621 593 q 538 562 564 581 q 494 508 513 543 q 476 417 476 474 l 476 -36 l 301 -36 l 301 729 l 467 729 l 467 642 l 469 642 q 569 723 510 700 q 696 746 628 746 z "},"ｏ":{"ha":1264,"x_min":274,"x_max":990,"o":"m 632 106 q 704 117 671 106 q 762 151 738 128 q 800 214 786 175 q 814 307 814 253 l 814 392 q 765 547 814 501 q 632 593 715 593 q 499 547 549 593 q 450 392 450 501 l 450 307 q 464 214 450 253 q 502 151 478 175 q 560 117 526 128 q 632 106 593 106 m 632 -47 q 484 -24 550 -47 q 372 44 418 0 q 299 155 325 89 q 274 304 274 221 l 274 394 q 299 544 274 479 q 372 654 325 610 q 484 722 418 699 q 632 746 550 746 q 779 722 713 746 q 892 654 846 699 q 965 544 939 610 q 990 394 990 479 l 990 304 q 965 155 990 221 q 892 44 939 89 q 779 -24 846 0 q 632 -47 713 -47 z "},"ｐ":{"ha":1264,"x_min":290,"x_max":974,"o":"m 665 -47 q 546 -23 596 -47 q 465 42 496 1 l 465 -333 l 290 -333 l 290 729 l 458 729 l 458 646 q 504 694 478 675 q 559 725 531 714 q 617 741 588 736 q 674 746 647 746 q 805 722 749 746 q 899 656 861 699 q 955 553 936 614 q 974 419 974 493 l 974 285 q 952 146 974 207 q 890 42 931 85 q 793 -24 850 -1 q 665 -47 736 -47 m 800 392 q 763 542 800 489 q 640 596 725 596 q 508 545 553 596 q 463 415 463 494 l 463 253 q 476 199 463 226 q 514 151 490 172 q 571 115 538 129 q 644 101 604 101 q 760 155 721 101 q 800 304 800 208 l 800 392 z "},"ｑ":{"ha":1264,"x_min":290,"x_max":972,"o":"m 800 53 l 796 53 q 709 -25 765 -3 q 583 -47 653 -47 q 363 38 436 -47 q 290 279 290 124 l 290 414 q 312 553 290 492 q 374 658 333 615 q 470 723 414 700 q 596 746 526 746 q 673 738 639 746 q 732 717 707 729 q 774 691 757 706 q 800 664 790 676 l 803 664 l 803 729 l 972 729 l 972 -333 l 800 -333 l 800 53 m 463 306 q 502 155 463 208 q 618 101 542 101 q 695 116 661 101 q 752 156 729 131 q 788 216 775 182 q 800 289 800 250 l 800 444 q 790 498 800 471 q 758 547 779 525 q 703 582 736 568 q 625 596 671 596 q 502 542 542 596 q 463 392 463 488 l 463 306 z "},"ｒ":{"ha":1264,"x_min":385,"x_max":878,"o":"m 828 572 q 786 585 808 581 q 731 589 764 589 q 663 576 694 589 q 609 541 632 564 q 573 487 586 518 q 560 418 560 456 l 560 -36 l 385 -36 l 385 735 l 553 735 l 553 618 l 556 618 q 637 711 586 676 q 769 746 688 746 q 828 742 799 746 q 878 731 857 738 l 828 572 z "},"ｓ":{"ha":1264,"x_min":318,"x_max":944,"o":"m 636 101 q 731 117 696 101 q 767 178 767 133 l 767 186 q 762 219 767 206 q 740 242 757 232 q 692 260 724 251 q 607 279 661 268 q 488 312 538 293 q 408 358 439 331 q 362 425 376 386 q 347 518 347 464 l 347 532 q 363 609 347 571 q 415 678 379 647 q 506 727 450 708 q 643 746 563 746 q 784 733 710 746 q 925 676 858 721 l 850 550 q 763 588 811 576 q 665 599 715 599 q 553 580 583 599 q 522 531 522 561 l 522 522 q 528 489 522 501 q 549 467 533 476 q 592 451 564 458 q 664 436 619 444 q 790 404 736 421 q 877 360 843 388 q 928 292 911 333 q 944 190 944 251 l 944 175 q 924 90 944 131 q 865 19 904 50 q 769 -29 826 -11 q 640 -47 713 -47 q 459 -22 544 -47 q 318 47 374 3 l 396 181 q 506 124 447 146 q 636 101 564 101 z "},"ｔ":{"ha":1264,"x_min":378,"x_max":886,"o":"m 500 585 l 378 585 l 378 729 l 500 729 l 500 925 l 675 925 l 675 729 l 868 729 l 868 585 l 675 585 l 675 182 q 695 118 675 133 q 750 103 715 103 q 802 108 776 103 q 858 125 828 113 l 886 -15 q 822 -37 863 -26 q 729 -47 781 -47 q 619 -32 664 -47 q 549 13 575 -17 q 511 84 522 42 q 500 181 500 126 l 500 585 z "},"ｕ":{"ha":1264,"x_min":303,"x_max":960,"o":"m 568 -49 q 375 23 447 -49 q 303 235 303 94 l 303 729 l 478 729 l 478 272 q 489 190 478 222 q 519 138 500 157 q 565 112 539 119 q 622 104 592 104 q 677 113 649 104 q 729 142 706 121 q 769 197 753 163 q 785 283 785 232 l 785 729 l 960 729 l 960 -36 l 793 -36 l 793 56 l 790 56 q 749 8 774 28 q 694 -24 724 -11 q 631 -42 664 -36 q 568 -49 599 -49 z "},"ｖ":{"ha":1264,"x_min":268,"x_max":996,"o":"m 518 -36 l 268 731 l 460 731 l 633 128 l 639 128 l 814 731 l 996 731 l 746 -36 l 518 -36 z "},"ｗ":{"ha":1264,"x_min":110,"x_max":1154,"o":"m 300 -36 l 110 729 l 297 729 l 410 136 l 415 136 l 554 729 l 719 729 l 851 136 l 857 136 l 979 729 l 1154 729 l 965 -36 l 761 -36 l 636 503 l 631 503 l 504 -36 l 300 -36 z "},"ｘ":{"ha":1264,"x_min":276,"x_max":986,"o":"m 744 361 l 986 -36 l 778 -36 l 626 243 l 474 -36 l 276 -36 l 524 361 l 286 729 l 496 729 l 639 474 l 786 729 l 979 729 l 744 361 z "},"ｙ":{"ha":1264,"x_min":264,"x_max":999,"o":"m 458 729 l 632 164 l 638 164 l 813 729 l 999 729 l 601 -354 l 438 -297 l 536 -46 l 264 729 l 458 729 z "},"ｚ":{"ha":1264,"x_min":318,"x_max":946,"o":"m 924 590 l 549 117 l 946 117 l 946 -36 l 318 -36 l 318 83 l 710 576 l 346 576 l 346 729 l 924 729 l 924 590 z "},"｛":{"ha":1264,"x_min":657,"x_max":1206,"o":"m 657 500 q 769 524 733 501 q 804 607 804 547 l 804 854 q 867 1010 804 957 q 1038 1064 931 1064 l 1206 1064 l 1206 910 l 1069 910 q 1023 903 1040 910 q 997 881 1006 896 q 985 842 988 867 q 983 782 983 817 l 983 597 q 978 546 983 572 q 958 496 972 519 q 921 453 944 472 q 861 426 897 435 q 919 401 896 418 q 958 360 943 383 q 978 309 972 336 q 983 256 983 282 l 983 35 q 986 -24 983 -1 q 998 -59 989 -46 q 1024 -77 1007 -72 q 1069 -82 1040 -82 l 1206 -82 l 1206 -236 l 1038 -236 q 867 -187 931 -236 q 804 -37 804 -139 l 804 244 q 769 329 804 306 q 657 354 733 353 l 657 500 z "},"｜":{"ha":1264,"x_min":544,"x_max":721,"o":"m 721 -236 l 544 -236 l 544 1063 l 721 1063 l 721 -236 z "},"｝":{"ha":1264,"x_min":58,"x_max":607,"o":"m 607 354 q 495 329 531 353 q 460 244 460 306 l 460 -37 q 397 -187 460 -139 q 226 -236 333 -236 l 58 -236 l 58 -82 l 194 -82 q 240 -77 224 -82 q 266 -59 257 -72 q 278 -24 275 -46 q 281 35 281 -1 l 281 256 q 286 309 281 282 q 306 360 292 336 q 344 401 321 383 q 403 426 367 418 q 343 453 367 435 q 306 496 319 472 q 286 546 292 519 q 281 597 281 572 l 281 782 q 278 842 281 817 q 267 881 276 867 q 241 903 258 896 q 194 910 224 910 l 58 910 l 58 1064 l 226 1064 q 397 1010 333 1064 q 460 854 460 957 l 460 607 q 495 524 460 547 q 607 500 531 501 l 607 354 z "},"‾":{"ha":1264,"x_min":7,"x_max":1257,"o":"m 1257 1004 l 7 1004 l 7 1058 l 1257 1058 l 1257 1004 z "},"ㄱ":{"ha":1264,"x_min":192,"x_max":1031,"o":"m 856 78 l 856 615 l 192 615 l 192 764 l 1031 764 l 1031 78 l 856 78 z "},"ㄲ":{"ha":1264,"x_min":138,"x_max":1090,"o":"m 421 78 l 421 615 l 138 615 l 138 764 l 596 764 l 596 78 l 421 78 m 915 78 l 915 615 l 649 615 l 649 764 l 1090 764 l 1090 78 l 915 78 z "},"ㄳ":{"ha":1264,"x_min":167,"x_max":1222,"o":"m 418 78 l 418 610 l 167 610 l 167 758 l 593 758 l 593 78 l 418 78 m 913 297 q 895 267 907 286 q 861 221 883 249 q 794 140 831 182 q 714 51 758 99 l 600 161 q 685 256 647 211 q 764 356 724 300 q 793 401 782 379 q 811 445 804 422 q 821 494 818 468 q 824 556 824 521 l 824 771 l 999 771 l 999 556 q 1001 494 999 521 q 1011 445 1004 468 q 1029 401 1018 422 q 1058 356 1040 379 q 1137 256 1099 300 q 1222 161 1175 211 l 1111 54 q 1031 142 1067 101 q 965 222 996 183 q 931 268 943 250 q 914 297 919 286 l 913 297 z "},"ㄴ":{"ha":1264,"x_min":233,"x_max":1058,"o":"m 408 774 l 408 226 l 1058 226 l 1058 78 l 233 78 l 233 774 l 408 774 z "},"ㄵ":{"ha":1264,"x_min":186,"x_max":1150,"o":"m 361 213 q 463 216 410 213 q 567 226 515 219 l 572 172 q 640 256 610 217 q 700 339 671 296 q 733 394 721 369 q 753 442 746 418 q 763 492 761 465 q 765 551 765 518 l 765 621 l 599 621 l 599 769 l 1104 769 l 1104 621 l 939 621 l 939 551 q 942 492 939 518 q 951 442 944 465 q 971 394 958 418 q 1004 339 983 369 q 1071 248 1036 293 q 1150 151 1106 203 l 1031 53 q 963 135 994 93 q 906 214 931 178 q 869 272 878 254 q 856 300 860 289 l 854 300 q 840 270 850 289 q 801 211 829 251 q 744 133 776 175 q 676 50 713 90 l 576 132 l 582 82 q 469 69 533 74 q 336 65 406 65 l 186 65 l 186 761 l 361 761 l 361 213 z "},"ㄶ":{"ha":1264,"x_min":186,"x_max":1121,"o":"m 357 213 q 466 216 414 213 q 581 226 518 219 l 596 82 q 483 69 547 74 q 350 65 419 65 l 186 65 l 186 761 l 357 761 l 357 213 m 935 694 l 1121 694 l 1121 560 l 576 560 l 576 694 l 768 694 l 768 804 l 935 804 l 935 694 m 851 40 q 749 58 793 40 q 674 103 704 75 q 630 169 644 132 q 615 247 615 207 l 615 311 q 630 389 615 351 q 674 455 644 426 q 749 501 704 483 q 851 518 793 518 q 954 501 910 518 q 1028 455 999 483 q 1073 389 1058 426 q 1088 311 1088 351 l 1088 247 q 1073 169 1088 207 q 1028 103 1058 132 q 954 58 999 75 q 851 40 910 40 m 851 390 q 811 381 828 390 q 783 358 794 372 q 767 328 772 344 q 761 294 761 311 l 761 264 q 767 231 761 247 q 783 200 772 214 q 811 177 794 186 q 851 168 828 168 q 892 177 875 168 q 919 200 908 186 q 936 231 931 214 q 942 264 942 247 l 942 294 q 936 328 942 311 q 919 358 931 344 q 892 381 908 372 q 851 390 875 390 z "},"ㄷ":{"ha":1264,"x_min":219,"x_max":1056,"o":"m 219 75 l 219 767 l 1047 767 l 1047 618 l 394 618 l 394 224 l 1056 224 l 1056 75 l 219 75 z "},"ㄸ":{"ha":1264,"x_min":199,"x_max":1094,"o":"m 665 75 l 665 767 l 1090 767 l 1090 618 l 840 618 l 840 224 l 1094 224 l 1094 75 l 665 75 m 199 75 l 199 767 l 600 767 l 600 618 l 374 618 l 374 224 l 604 224 l 604 75 l 199 75 z "},"ㄹ":{"ha":1264,"x_min":211,"x_max":1071,"o":"m 211 64 l 211 494 l 879 494 l 879 633 l 211 633 l 211 781 l 1053 781 l 1053 350 l 385 350 l 385 211 l 1071 211 l 1071 64 l 211 64 z "},"ㄺ":{"ha":1264,"x_min":183,"x_max":1110,"o":"m 935 75 l 935 621 l 674 621 l 674 769 l 1110 769 l 1110 75 l 935 75 m 183 75 l 183 494 l 451 494 l 451 622 l 183 622 l 183 769 l 615 769 l 615 350 l 347 350 l 347 222 l 640 222 l 640 75 l 183 75 z "},"ㄻ":{"ha":1264,"x_min":169,"x_max":1108,"o":"m 169 75 l 169 494 l 425 494 l 425 622 l 169 622 l 169 769 l 586 769 l 586 350 l 331 350 l 331 222 l 604 222 l 604 75 l 169 75 m 950 621 l 817 621 l 817 224 l 950 224 l 950 621 m 658 75 l 658 769 l 1108 769 l 1108 75 l 658 75 z "},"ㄼ":{"ha":1264,"x_min":169,"x_max":1108,"o":"m 950 401 l 817 401 l 817 224 l 950 224 l 950 401 m 658 75 l 658 769 l 817 769 l 817 549 l 950 549 l 950 769 l 1108 769 l 1108 75 l 658 75 m 169 75 l 169 494 l 425 494 l 425 622 l 169 622 l 169 769 l 586 769 l 586 350 l 331 350 l 331 222 l 604 222 l 604 75 l 169 75 z "},"ㄽ":{"ha":1264,"x_min":169,"x_max":1199,"o":"m 169 75 l 169 494 l 422 494 l 422 622 l 169 622 l 169 769 l 586 769 l 586 350 l 333 350 l 333 222 l 604 222 l 604 190 q 673 269 640 231 q 740 356 706 308 q 769 401 758 379 q 788 445 781 422 q 797 494 794 468 q 800 556 800 521 l 800 771 l 975 771 l 975 556 q 978 494 975 521 q 988 445 981 468 q 1006 401 994 422 q 1035 356 1017 379 q 1113 256 1075 300 q 1199 161 1151 211 l 1088 54 q 1008 142 1043 101 q 942 222 972 183 q 908 268 919 250 q 890 297 896 286 l 889 297 q 872 267 883 286 q 838 221 860 249 q 771 140 807 182 q 690 51 735 99 l 604 133 l 604 75 l 169 75 z "},"ㄾ":{"ha":1264,"x_min":169,"x_max":1093,"o":"m 658 75 l 658 769 l 1086 769 l 1086 622 l 821 622 l 821 494 l 1072 494 l 1072 350 l 821 350 l 821 222 l 1093 222 l 1093 75 l 658 75 m 169 75 l 169 494 l 425 494 l 425 622 l 169 622 l 169 769 l 586 769 l 586 350 l 331 350 l 331 222 l 604 222 l 604 75 l 169 75 z "},"ㄿ":{"ha":1264,"x_min":164,"x_max":1110,"o":"m 1110 75 l 629 75 l 629 221 l 689 221 l 689 624 l 636 624 l 636 769 l 1103 769 l 1103 624 l 1050 624 l 1050 221 l 1110 221 l 1110 75 m 164 75 l 164 494 l 417 494 l 417 622 l 164 622 l 164 769 l 575 769 l 575 350 l 322 350 l 322 222 l 593 222 l 593 75 l 164 75 m 838 221 l 901 221 l 901 624 l 838 624 l 838 221 z "},"ㅀ":{"ha":1264,"x_min":157,"x_max":1133,"o":"m 157 75 l 157 494 l 399 494 l 399 622 l 157 622 l 157 769 l 560 769 l 560 350 l 318 350 l 318 222 l 578 222 l 578 75 l 157 75 m 951 694 l 1133 694 l 1133 560 l 603 560 l 603 694 l 785 694 l 785 804 l 951 804 l 951 694 m 868 40 q 765 58 810 40 q 691 103 721 75 q 647 169 661 132 q 632 247 632 207 l 632 311 q 647 389 632 351 q 691 455 661 426 q 765 501 721 483 q 868 518 810 518 q 971 501 926 518 q 1045 455 1015 483 q 1090 389 1075 426 q 1104 311 1104 351 l 1104 247 q 1090 169 1104 207 q 1045 103 1075 132 q 971 58 1015 75 q 868 40 926 40 m 868 390 q 828 381 844 390 q 800 358 811 372 q 783 328 789 344 q 778 294 778 311 l 778 264 q 783 231 778 247 q 800 200 789 214 q 828 177 811 186 q 868 168 844 168 q 908 177 892 168 q 936 200 925 186 q 953 231 947 214 q 958 264 958 247 l 958 294 q 953 328 958 311 q 936 358 947 344 q 908 381 925 372 q 868 390 892 390 z "},"ㅁ":{"ha":1264,"x_min":213,"x_max":1051,"o":"m 876 621 l 388 621 l 388 224 l 876 224 l 876 621 m 213 75 l 213 769 l 1051 769 l 1051 75 l 213 75 z "},"ㅂ":{"ha":1264,"x_min":213,"x_max":1051,"o":"m 876 401 l 388 401 l 388 222 l 876 222 l 876 401 m 213 74 l 213 778 l 388 778 l 388 550 l 876 550 l 876 778 l 1051 778 l 1051 74 l 213 74 z "},"ㅃ":{"ha":1264,"x_min":171,"x_max":1093,"o":"m 599 74 l 171 74 l 171 778 l 326 778 l 326 550 l 443 550 l 443 778 l 599 778 l 599 74 m 1093 74 l 665 74 l 665 778 l 821 778 l 821 550 l 938 550 l 938 778 l 1093 778 l 1093 74 m 821 219 l 938 219 l 938 403 l 821 403 l 821 219 m 326 219 l 443 219 l 443 403 l 326 403 l 326 219 z "},"ㅄ":{"ha":1264,"x_min":158,"x_max":1199,"o":"m 889 297 q 872 267 883 286 q 838 221 860 249 q 771 140 807 182 q 690 51 735 99 l 600 138 l 600 74 l 158 74 l 158 778 l 314 778 l 314 550 l 444 550 l 444 778 l 600 778 l 600 186 q 672 267 639 228 q 740 356 704 307 q 769 401 758 379 q 788 445 781 422 q 797 494 794 468 q 800 556 800 521 l 800 778 l 975 778 l 975 556 q 978 494 975 521 q 988 445 981 468 q 1006 401 994 422 q 1035 356 1017 379 q 1113 256 1075 300 q 1199 161 1151 211 l 1088 54 q 1008 142 1043 101 q 942 222 972 183 q 908 268 919 250 q 890 297 896 286 l 889 297 m 314 219 l 444 219 l 444 403 l 314 403 l 314 219 z "},"ㅅ":{"ha":1264,"x_min":147,"x_max":1117,"o":"m 721 624 q 726 549 721 582 q 747 487 732 515 q 788 431 761 458 q 856 371 814 403 q 982 280 918 324 q 1117 192 1046 236 l 1025 61 q 884 154 953 107 q 758 244 815 201 q 678 310 713 279 q 636 356 643 340 l 635 356 q 592 308 629 340 q 508 240 554 275 q 383 150 451 197 q 242 57 314 103 l 147 192 q 282 280 218 236 q 408 371 346 324 q 476 431 450 403 q 517 487 503 458 q 538 549 532 515 q 543 624 543 582 l 543 789 l 721 789 l 721 624 z "},"ㅆ":{"ha":1264,"x_min":56,"x_max":1208,"o":"m 953 794 l 953 567 q 956 499 953 529 q 970 441 960 468 q 998 387 981 414 q 1044 328 1015 360 q 1119 251 1072 296 q 1208 167 1165 207 l 1104 54 q 1022 129 1061 92 q 951 199 983 167 q 902 251 924 226 q 869 293 881 275 l 868 293 q 834 251 858 278 q 782 196 810 224 q 708 124 749 163 q 632 53 668 85 q 556 124 596 86 q 482 196 515 163 q 430 251 454 224 q 396 293 406 278 l 394 293 q 362 251 383 275 q 313 199 340 226 q 242 129 281 167 q 160 54 203 92 l 56 167 q 145 251 99 207 q 219 328 192 296 q 266 387 249 360 q 294 441 283 414 q 308 499 304 468 q 311 567 311 529 l 311 794 l 479 794 l 479 567 q 481 497 479 525 q 488 447 482 469 q 508 402 494 424 q 546 353 522 381 q 583 311 561 333 q 632 260 604 289 q 681 311 660 289 q 718 353 703 333 q 756 402 742 381 q 776 447 769 424 q 783 497 782 469 q 785 567 785 525 l 785 794 l 953 794 z "},"ㅇ":{"ha":1264,"x_min":214,"x_max":1050,"o":"m 632 65 q 463 90 540 65 q 331 159 386 115 q 245 264 276 203 q 214 396 214 325 l 214 457 q 245 589 214 528 q 331 694 276 650 q 463 763 386 738 q 632 788 540 788 q 801 763 724 788 q 933 694 878 738 q 1019 589 988 650 q 1050 457 1050 528 l 1050 396 q 1019 264 1050 325 q 933 159 988 203 q 801 90 878 115 q 632 65 724 65 m 632 635 q 531 619 576 635 q 454 579 486 604 q 405 521 422 554 q 388 453 388 488 l 388 400 q 405 331 388 364 q 454 274 422 299 q 531 233 486 249 q 632 218 576 218 q 733 233 688 218 q 810 274 778 249 q 859 331 842 299 q 876 400 876 364 l 876 453 q 859 521 876 488 q 810 579 842 554 q 733 619 778 604 q 632 635 688 635 z "},"ㅈ":{"ha":1264,"x_min":147,"x_max":1117,"o":"m 201 779 l 1063 779 l 1063 625 l 721 625 l 721 606 q 726 533 721 564 q 744 474 731 501 q 785 419 758 446 q 853 363 811 393 q 981 276 918 317 q 1117 190 1043 235 l 1029 57 q 886 147 956 101 q 758 235 817 193 q 676 299 711 267 q 636 342 642 331 l 635 342 q 599 301 631 331 q 508 231 567 271 q 381 143 450 189 q 238 53 311 97 l 147 190 q 283 276 221 235 q 411 363 346 317 q 479 419 453 393 q 519 474 506 446 q 538 533 533 501 q 543 606 543 564 l 543 625 l 201 625 l 201 779 z "},"ㅉ":{"ha":1264,"x_min":86,"x_max":1178,"o":"m 163 779 l 1101 779 l 1101 626 l 933 626 l 933 565 q 937 500 933 529 q 950 444 940 471 q 978 390 960 417 q 1024 331 996 363 q 1089 264 1051 300 q 1178 181 1126 228 l 1075 69 q 1010 129 1040 100 q 953 185 979 158 q 888 252 914 224 q 856 294 863 281 l 854 294 q 822 253 847 281 q 769 199 796 225 q 700 131 736 165 q 632 67 664 97 q 564 131 600 97 q 494 199 528 165 q 442 253 468 225 q 410 294 417 281 l 408 294 q 376 252 401 281 q 311 185 350 224 q 254 129 285 158 q 189 69 224 100 l 86 181 q 175 264 138 228 q 240 331 213 300 q 286 390 268 363 q 314 444 304 417 q 327 500 324 471 q 331 565 331 529 l 331 626 l 163 626 l 163 779 m 692 333 q 733 383 717 361 q 758 431 749 406 q 770 487 767 456 q 774 565 774 518 l 774 626 l 490 626 l 490 565 q 494 487 490 518 q 506 431 497 456 q 531 383 515 406 q 572 333 547 361 q 632 274 597 306 q 692 333 667 306 z "},"ㅊ":{"ha":1264,"x_min":147,"x_max":1117,"o":"m 543 733 l 543 885 l 721 885 l 721 733 l 1081 733 l 1081 581 l 721 581 q 726 509 721 540 q 747 452 732 478 q 785 403 761 426 q 847 356 810 381 q 978 272 914 311 q 1117 193 1042 233 l 1035 57 q 889 142 960 100 q 758 225 818 185 q 675 285 710 257 q 636 325 640 314 l 635 325 q 622 308 632 319 q 594 283 611 297 q 555 252 576 268 q 508 221 533 236 q 378 138 449 181 q 232 53 307 96 l 147 193 q 286 272 222 233 q 417 356 350 311 q 478 404 454 381 q 517 453 503 428 q 538 510 532 479 q 543 581 543 540 l 183 581 l 183 733 l 543 733 z "},"ㅋ":{"ha":1264,"x_min":182,"x_max":1049,"o":"m 875 67 l 875 311 l 188 301 l 182 449 l 875 458 l 875 632 l 210 632 l 210 779 l 1049 779 l 1049 67 l 875 67 z "},"ㅌ":{"ha":1264,"x_min":221,"x_max":1076,"o":"m 1076 72 l 221 72 l 221 769 l 1065 769 l 1065 622 l 394 622 l 394 493 l 1050 493 l 1050 349 l 394 349 l 394 219 l 1076 219 l 1076 72 z "},"ㅍ":{"ha":1264,"x_min":171,"x_max":1093,"o":"m 185 767 l 1079 767 l 1079 619 l 922 619 l 922 221 l 1093 221 l 1093 74 l 171 74 l 171 221 l 342 221 l 342 619 l 185 619 l 185 767 m 514 221 l 750 221 l 750 619 l 514 619 l 514 221 z "},"ㅎ":{"ha":1264,"x_min":183,"x_max":1081,"o":"m 721 736 l 1081 736 l 1081 589 l 183 589 l 183 736 l 543 736 l 543 885 l 721 885 l 721 736 m 632 10 q 478 25 547 10 q 359 71 408 40 q 283 145 310 101 q 256 246 256 189 l 256 301 q 283 402 256 358 q 359 476 310 446 q 478 522 408 507 q 632 538 547 538 q 786 522 717 538 q 905 476 856 507 q 981 402 954 446 q 1008 301 1008 358 l 1008 246 q 981 145 1008 189 q 905 71 954 101 q 786 25 856 40 q 632 10 717 10 m 632 396 q 476 367 529 396 q 422 289 422 338 l 422 258 q 476 181 422 210 q 632 151 529 151 q 788 181 735 151 q 842 258 842 210 l 842 289 q 788 367 842 338 q 632 396 735 396 z "},"ㅏ":{"ha":1264,"x_min":517,"x_max":944,"o":"m 693 585 l 944 585 l 944 432 l 693 432 l 693 -200 l 517 -200 l 517 1092 l 693 1092 l 693 585 z "},"ㅐ":{"ha":1264,"x_min":393,"x_max":868,"o":"m 868 -200 l 700 -200 l 700 433 l 561 433 l 561 -137 l 393 -137 l 393 1065 l 561 1065 l 561 585 l 700 585 l 700 1092 l 868 1092 l 868 -200 z "},"ㅑ":{"ha":1264,"x_min":517,"x_max":933,"o":"m 692 735 l 933 735 l 933 585 l 692 585 l 692 424 l 933 424 l 933 274 l 692 274 l 692 -200 l 517 -200 l 517 1092 l 692 1092 l 692 735 z "},"ㅒ":{"ha":1264,"x_min":393,"x_max":868,"o":"m 557 749 l 704 749 l 704 1092 l 868 1092 l 868 -200 l 704 -200 l 704 260 l 557 260 l 557 -137 l 393 -137 l 393 1065 l 557 1065 l 557 749 m 557 407 l 704 407 l 704 601 l 557 601 l 557 407 z "},"ㅓ":{"ha":1264,"x_min":404,"x_max":832,"o":"m 656 1092 l 832 1092 l 832 -200 l 656 -200 l 656 432 l 404 432 l 404 585 l 656 585 l 656 1092 z "},"ㅔ":{"ha":1264,"x_min":315,"x_max":947,"o":"m 506 436 l 315 436 l 315 588 l 506 588 l 506 1065 l 672 1065 l 672 -137 l 506 -137 l 506 436 m 947 -200 l 781 -200 l 781 1092 l 947 1092 l 947 -200 z "},"ㅕ":{"ha":1264,"x_min":415,"x_max":832,"o":"m 657 1092 l 832 1092 l 832 -200 l 657 -200 l 657 274 l 415 274 l 415 424 l 657 424 l 657 585 l 415 585 l 415 735 l 657 735 l 657 1092 z "},"ㅖ":{"ha":1264,"x_min":315,"x_max":947,"o":"m 506 275 l 315 275 l 315 425 l 506 425 l 506 586 l 315 586 l 315 736 l 506 736 l 506 1065 l 672 1065 l 672 -137 l 506 -137 l 506 275 m 947 -200 l 781 -200 l 781 1092 l 947 1092 l 947 -200 z "},"ㅗ":{"ha":1264,"x_min":40,"x_max":1224,"o":"m 721 222 l 1224 222 l 1224 74 l 40 74 l 40 222 l 544 222 l 544 686 l 721 686 l 721 222 z "},"ㅘ":{"ha":1264,"x_min":44,"x_max":1260,"o":"m 1081 617 l 1260 617 l 1260 464 l 1081 464 l 1081 -200 l 907 -200 l 907 1092 l 1081 1092 l 1081 617 m 44 210 q 205 210 128 210 q 353 211 282 210 l 353 576 l 526 576 l 526 215 q 703 222 625 218 q 843 233 782 226 l 856 88 q 726 75 800 81 q 555 66 653 69 q 331 60 457 63 q 44 58 206 58 l 44 210 z "},"ㅙ":{"ha":1264,"x_min":60,"x_max":1204,"o":"m 946 606 l 1036 606 l 1036 1092 l 1204 1092 l 1204 -200 l 1036 -200 l 1036 454 l 946 454 l 946 -165 l 778 -165 l 778 1069 l 946 1069 l 946 606 m 733 108 q 592 97 665 101 q 437 90 519 93 q 261 87 354 88 q 60 86 168 86 l 60 233 l 304 233 l 304 574 l 476 574 l 476 238 q 595 242 535 240 q 726 250 656 244 l 733 108 z "},"ㅚ":{"ha":1264,"x_min":67,"x_max":1129,"o":"m 1129 -200 l 956 -200 l 956 1092 l 1129 1092 l 1129 -200 m 67 210 q 231 210 153 210 q 381 211 310 210 l 381 576 l 554 576 l 554 214 q 745 222 661 217 q 892 233 829 226 l 904 88 q 774 75 849 81 q 599 66 700 69 q 367 60 499 63 q 67 58 236 58 l 67 210 z "},"ㅛ":{"ha":1264,"x_min":40,"x_max":1224,"o":"m 915 686 l 915 221 l 1224 221 l 1224 74 l 40 74 l 40 221 l 349 221 l 349 686 l 522 686 l 522 221 l 742 221 l 742 686 l 915 686 z "},"ㅜ":{"ha":1264,"x_min":40,"x_max":1224,"o":"m 1224 463 l 1224 314 l 721 314 l 721 -146 l 544 -146 l 544 314 l 40 314 l 40 463 l 1224 463 z "},"ㅝ":{"ha":1264,"x_min":69,"x_max":1131,"o":"m 957 224 l 957 1092 l 1131 1092 l 1131 -200 l 957 -200 l 957 76 l 701 76 l 701 224 l 957 224 m 69 471 q 559 476 353 471 q 892 494 765 482 l 904 351 q 756 337 842 343 q 550 328 671 331 l 550 -162 l 376 -162 l 376 324 q 233 322 308 322 q 69 322 157 322 l 69 471 z "},"ㅞ":{"ha":1264,"x_min":42,"x_max":1181,"o":"m 761 243 l 761 1069 l 929 1069 l 929 -165 l 761 -165 l 761 99 l 561 99 l 561 243 l 761 243 m 1181 -200 l 1013 -200 l 1013 1092 l 1181 1092 l 1181 -200 m 715 324 q 596 313 657 317 q 467 307 535 310 l 467 -118 l 299 -118 l 299 303 q 176 301 239 301 q 42 301 113 301 l 42 449 q 210 449 131 449 q 367 451 289 449 q 528 456 446 453 q 708 465 611 458 l 715 324 z "},"ㅟ":{"ha":1264,"x_min":69,"x_max":1131,"o":"m 1131 -200 l 957 -200 l 957 1092 l 1131 1092 l 1131 -200 m 69 411 q 559 417 353 411 q 892 435 765 422 l 904 290 q 759 276 842 282 q 560 267 676 271 l 560 -162 l 386 -162 l 386 263 q 238 261 317 261 q 69 261 160 261 l 69 411 z "},"ㅠ":{"ha":1264,"x_min":40,"x_max":1224,"o":"m 1224 463 l 1224 315 l 915 315 l 915 -146 l 742 -146 l 742 315 l 522 315 l 522 -146 l 349 -146 l 349 315 l 40 315 l 40 463 l 1224 463 z "},"ㅡ":{"ha":1264,"x_min":40,"x_max":1224,"o":"m 1224 264 l 1224 115 l 40 115 l 40 264 l 1224 264 z "},"ㅢ":{"ha":1264,"x_min":67,"x_max":1129,"o":"m 1129 -200 l 956 -200 l 956 1092 l 1129 1092 l 1129 -200 m 67 253 q 565 258 361 253 q 892 276 769 264 l 904 131 q 774 118 849 124 q 599 109 700 113 q 367 103 499 106 q 67 101 236 101 l 67 253 z "},"ㅣ":{"ha":1264,"x_min":544,"x_max":721,"o":"m 721 -200 l 544 -200 l 544 1092 l 721 1092 l 721 -200 z "},"ㅥ":{"ha":1264,"x_min":185,"x_max":1076,"o":"m 647 75 l 647 767 l 822 767 l 822 224 l 1076 224 l 1076 75 l 647 75 m 185 75 l 185 767 l 360 767 l 360 224 l 586 224 l 586 75 l 185 75 z "},"ㅦ":{"ha":1264,"x_min":185,"x_max":1076,"o":"m 647 75 l 647 767 l 1072 767 l 1072 618 l 822 618 l 822 224 l 1076 224 l 1076 75 l 647 75 m 185 75 l 185 767 l 360 767 l 360 224 l 586 224 l 586 75 l 185 75 z "},"ㅧ":{"ha":1264,"x_min":122,"x_max":1140,"o":"m 122 75 l 122 767 l 297 767 l 297 224 l 524 224 l 524 167 q 605 258 568 215 q 682 356 642 301 q 711 401 700 379 q 729 445 722 422 q 739 494 736 468 q 742 556 742 521 l 742 771 l 917 771 l 917 556 q 919 494 917 521 q 929 445 922 468 q 947 401 936 422 q 976 356 958 379 q 1055 256 1017 300 q 1140 161 1093 211 l 1029 54 q 949 142 985 101 q 883 222 914 183 q 849 268 861 250 q 832 297 838 286 l 831 297 q 813 267 825 286 q 779 221 801 249 q 713 140 749 182 q 632 51 676 99 l 524 156 l 524 75 l 122 75 z "},"ㅨ":{"ha":1264,"x_min":153,"x_max":1094,"o":"m 153 75 l 153 767 l 328 767 l 328 224 l 554 224 l 554 75 l 153 75 m 907 218 l 840 447 l 774 218 l 907 218 m 1094 75 l 588 75 l 840 838 l 1094 75 z "},"ㅩ":{"ha":1264,"x_min":50,"x_max":1231,"o":"m 1044 539 q 1049 466 1044 499 q 1073 394 1054 433 q 1128 302 1092 356 q 1231 165 1165 249 l 1125 72 q 1015 215 1051 164 q 969 290 979 267 q 924 214 961 265 q 813 68 888 163 l 751 122 l 751 76 l 597 76 l 597 622 l 433 622 l 433 772 l 751 772 l 751 229 q 826 335 799 292 q 868 411 854 378 q 885 474 882 444 q 889 539 889 503 l 889 769 l 1044 769 l 1044 539 m 50 76 l 50 496 l 238 496 l 238 625 l 50 625 l 50 772 l 392 772 l 392 351 l 201 351 l 201 224 l 444 224 l 444 76 l 50 76 z "},"ㅪ":{"ha":1264,"x_min":179,"x_max":1097,"o":"m 179 75 l 179 494 l 435 494 l 435 622 l 179 622 l 179 769 l 596 769 l 596 350 l 340 350 l 340 222 l 614 222 l 614 75 l 179 75 m 668 75 l 668 769 l 1086 769 l 1086 621 l 843 621 l 843 224 l 1097 224 l 1097 75 l 668 75 z "},"ㅫ":{"ha":1264,"x_min":35,"x_max":1207,"o":"m 407 75 l 407 778 l 553 778 l 553 533 l 615 533 l 615 778 l 761 778 l 761 207 q 831 325 806 278 q 869 407 857 372 q 885 472 882 442 q 889 539 889 501 l 889 769 l 1044 769 l 1044 539 q 1049 467 1044 499 q 1069 394 1053 435 q 1117 299 1085 354 q 1207 154 1150 243 l 1093 69 q 1040 154 1061 118 q 1004 217 1018 190 q 982 260 990 243 q 969 290 974 278 q 958 260 965 278 q 937 216 950 242 q 901 153 924 190 q 846 67 879 117 l 761 128 l 761 75 l 407 75 m 35 75 l 35 496 l 211 496 l 211 625 l 35 625 l 35 772 l 360 772 l 360 351 l 181 351 l 181 222 l 375 222 l 375 75 l 35 75 m 615 388 l 553 388 l 553 219 l 615 219 l 615 388 z "},"ㅬ":{"ha":1264,"x_min":154,"x_max":1108,"o":"m 154 75 l 154 494 l 410 494 l 410 622 l 154 622 l 154 769 l 571 769 l 571 350 l 315 350 l 315 222 l 589 222 l 589 75 l 154 75 m 921 217 l 854 446 l 788 217 l 921 217 m 1108 74 l 601 74 l 854 836 l 1108 74 z "},"ㅭ":{"ha":1264,"x_min":157,"x_max":1107,"o":"m 157 75 l 157 494 l 413 494 l 413 622 l 157 622 l 157 769 l 574 769 l 574 350 l 318 350 l 318 222 l 606 222 l 606 75 l 157 75 m 1107 768 l 1107 619 l 629 619 l 629 768 l 1107 768 m 868 43 q 765 61 810 43 q 691 109 721 79 q 647 177 661 139 q 632 257 632 215 l 632 321 q 647 401 632 363 q 691 469 661 439 q 765 517 721 499 q 868 535 810 535 q 971 517 926 535 q 1045 469 1015 499 q 1090 401 1075 439 q 1104 321 1104 363 l 1104 257 q 1090 177 1104 215 q 1045 109 1075 139 q 971 61 1015 79 q 868 43 926 43 m 868 404 q 828 394 844 404 q 800 370 811 385 q 783 338 789 356 q 778 304 778 321 l 778 274 q 783 240 778 257 q 800 208 789 222 q 828 183 811 193 q 868 174 844 174 q 908 183 892 174 q 936 208 925 193 q 953 240 947 222 q 958 274 958 257 l 958 304 q 953 338 958 321 q 936 370 947 356 q 908 394 925 385 q 868 404 892 404 z "},"ㅮ":{"ha":1264,"x_min":171,"x_max":1093,"o":"m 1093 74 l 665 74 l 665 778 l 821 778 l 821 547 l 938 547 l 938 778 l 1093 778 l 1093 74 m 821 219 l 938 219 l 938 400 l 821 400 l 821 219 m 443 621 l 326 621 l 326 222 l 443 222 l 443 621 m 171 74 l 171 769 l 599 769 l 599 74 l 171 74 z "},"ㅯ":{"ha":1264,"x_min":124,"x_max":1164,"o":"m 124 74 l 124 769 l 565 769 l 565 186 q 637 267 604 228 q 706 356 669 307 q 735 401 724 379 q 753 445 746 422 q 763 494 760 468 q 765 556 765 521 l 765 771 l 940 771 l 940 556 q 943 494 940 521 q 953 445 946 468 q 971 401 960 422 q 1000 356 982 379 q 1078 256 1040 300 q 1164 161 1117 211 l 1053 54 q 973 142 1008 101 q 907 222 938 183 q 873 268 885 250 q 856 297 861 286 l 854 297 q 837 267 849 286 q 803 221 825 249 q 736 140 772 182 q 656 51 700 99 l 565 138 l 565 74 l 124 74 m 410 621 l 279 621 l 279 222 l 410 222 l 410 621 z "},"ㅰ":{"ha":1264,"x_min":142,"x_max":1106,"o":"m 428 621 l 297 621 l 297 222 l 428 222 l 428 621 m 142 74 l 142 769 l 583 769 l 583 74 l 142 74 m 918 217 l 851 446 l 785 217 l 918 217 m 1106 74 l 599 74 l 851 836 l 1106 74 z "},"ㅱ":{"ha":1264,"x_min":293,"x_max":969,"o":"m 293 396 l 293 933 l 969 933 l 969 396 l 293 396 m 456 538 l 807 538 l 807 792 l 456 792 l 456 538 m 885 117 q 868 51 885 83 q 819 -6 851 19 q 740 -47 788 -31 q 632 -62 693 -62 q 524 -47 571 -62 q 446 -6 478 -31 q 397 51 414 19 q 381 117 381 83 l 381 161 q 397 226 381 194 q 446 283 414 258 q 524 324 478 308 q 632 340 571 340 q 740 324 693 340 q 819 283 788 308 q 868 226 851 258 q 885 161 885 194 l 885 117 m 738 150 q 707 199 738 182 q 632 217 676 217 q 558 199 588 217 q 528 150 528 182 l 528 128 q 558 78 528 96 q 632 61 588 61 q 707 78 676 61 q 738 128 738 96 l 738 150 z "},"ㅲ":{"ha":1264,"x_min":171,"x_max":1096,"o":"m 621 74 l 171 74 l 171 778 l 326 778 l 326 547 l 465 547 l 465 778 l 621 778 l 621 74 m 326 219 l 465 219 l 465 400 l 326 400 l 326 219 m 921 75 l 921 621 l 688 621 l 688 769 l 1096 769 l 1096 75 l 921 75 z "},"ㅳ":{"ha":1264,"x_min":181,"x_max":1082,"o":"m 608 74 l 181 74 l 181 778 l 336 778 l 336 547 l 453 547 l 453 778 l 608 778 l 608 74 m 336 219 l 453 219 l 453 400 l 336 400 l 336 219 m 676 75 l 676 769 l 1068 769 l 1068 621 l 849 621 l 849 224 l 1082 224 l 1082 75 l 676 75 z "},"ㅴ":{"ha":1264,"x_min":96,"x_max":1164,"o":"m 96 75 l 96 769 l 242 769 l 242 531 l 321 531 l 321 769 l 467 769 l 467 240 q 537 340 511 300 q 576 413 563 381 q 592 474 589 446 q 596 539 596 503 l 596 769 l 751 769 l 751 539 q 756 466 751 499 q 780 394 761 433 q 835 302 799 356 q 938 165 872 249 l 832 72 q 722 215 758 164 q 676 290 686 267 q 631 214 668 265 q 519 68 594 163 l 467 114 l 467 75 l 96 75 m 1164 76 l 1010 76 l 1010 619 l 822 619 l 822 769 l 1164 769 l 1164 76 m 321 385 l 242 385 l 242 219 l 321 219 l 321 385 z "},"ㅵ":{"ha":1264,"x_min":92,"x_max":1156,"o":"m 92 75 l 92 769 l 238 769 l 238 531 l 300 531 l 300 769 l 446 769 l 446 218 q 512 331 488 286 q 549 410 536 375 q 564 474 561 444 q 567 539 567 503 l 567 769 l 722 769 l 722 539 q 726 472 722 501 q 742 407 729 442 q 779 326 754 372 q 849 210 804 281 l 849 769 l 1142 769 l 1142 621 l 1000 621 l 1000 224 l 1156 224 l 1156 75 l 849 75 l 849 126 l 771 69 q 717 154 739 118 q 682 217 696 190 q 660 260 668 243 q 647 290 651 278 q 635 260 643 278 q 615 216 628 242 q 579 153 601 190 q 524 67 557 117 l 446 122 l 446 75 l 92 75 m 300 385 l 238 385 l 238 219 l 300 219 l 300 385 z "},"ㅶ":{"ha":1264,"x_min":154,"x_max":1151,"o":"m 944 621 l 944 551 q 948 492 944 518 q 959 442 951 465 q 980 394 967 418 q 1013 339 993 369 q 1075 249 1043 293 q 1151 151 1107 204 l 1032 56 q 967 139 997 97 q 913 217 938 181 q 876 273 885 257 q 863 300 867 289 l 861 300 q 848 272 857 289 q 811 214 839 254 q 755 135 786 178 q 689 50 724 92 l 592 128 l 592 74 l 154 74 l 154 778 l 310 778 l 310 547 l 436 547 l 436 778 l 592 778 l 592 181 q 652 260 625 222 q 707 339 679 299 q 740 394 728 369 q 760 442 753 418 q 769 492 767 465 q 772 551 772 518 l 772 621 l 614 621 l 614 769 l 1111 769 l 1111 621 l 944 621 m 310 219 l 436 219 l 436 400 l 310 400 l 310 219 z "},"ㅷ":{"ha":1264,"x_min":181,"x_max":1075,"o":"m 608 74 l 181 74 l 181 778 l 336 778 l 336 547 l 453 547 l 453 778 l 608 778 l 608 74 m 676 75 l 676 769 l 1068 769 l 1068 622 l 839 622 l 839 494 l 1054 494 l 1054 350 l 839 350 l 839 222 l 1075 222 l 1075 75 l 676 75 m 336 219 l 453 219 l 453 400 l 336 400 l 336 219 z "},"ㅸ":{"ha":1264,"x_min":293,"x_max":969,"o":"m 808 663 l 454 663 l 454 546 l 808 546 l 808 663 m 293 406 l 293 943 l 454 943 l 454 803 l 808 803 l 808 943 l 969 943 l 969 406 l 293 406 m 885 117 q 868 51 885 83 q 819 -6 851 19 q 740 -47 788 -31 q 632 -62 693 -62 q 524 -47 571 -62 q 446 -6 478 -31 q 397 51 414 19 q 381 117 381 83 l 381 161 q 397 226 381 194 q 446 283 414 258 q 524 324 478 308 q 632 340 571 340 q 740 324 693 340 q 819 283 788 308 q 868 226 851 258 q 885 161 885 194 l 885 117 m 738 150 q 707 199 738 182 q 632 217 676 217 q 558 199 588 217 q 528 150 528 182 l 528 128 q 558 78 528 96 q 632 61 588 61 q 707 78 676 61 q 738 128 738 96 l 738 150 z "},"ㅹ":{"ha":1264,"x_min":243,"x_max":1022,"o":"m 243 401 l 243 921 l 385 921 l 385 778 l 469 778 l 469 921 l 608 921 l 608 401 l 243 401 m 469 642 l 385 642 l 385 536 l 469 536 l 469 642 m 657 401 l 657 921 l 799 921 l 799 778 l 881 778 l 881 921 l 1022 921 l 1022 401 l 657 401 m 881 642 l 799 642 l 799 536 l 881 536 l 881 642 m 885 117 q 868 51 885 83 q 819 -6 851 19 q 740 -47 788 -31 q 632 -62 693 -62 q 524 -47 571 -62 q 446 -6 478 -31 q 397 51 414 19 q 381 117 381 83 l 381 161 q 397 226 381 194 q 446 283 414 258 q 524 324 478 308 q 632 340 571 340 q 740 324 693 340 q 819 283 788 308 q 868 226 851 258 q 885 161 885 194 l 885 117 m 738 150 q 707 199 738 182 q 632 217 676 217 q 558 199 588 217 q 528 150 528 182 l 528 128 q 558 78 528 96 q 632 61 588 61 q 707 78 676 61 q 738 128 738 96 l 738 150 z "},"ㅺ":{"ha":1264,"x_min":147,"x_max":1107,"o":"m 460 297 q 442 267 454 286 q 408 221 431 249 q 342 140 378 182 q 261 51 306 99 l 147 161 q 233 256 194 211 q 311 356 271 300 q 340 401 329 379 q 358 445 351 422 q 368 494 365 468 q 371 556 371 521 l 371 771 l 546 771 l 546 556 q 549 494 546 521 q 558 445 551 468 q 576 401 565 422 q 606 356 588 379 q 684 256 646 300 q 769 161 722 211 l 658 54 q 578 142 614 101 q 513 222 543 183 q 478 268 490 250 q 461 297 467 286 l 460 297 m 932 78 l 932 614 l 650 614 l 650 763 l 1107 763 l 1107 78 l 932 78 z "},"ㅻ":{"ha":1264,"x_min":104,"x_max":1125,"o":"m 696 75 l 696 132 l 615 54 q 535 142 571 101 q 469 222 500 183 q 435 268 447 250 q 418 297 424 286 l 417 297 q 399 267 411 286 q 365 221 388 249 q 299 140 335 182 q 218 51 263 99 l 104 161 q 190 256 151 211 q 268 356 228 300 q 297 401 286 379 q 315 445 308 422 q 325 494 322 468 q 328 556 328 521 l 328 771 l 503 771 l 503 556 q 506 494 503 521 q 515 445 508 468 q 533 401 522 422 q 563 356 544 379 q 628 272 596 310 q 696 193 660 233 l 696 771 l 871 771 l 871 224 l 1125 224 l 1125 75 l 696 75 z "},"ㅼ":{"ha":1264,"x_min":104,"x_max":1125,"o":"m 417 297 q 399 267 411 286 q 365 221 388 249 q 299 140 335 182 q 218 51 263 99 l 104 161 q 190 256 151 211 q 268 356 228 300 q 297 401 286 379 q 315 445 308 422 q 325 494 322 468 q 328 556 328 521 l 328 771 l 503 771 l 503 556 q 506 494 503 521 q 515 445 508 468 q 533 401 522 422 q 563 356 544 379 q 628 272 596 310 q 696 193 660 233 l 696 769 l 1111 769 l 1111 621 l 868 621 l 868 224 l 1125 224 l 1125 75 l 696 75 l 696 132 l 615 54 q 535 142 571 101 q 469 222 500 183 q 435 268 447 250 q 418 297 424 286 l 417 297 z "},"ㅽ":{"ha":1264,"x_min":104,"x_max":1124,"o":"m 417 297 q 399 267 411 286 q 365 221 388 249 q 299 140 335 182 q 218 51 263 99 l 104 161 q 190 256 151 211 q 268 356 228 300 q 297 401 286 379 q 315 445 308 422 q 325 494 322 468 q 328 556 328 521 l 328 771 l 503 771 l 503 556 q 506 494 503 521 q 515 445 508 468 q 533 401 522 422 q 563 356 544 379 q 628 272 596 310 q 696 193 660 233 l 696 778 l 851 778 l 851 547 l 968 547 l 968 778 l 1124 778 l 1124 74 l 696 74 l 696 132 l 615 54 q 535 142 571 101 q 469 222 500 183 q 435 268 447 250 q 418 297 424 286 l 417 297 m 851 219 l 968 219 l 968 400 l 851 400 l 851 219 z "},"ㅾ":{"ha":1264,"x_min":104,"x_max":1146,"o":"m 935 621 l 935 551 q 938 492 935 518 q 947 442 940 465 q 967 394 954 418 q 1000 339 979 369 q 1067 248 1032 293 q 1146 151 1101 203 l 1028 53 q 960 135 992 93 q 903 214 928 178 q 866 272 875 254 q 853 300 857 289 l 851 300 q 837 270 847 289 q 799 211 826 251 q 726 124 763 161 q 642 46 689 86 l 639 46 q 544 135 588 88 q 469 222 500 183 q 435 268 447 250 q 418 297 424 286 l 417 297 q 399 267 411 286 q 365 221 388 249 q 299 140 335 182 q 218 51 263 99 l 104 161 q 190 256 151 211 q 268 356 228 300 q 297 401 286 379 q 315 445 308 422 q 324 494 321 468 q 326 556 326 521 l 326 771 l 501 771 l 501 556 q 504 494 501 521 q 514 445 507 468 q 533 401 521 422 q 563 356 544 379 q 601 303 582 328 q 639 263 621 278 q 668 297 654 278 q 697 339 682 317 q 731 394 718 369 q 750 442 743 418 q 760 492 757 465 q 763 551 763 518 l 763 621 l 606 621 l 606 769 l 1097 769 l 1097 621 l 935 621 z "},"ㅿ":{"ha":1264,"x_min":288,"x_max":976,"o":"m 976 88 l 288 88 l 631 915 l 976 88 m 750 231 l 631 522 l 515 231 l 750 231 z "},"ㆀ":{"ha":1264,"x_min":133,"x_max":1131,"o":"m 375 61 q 194 138 256 61 q 133 351 133 215 l 133 482 q 194 695 133 618 q 375 772 256 772 q 556 695 494 772 q 617 482 617 618 l 617 351 q 556 138 617 215 q 375 61 494 61 m 375 629 q 308 590 325 629 q 290 469 290 551 l 290 364 q 308 243 290 282 q 375 204 325 204 q 442 243 425 204 q 460 364 460 282 l 460 469 q 442 590 460 551 q 375 629 425 629 m 889 61 q 708 138 769 61 q 647 351 647 215 l 647 482 q 708 695 647 618 q 889 772 769 772 q 1069 695 1008 772 q 1131 482 1131 618 l 1131 351 q 1069 138 1131 215 q 889 61 1008 61 m 889 629 q 822 590 839 629 q 804 469 804 551 l 804 364 q 822 243 804 282 q 889 204 839 204 q 956 243 939 204 q 974 364 974 282 l 974 469 q 956 590 974 551 q 889 629 939 629 z "},"ㆁ":{"ha":1264,"x_min":258,"x_max":1006,"o":"m 632 -40 q 472 -11 542 -40 q 356 65 403 18 q 283 169 308 111 q 258 285 258 226 l 258 382 q 277 483 258 432 q 332 577 296 533 q 421 653 368 621 q 543 699 474 685 l 543 913 l 721 913 l 721 699 q 842 653 789 685 q 932 577 896 621 q 987 483 968 533 q 1006 382 1006 432 l 1006 285 q 981 169 1006 226 q 908 65 956 111 q 791 -11 861 18 q 632 -40 721 -40 m 632 557 q 545 542 583 557 q 480 501 507 528 q 438 440 453 475 q 424 364 424 406 l 424 303 q 438 226 424 261 q 480 165 453 192 q 545 124 507 139 q 632 110 583 110 q 718 124 679 110 q 783 165 757 139 q 824 226 810 192 q 839 303 839 261 l 839 364 q 824 440 839 406 q 783 501 810 475 q 718 542 757 528 q 632 557 679 557 z "},"ㆂ":{"ha":1264,"x_min":138,"x_max":1140,"o":"m 929 771 l 929 551 q 932 492 929 518 q 942 442 935 465 q 961 394 949 418 q 994 339 974 369 q 1061 248 1026 293 q 1140 151 1096 203 l 1021 53 q 953 135 985 93 q 896 214 921 178 q 859 272 868 254 q 846 300 850 289 l 844 300 q 830 270 840 289 q 792 211 819 251 q 735 133 767 175 q 667 50 703 90 l 557 140 q 371 64 497 64 q 199 124 261 64 q 138 307 138 183 l 138 382 q 176 535 138 478 q 285 614 214 593 l 285 792 l 458 792 l 458 614 q 567 535 529 593 q 604 382 604 478 l 604 307 q 589 204 604 250 q 642 272 618 239 q 690 339 667 304 q 724 394 711 369 q 744 442 736 418 q 753 492 751 465 q 756 551 756 518 l 756 771 l 929 771 m 371 492 q 310 458 328 492 q 293 364 293 425 l 293 325 q 310 231 293 264 q 371 197 328 197 q 431 231 414 197 q 449 325 449 264 l 449 364 q 431 458 449 425 q 371 492 414 492 z "},"ㆃ":{"ha":1264,"x_min":163,"x_max":1113,"o":"m 396 64 q 224 124 286 64 q 163 307 163 183 l 163 382 q 201 535 163 478 q 310 614 239 593 l 310 792 l 483 792 l 483 614 q 592 535 554 593 q 629 382 629 478 l 629 307 q 567 124 629 183 q 396 64 506 64 m 1113 74 l 606 74 l 858 836 l 1113 74 m 396 492 q 335 458 353 492 q 318 364 318 425 l 318 325 q 335 231 318 264 q 396 197 353 197 q 456 231 439 197 q 474 325 474 264 l 474 364 q 456 458 474 425 q 396 492 439 492 m 925 217 l 858 446 l 792 217 l 925 217 z "},"ㆄ":{"ha":1264,"x_min":282,"x_max":979,"o":"m 967 936 l 967 796 l 854 796 l 854 549 l 979 549 l 979 408 l 282 408 l 282 549 l 407 549 l 407 796 l 297 796 l 297 936 l 967 936 m 557 549 l 704 549 l 704 796 l 557 796 l 557 549 m 885 117 q 868 51 885 83 q 819 -6 851 19 q 740 -47 788 -31 q 632 -62 693 -62 q 524 -47 571 -62 q 446 -6 478 -31 q 397 51 414 19 q 381 117 381 83 l 381 161 q 397 226 381 194 q 446 283 414 258 q 524 324 478 308 q 632 340 571 340 q 740 324 693 340 q 819 283 788 308 q 868 226 851 258 q 885 161 885 194 l 885 117 m 738 150 q 707 199 738 182 q 632 217 676 217 q 558 199 588 217 q 528 150 528 182 l 528 128 q 558 78 528 96 q 632 61 588 61 q 707 78 676 61 q 738 128 738 96 l 738 150 z "},"ㆅ":{"ha":1264,"x_min":169,"x_max":1097,"o":"m 393 43 q 305 58 343 43 q 242 99 267 74 q 203 156 217 124 q 190 224 190 189 l 190 340 q 203 408 190 375 q 242 465 217 440 q 305 506 267 490 q 393 521 343 521 q 481 506 443 521 q 544 465 519 490 q 583 408 569 440 q 596 340 596 375 l 596 224 q 583 156 596 189 q 544 99 569 124 q 481 58 519 74 q 393 43 443 43 m 874 43 q 785 58 824 43 q 722 99 747 74 q 684 156 697 124 q 671 224 671 189 l 671 340 q 684 408 671 375 q 722 465 697 440 q 785 506 747 490 q 874 521 824 521 q 962 506 924 521 q 1025 465 1000 490 q 1063 408 1050 440 q 1076 340 1076 375 l 1076 224 q 1063 156 1076 189 q 1025 99 1050 124 q 962 58 1000 74 q 874 43 924 43 m 799 689 l 799 799 l 949 799 l 949 689 l 1097 689 l 1097 564 l 650 564 l 650 689 l 799 689 m 318 689 l 318 799 l 468 799 l 468 689 l 617 689 l 617 564 l 169 564 l 169 689 l 318 689 m 393 400 q 333 324 333 400 l 333 240 q 393 164 333 164 q 453 240 453 164 l 453 324 q 393 400 453 400 m 874 400 q 814 324 814 400 l 814 240 q 874 164 814 164 q 933 240 933 164 l 933 324 q 874 400 933 400 z "},"ㆆ":{"ha":1264,"x_min":279,"x_max":983,"o":"m 983 747 l 279 747 l 279 896 l 983 896 l 983 747 m 632 -1 q 494 22 556 -1 q 388 85 432 44 q 321 183 344 126 q 297 310 297 240 l 297 354 q 321 480 297 422 q 388 578 344 538 q 494 642 432 619 q 632 665 556 665 q 770 642 708 665 q 876 578 832 619 q 943 480 919 538 q 967 354 967 422 l 967 310 q 943 183 967 240 q 876 85 919 126 q 770 22 832 44 q 632 -1 708 -1 m 632 522 q 552 508 586 522 q 496 469 518 493 q 463 413 474 444 q 451 349 451 382 l 451 315 q 463 251 451 282 q 496 195 474 219 q 552 156 518 171 q 632 142 586 142 q 712 156 678 142 q 768 195 746 171 q 801 251 790 219 q 813 315 813 282 l 813 349 q 801 413 813 382 q 768 469 790 444 q 712 508 746 493 q 632 522 678 522 z "},"ㆇ":{"ha":1264,"x_min":44,"x_max":1260,"o":"m 1081 446 l 1260 446 l 1260 296 l 1081 296 l 1081 -200 l 908 -200 l 908 1092 l 1081 1092 l 1081 760 l 1260 760 l 1260 610 l 1081 610 l 1081 446 m 371 576 l 371 210 l 510 213 l 510 576 l 679 576 l 679 219 q 767 225 726 222 q 843 232 808 228 l 856 88 q 726 75 800 81 q 555 66 653 69 q 331 60 457 63 q 44 58 206 58 l 44 208 l 201 208 l 201 576 l 371 576 z "},"ㆈ":{"ha":1264,"x_min":60,"x_max":1204,"o":"m 944 757 l 1038 757 l 1038 1092 l 1204 1092 l 1204 -200 l 1038 -200 l 1038 294 l 944 294 l 944 -165 l 778 -165 l 778 1069 l 944 1069 l 944 757 m 733 107 q 592 96 665 100 q 437 89 519 92 q 261 85 354 86 q 60 85 168 85 l 60 231 l 175 231 l 175 574 l 343 574 l 343 232 q 395 233 369 232 q 449 233 421 233 l 449 574 l 617 574 l 617 240 q 670 243 643 242 q 726 247 697 244 l 733 107 m 944 443 l 1038 443 l 1038 608 l 944 608 l 944 443 z "},"ㆉ":{"ha":1264,"x_min":67,"x_max":1129,"o":"m 721 576 l 721 219 q 892 232 821 224 l 904 88 q 774 75 849 81 q 599 66 700 69 q 367 60 499 63 q 67 58 236 58 l 67 208 q 156 208 113 208 q 243 208 200 207 l 243 576 l 413 576 l 413 210 l 551 213 l 551 576 l 721 576 m 1129 -200 l 956 -200 l 956 1092 l 1129 1092 l 1129 -200 z "},"ㆊ":{"ha":1264,"x_min":69,"x_max":1131,"o":"m 69 499 q 559 504 353 499 q 892 522 765 510 l 904 379 q 804 368 860 372 q 678 360 749 364 l 678 -160 l 507 -160 l 507 354 q 456 353 482 354 q 401 351 429 353 l 401 -160 l 231 -160 l 231 350 l 69 350 l 69 499 m 958 300 l 958 1092 l 1131 1092 l 1131 -200 l 958 -200 l 958 -37 l 750 -37 l 750 101 l 958 101 l 958 161 l 750 161 l 750 300 l 958 300 z "},"ㆋ":{"ha":1264,"x_min":42,"x_max":1181,"o":"m 715 374 q 631 366 675 369 q 543 360 588 363 l 543 -118 l 382 -118 l 382 354 q 344 353 363 354 q 306 353 325 353 l 306 -118 l 144 -118 l 144 351 l 42 351 l 42 499 q 210 499 131 499 q 367 501 289 499 q 528 506 446 503 q 708 515 611 508 l 715 374 m 763 317 l 763 1069 l 929 1069 l 929 -165 l 763 -165 l 763 -28 l 607 -28 l 607 111 l 763 111 l 763 178 l 607 178 l 607 317 l 763 317 m 1181 -200 l 1013 -200 l 1013 1092 l 1181 1092 l 1181 -200 z "},"ㆌ":{"ha":1264,"x_min":69,"x_max":1131,"o":"m 69 500 q 559 506 353 500 q 892 524 765 511 l 904 379 q 726 363 831 368 l 726 -160 l 556 -160 l 556 356 l 401 351 l 401 -160 l 231 -160 l 231 350 l 69 350 l 69 500 m 1131 -200 l 957 -200 l 957 1092 l 1131 1092 l 1131 -200 z "},"ㆍ":{"ha":1264,"x_min":529,"x_max":739,"o":"m 529 468 q 559 542 529 513 q 633 572 589 572 q 708 542 678 572 q 739 468 739 513 q 708 393 739 424 q 633 363 678 363 q 559 393 589 363 q 529 468 529 424 z "},"ㆎ":{"ha":1264,"x_min":282,"x_max":825,"o":"m 825 -200 l 649 -200 l 649 1092 l 825 1092 l 825 -200 m 282 468 q 312 542 282 513 q 386 572 342 572 q 461 542 431 572 q 492 468 492 513 q 461 393 492 424 q 386 363 431 363 q 312 393 342 363 q 282 468 282 424 z "},"ⅰ":{"ha":1264,"x_min":540,"x_max":724,"o":"m 544 729 l 719 729 l 719 -36 l 544 -36 l 544 729 m 540 1031 l 724 1031 l 724 842 l 540 842 l 540 1031 z "},"ⅱ":{"ha":1264,"x_min":367,"x_max":899,"o":"m 371 729 l 546 729 l 546 -36 l 371 -36 l 371 729 m 367 1031 l 550 1031 l 550 842 l 367 842 l 367 1031 m 719 729 l 894 729 l 894 -36 l 719 -36 l 719 729 m 715 1031 l 899 1031 l 899 842 l 715 842 l 715 1031 z "},"ⅲ":{"ha":1264,"x_min":224,"x_max":1042,"o":"m 546 729 l 721 729 l 721 -36 l 546 -36 l 546 729 m 542 1031 l 725 1031 l 725 842 l 542 842 l 542 1031 m 228 729 l 403 729 l 403 -36 l 228 -36 l 228 729 m 224 1031 l 407 1031 l 407 842 l 224 842 l 224 1031 m 863 729 l 1038 729 l 1038 -36 l 863 -36 l 863 729 m 858 1031 l 1042 1031 l 1042 842 l 858 842 l 858 1031 z "},"ⅳ":{"ha":1264,"x_min":272,"x_max":1103,"o":"m 276 729 l 451 729 l 451 -36 l 276 -36 l 276 729 m 272 1031 l 456 1031 l 456 842 l 272 842 l 272 1031 m 668 -36 l 468 729 l 654 729 l 783 125 l 789 125 l 922 729 l 1103 729 l 904 -36 l 668 -36 z "},"ⅴ":{"ha":1264,"x_min":268,"x_max":996,"o":"m 518 -36 l 268 729 l 460 729 l 633 128 l 639 128 l 814 729 l 996 729 l 746 -36 l 518 -36 z "},"ⅵ":{"ha":1264,"x_min":161,"x_max":992,"o":"m 813 729 l 988 729 l 988 -36 l 813 -36 l 813 729 m 808 1031 l 992 1031 l 992 842 l 808 842 l 808 1031 m 361 -36 l 161 729 l 347 729 l 476 125 l 482 125 l 615 729 l 796 729 l 597 -36 l 361 -36 z "},"ⅶ":{"ha":1264,"x_min":90,"x_max":1140,"o":"m 282 -36 l 90 729 l 271 729 l 392 125 l 397 125 l 519 729 l 694 729 l 507 -36 l 282 -36 m 714 729 l 883 729 l 883 -36 l 714 -36 l 714 729 m 710 1031 l 888 1031 l 888 842 l 710 842 l 710 1031 m 967 729 l 1136 729 l 1136 -36 l 967 -36 l 967 729 m 963 1031 l 1140 1031 l 1140 842 l 963 842 l 963 1031 z "},"ⅷ":{"ha":1264,"x_min":46,"x_max":1221,"o":"m 636 729 l 789 729 l 789 -36 l 636 -36 l 636 729 m 632 1031 l 793 1031 l 793 842 l 632 842 l 632 1031 m 235 -36 l 46 729 l 222 729 l 333 153 l 339 153 q 395 441 367 300 q 451 729 424 582 l 622 729 l 438 -36 l 235 -36 m 850 729 l 1003 729 l 1003 -36 l 850 -36 l 850 729 m 846 1031 l 1007 1031 l 1007 842 l 846 842 l 846 1031 m 1064 729 l 1217 729 l 1217 -36 l 1064 -36 l 1064 729 m 1060 1031 l 1221 1031 l 1221 842 l 1060 842 l 1060 1031 z "},"ⅸ":{"ha":1264,"x_min":260,"x_max":1144,"o":"m 264 735 l 439 735 l 439 -36 l 264 -36 l 264 735 m 260 1031 l 443 1031 l 443 842 l 260 842 l 260 1031 m 922 365 l 1144 -36 l 953 -36 l 803 250 l 658 -36 l 471 -36 l 699 365 l 481 735 l 676 735 l 818 474 l 957 735 l 1138 735 l 922 365 z "},"ⅹ":{"ha":1264,"x_min":281,"x_max":982,"o":"m 746 365 l 982 -36 l 767 -36 l 626 246 l 485 -36 l 281 -36 l 522 365 l 290 735 l 510 735 l 640 479 l 778 735 l 975 735 l 746 365 z "},"Ⅰ":{"ha":1264,"x_min":542,"x_max":719,"o":"m 542 965 l 719 965 l 719 -36 l 542 -36 l 542 965 z "},"Ⅱ":{"ha":1264,"x_min":374,"x_max":890,"o":"m 374 965 l 551 965 l 551 -36 l 374 -36 l 374 965 m 713 965 l 890 965 l 890 -36 l 713 -36 l 713 965 z "},"Ⅲ":{"ha":1264,"x_min":213,"x_max":1049,"o":"m 213 965 l 390 965 l 390 -36 l 213 -36 l 213 965 m 871 965 l 1049 965 l 1049 -36 l 871 -36 l 871 965 m 544 965 l 722 965 l 722 -36 l 544 -36 l 544 965 z "},"Ⅳ":{"ha":1264,"x_min":215,"x_max":1192,"o":"m 429 965 l 614 965 q 713 583 665 771 q 813 201 761 394 q 913 583 864 394 q 1013 965 961 771 l 1192 965 l 888 -36 l 726 -36 l 429 965 m 215 965 l 393 965 l 393 -36 l 215 -36 l 215 965 z "},"Ⅴ":{"ha":1264,"x_min":165,"x_max":1097,"o":"m 553 -36 q 359 465 457 215 q 165 965 261 714 l 358 965 l 629 213 q 772 589 700 403 q 915 965 844 775 l 1097 965 q 899 465 997 714 q 700 -36 800 215 l 553 -36 l 553 -36 z "},"Ⅵ":{"ha":1264,"x_min":72,"x_max":1049,"o":"m 72 965 l 257 965 q 356 585 308 772 q 456 206 404 397 q 556 585 507 397 q 656 965 604 772 l 835 965 l 531 -36 l 369 -36 l 72 965 m 871 965 l 1049 965 l 1049 -36 l 871 -36 l 871 965 z "}}}
